<?xml version="1.0" encoding="UTF-8" standalone="no"?>
<!-- Created with Inkscape (http://www.inkscape.org/) -->

<svg
   version="1.1"
   id="svg1"
   width="203.19141"
   height="458.11108"
   viewBox="0 0 203.19141 458.11108"
   xmlns="http://www.w3.org/2000/svg"
   xmlns:svg="http://www.w3.org/2000/svg">
  <defs
     id="defs1" />
  <g
     id="g1"
     transform="translate(-3634.0111,-3800.2302)">
    <path
       d="m 3634.404,4252.5956 c -42.6478,-26.9762 -74.8131,-67.057 -104.5882,-107.0781 -27.2343,-38.6817 -43.5479,-86.823 -36.1184,-134.3715 5.9862,-45.5024 28.9452,-88.4404 61.3151,-120.2825 -11.4993,-16.6618 -24.5097,-33.5343 -35.3214,-51.2039 -14.1027,-9.9313 8.0275,-11.3838 13.9825,-14.4702 20.483,-10.616 45.5458,-7.4123 68.3947,-10.6027 26.1124,-3.6461 52.3888,-6.7039 78.4931,-9.7569 17.9119,10.4172 0.7096,37.0861 2.7264,54.2583 -3.6699,11.4805 -2.5547,35.2041 -0.1836,50.2533 1.0974,19.176 3.9272,38.1904 5.8673,57.287 -15.226,17.0063 -32.179,-13.0255 -46.9992,-18.6875 -10.0824,-10.303 -30.9402,-20.0117 -33.4553,0.8442 -10.8032,13.7908 -13.2342,32.625 -14.4647,49.8989 -1.9912,27.9519 -0.3365,57.952 11.7243,83.2465 14.714,30.859 42.6015,54.4712 69.9057,75.0482 22.418,7.6667 9.4057,32.6628 -0.158,45.4391 -9.0698,17.5037 -17.2706,35.4365 -25.9238,53.1457 -4.9262,3.7136 -10.6037,-1.2573 -15.1965,-2.9679 z"
       id="path74"
       style="fill:none;fill-opacity:0"
       transform="translate(145.11278,-1.5037594)" />
    <path
       style="fill:none;fill-opacity:1;stroke:#000000;stroke-width:6;stroke-dasharray:none;stroke-opacity:1"
       d="m 399.62956,3166.3174 c -42.64777,-26.9762 -74.81305,-67.057 -104.58817,-107.0781 -27.23436,-38.6817 -43.54792,-86.823 -36.11838,-134.3715 5.98616,-45.5024 28.94519,-88.4404 61.31511,-120.2825 -11.4993,-16.6618 -24.50974,-33.5343 -35.32141,-51.2039 -14.10273,-9.9313 8.02746,-11.3838 13.98251,-14.4702 20.48293,-10.616 45.54577,-7.4123 68.39464,-10.6027 26.11242,-3.6461 52.38882,-6.7039 78.49314,-9.7569 17.91183,10.4172 0.70962,37.0861 2.72639,54.2583 -3.66987,11.4805 -2.55467,35.2041 -0.18359,50.2533 1.0974,19.176 3.92713,38.1904 5.86723,57.287 -15.22598,17.0063 -32.17899,-13.0255 -46.99918,-18.6875 -10.08241,-10.303 -30.9402,-20.0117 -33.45531,0.8442 -10.80318,13.7908 -13.2342,32.625 -14.4647,49.8989 -1.99114,27.9519 -0.33646,57.952 11.72429,83.2465 14.71402,30.859 42.60154,54.4712 69.90575,75.0482 22.41796,7.6667 9.40573,32.6628 -0.15797,45.4391 -9.06986,17.5037 -17.27063,35.4365 -25.92385,53.1457 -4.92616,3.7136 -10.6037,-1.2573 -15.1965,-2.9679 z"
       id="path33"
       transform="translate(3379.8872,1084.7744)" />
  </g>
</svg>
