<?xml version="1.0" standalone="no"?>
<!DOCTYPE svg PUBLIC "-//W3C//DTD SVG 1.1//EN" "http://www.w3.org/Graphics/SVG/1.1/DTD/svg11.dtd" >
<svg xmlns="http://www.w3.org/2000/svg" xmlns:xlink="http://www.w3.org/1999/xlink" version="1.1">
<metadata>
Created by FontForge 20230101 at Tue Jul  7 07:29:41 2015
 By Unknown
Copyright FontBank 2010.
</metadata>
<defs>
<font id="FBWallWW34-Regular" horiz-adv-x="1000" >
  <font-face 
    font-family="FBWallWW34-Regular"
    font-weight="400"
    font-stretch="normal"
    units-per-em="1000"
    panose-1="2 2 6 3 2 1 1 2 1 1"
    ascent="800"
    descent="-200"
    x-height="833"
    cap-height="718"
    bbox="-3 -142 1000 858"
    underline-thickness="50"
    underline-position="-175"
    unicode-range="U+0020-FFE6"
  />
<missing-glyph 
d="M100 0v800h800v-800h-800zM150 50h700v700h-700v-700z" />
    <glyph glyph-name=".notdef" 
d="M100 0v800h800v-800h-800zM150 50h700v700h-700v-700z" />
    <glyph glyph-name="glyph1" horiz-adv-x="0" 
 />
    <glyph glyph-name="glyph2" 
 />
    <glyph glyph-name="space" unicode=" " horiz-adv-x="500" 
d="M0 0z" />
    <glyph glyph-name="exclam" unicode="!" horiz-adv-x="724" 
d="M450 748l-28 -135l-12 -139l-34 -231l-91 5l-8 28l-8 26q13 14 26 32l13 16l-40 33l7 85l-4 103l-24 116l3 76l106 3zM361 149l73 -13l-19 -55l9 -82l-68 -7l-71 11l-5 52l5 41l9 55zM9 831v-214l21 -30l-21 -35v-640l231 5l479 -5l-10 265l-49 45l49 35l5 574h-165
l-35 -31l-40 5l-40 30z" />
    <glyph glyph-name="quotedbl" unicode="&#x22;" horiz-adv-x="586" 
d="M151 510l-5 77v46l-7 74l-6 81l53 10l69 -15l16 -53l-17 -44l6 -73l-9 -98zM355 520l-17 91v47l-15 65l3 60l40 15l102 -10l-17 -80l-5 -55l-2 -57l1 -76h-90zM9 831v-244l21 -30l-21 -35v-610l231 5h340v255l-50 30l59 50v579h-40l-35 -29l-40 5l-40 28z" />
    <glyph glyph-name="numbersign" unicode="#" horiz-adv-x="873" 
d="M297 63h-134l32 104l40 24l40 20l-17 65l-42 8l-26 -33l-91 18l16 74l66 3l40 3l30 82l-50 23l-62 3l-6 89l85 -5l63 -4l8 32l14 35l13 53l5 51l74 5l51 -5l-2 -51l-20 -60l-18 -60l79 4l80 -4l20 91l-1 74l81 -13l25 -17l-16 -36l46 -32l-31 -67l65 4l38 -4l-4 -40
l-10 -75l-37 -8l-73 8l-12 -33l-20 -51l59 -16l79 2l-10 -95l-91 2l-47 -13l-17 -52l-32 -103h-111l24 91l-1 75l-83 2l-70 3l-12 -78zM386 431l-30 -107h88h58l27 65l8 42l-69 15zM9 827v-210l21 -30l-21 -35v-640l231 5l630 -5l-5 280l-31 35l36 55v545h-111h-99l-45 -15
h-40l-56 21z" />
    <glyph glyph-name="dollar" unicode="$" horiz-adv-x="707" 
d="M601 287l-50 -160l-71 -44h-74v-67l-155 5l15 72q14 0 -23 -2q-29 -1 -54 1q-19 2 -39 30q-21 25 -17 25l-14 35l2 47l69 10l61 11l-1 -42l50 -21l74 -14l65 -6l56 59q6 9 2 24q-2 10 -14 31q-8 12 -10 19q-5 10 -4 16l-234 35l-96 40l-12 53q-5 9 -12 36q-10 33 -9 53
l5 86l53 32l128 29l-9 77l129 -9l-6 -72l147 -35l18 -84l-5 -66l-85 11l-20 55l-80 11l-131 -16l-29 -37q0 -11 6 -21q4 -6 15 -17l3 -4l24 -27l46 -10l79 -10l45 -3l92 -24zM705 -83l-10 245l-26 35l36 51l-15 589l-80 -4h-56l-45 -21l-50 -10l-40 31l-410 -6v-210l21 -30
l-21 -35v-640l231 5h465z" />
    <glyph glyph-name="percent" unicode="%" horiz-adv-x="948" 
d="M670 315l16 19q13 15 20 21q10 10 29 16l7 -1q61 -16 87 -31q42 -23 42 -63q0 -75 -43 -124q-44 -52 -113 -52q-56 0 -99 36q-45 37 -45 89q0 29 10 51q9 21 29 29q7 4 15 4q5 0 15 -1q11 -1 16 0q9 1 14 7zM758 696l-65 -110l-95 -120l-72 -128l-67 -120l-44 -83
l-21 -64l-46 -42l-100 59l55 98l72 123l76 122l73 100l39 99l32 37l32 74zM428 528l-34 -48l-16 -19l-195 -9q-9 -2 -20 3q-7 3 -23 12q-14 8 -19 11q-11 5 -18 5l-42 85l44 35q7 7 9 15q0 4 -1 12q-2 8 -2 12q1 8 7 14l4 50l48 12l40 9l48 5l42 7l83 -31q13 -16 23 -36
q11 -23 13 -45zM770 215v61l-64 -21q-10 -4 -10 -7t4 -7q6 -6 7 -10q2 -7 -1 -16q5 -5 12 -5q5 0 16 2q10 2 16 3q9 1 20 0zM348 541v47q0 16 -6 25q-3 6 -13 13l-13 11q-7 6 -16 5q-5 -1 -16 -7q-8 -4 -13 -6q-7 -3 -13 -3l-13 1q-18 1 -25 -1q-12 -1 -19 -10l-3 -2
q-15 -15 -19 -24q-7 -12 -7 -32l-1 -10q0 -11 2 -15q2 -6 15 -17l23 -23l47 7h22q21 -3 30 -2q17 2 23 12zM940 -88l-11 265l-35 45l35 65l5 535l-74 5h-200l-180 -5l-51 -30l-50 35h-370v-210l21 -30l-21 -35v-640l231 5z" />
    <glyph glyph-name="ampersand" unicode="&#x26;" horiz-adv-x="924" 
d="M924 -88l-9 265l-15 13l15 97l4 535l-75 5h-184l-45 -15h-38l-58 21l-510 -6v-210l21 -30l-21 -35v-640l231 5zM853 53l-23 1h-20q-11 0 -22 -1q-34 -2 -43 -1q-7 0 -13 4l-14 8q-24 12 -39 22q-9 6 -17 16q-6 7 -10 9q-6 2 -19 2l-46 -65q-54 -11 -111 -18
q-59 -7 -108 -7q-103 0 -172 43q-74 45 -43 101q22 44 44 72q12 16 42 45q21 20 34 34q21 23 45 50q-14 10 -31 29q-11 12 -31 34l-18 22q-13 14 -26 46q-14 35 -4 39q3 3 11 5q3 2 13 6q22 8 31 15q15 12 15 29q0 22 -11 41q-6 12 -19 28v1q29 22 78 43q53 22 87 22h170
q5 0 31 -25q25 -26 29 -36q5 -12 14 -25q6 -9 16 -22q20 -26 24 -39q7 -21 -9 -43q-27 -38 -55 -63q-14 -15 -45 -37q-21 -17 -33 -27q-19 -17 -37 -38q-8 -8 4 -19q7 -7 31 -21q22 -13 32 -21q18 -13 28 -24q2 9 23 35q23 25 31 25q3 0 13 -8l21 -21q17 -20 27 -29
q17 -16 30 -27q2 0 -2 2q-3 1 -7 -1q-7 -4 -16 -13q-11 -11 -25 -33l-36 -51q16 4 22 2q5 -1 7 -5q3 -5 7 -7q5 -4 20 -4l28 -2q22 -2 32 -2q16 0 25 4h40v-48v-52zM563 623q-30 4 -47 5q-24 2 -42 -1l-8 -2q-58 -24 -75 -42q-23 -28 -23 -95q0 -8 21 -19q13 -6 45 -16
q16 -5 23 -8q10 -4 16 -7q21 24 43 44q14 12 35 27q33 26 35 40q4 22 -23 74zM538 228q-15 11 -24 20q-6 4 -13 13q-7 10 -14 15q-10 8 -29 16l-55 16q-12 -15 -26 -30q-7 -10 -28 -30q-20 -22 -34 -37q-23 -25 -47 -53q-3 0 31 -18q34 -17 49 -17l37 -2l37 -3q49 10 73 35
q15 15 38 66z" />
    <glyph glyph-name="quotesingle" unicode="'" horiz-adv-x="500" 
d="M202 514l-17 90v48l-16 65l3 60l41 15l97 -10l-18 -66l-8 -64l-9 -57l-4 -92zM0 592l30 -35l-21 -35v-610l231 5l257 -5l-11 320l-25 30l25 65v499l-60 5h-280l-45 -16l-45 16h-56v-239z" />
    <glyph glyph-name="parenleft" unicode="(" horiz-adv-x="500" 
d="M166 362l-9 -22l-40 37l-3 70l25 11l5 -64l3 -11zM423 792l-22 -61l-26 -53l-40 -95l-42 -208l14 -126l18 -106q6 -38 22 -78q10 -24 36 -74l23 -44l-73 -15l-24 62l-33 -10l-37 -12l-32 85l-26 175l-1 154l16 165l73 26l-7 39l-37 41l22 44l13 50l26 51zM260 316l-38 -6
l-17 -34l19 -27l17 39zM5 592l31 -35l-21 -35v-610l231 5h241v305l-30 40l30 60l5 500l-205 5h-135l-45 -15l-45 15h-57v-235z" />
    <glyph glyph-name="parenright" unicode=")" horiz-adv-x="500" 
d="M204 399l-14 97l-18 105q-6 40 -23 80q-11 26 -38 76l-21 40l74 15l25 -62l69 22l32 -85l25 -175l1 -154l-15 -165l-74 -26l8 -39l36 -41l-21 -44l-14 -50l-25 -51l-137 10l21 61l27 53l40 96zM5 592l31 -35l-21 -35v-610l231 5h241v305l-30 40l30 60l5 500l-205 5h-135
l-45 -15l-45 15h-57v-235z" />
    <glyph glyph-name="asterisk" unicode="*" horiz-adv-x="624" 
d="M235 787l130 10l-26 -95l45 -10l90 40l26 -75l-5 -45l-101 11l-50 -26l141 -80l-70 -55l-106 95l-125 -90l-59 45l115 100l-66 25l-75 15l16 70l130 -14v54zM9 827v-240l21 -30l-21 -35v-610l231 5h380l-5 285l-40 40l50 50l-10 541h-96h-45l-34 -11l-40 -15l-70 26z" />
    <glyph glyph-name="plus" unicode="+" horiz-adv-x="807" 
d="M452 446l78 1l63 4l88 -5l3 -75l-3 -39l-78 -6l-83 9l-68 -3l6 -111l-17 -65l11 -55h-134v63l-3 101l3 67l-54 5l-89 -11l-37 6v114h88l55 14l47 -14v28l-8 50l6 41l-13 70l57 22l82 -12l8 -76l-9 -57zM9 827v-210l21 -30l-21 -35v-640l231 5l564 -5l-10 280l-25 30
l25 65v535l-59 5h-245l-45 -15h-40l-56 21z" />
    <glyph glyph-name="comma" unicode="," horiz-adv-x="500" 
d="M269 60q-2 -3 -2 -9q0 -4 1 -13q1 -16 1 -25q-1 -14 -4 -27q-3 -10 -16 -11q-8 0 -27 3q-13 2 -17 2q-8 0 -10 -4q-5 -3 -13 -6l-15 -3q-8 -1 -11 -2q-6 -1 -10 -3q-6 1 -12 0q-4 -1 -10 -2q-12 -2 -16 -2q-7 0 -9 4q-6 9 -5 17q2 9 11 13q4 8 6 13q1 3 2 7q0 3 1 6
q1 4 5 9q1 6 10 8q6 1 21 2q15 0 20 1q10 3 11 7q7 14 7 35q0 11 -2 31l-1 11l-9 -1q-18 -4 -27 -5q-16 -2 -23 1q-2 4 -7 6h-8q-8 0 -11 3q-5 5 -4 20q-1 4 -1 8q0 3 1 10q2 8 2 12q0 7 -3 10l2 30l2 31q2 5 11 9q5 3 16 6l13 3q5 1 42 1q22 0 66 -1l27 -1q6 0 7 -5
q1 -4 0 -13q-1 -10 0 -14q0 -8 5 -12q2 -2 0 -9q-2 -3 -6 -12l-5 -10q0 -4 6 -1q1 -2 1 -10q0 -5 -2 -14q-1 -13 -2 -18q0 -8 3 -11l-2 -15q-1 -21 -3 -33q-3 -18 -7 -27zM9 829v-212l21 -30l-21 -35v-135v-495h484l-13 540l-35 25l40 50v292l-75 -5l-241 5l-30 -20l-29 -16
l-16 36h-85z" />
    <glyph glyph-name="hyphen" unicode="-" horiz-adv-x="850" 
d="M696 329l-92 -2l-83 -13l-87 15h-137l-44 -8l-57 8h-45l-1 68l98 -2l-8 47l25 19l55 -14h81h70h44l55 11l74 -11h52v-34v-84zM9 827v-210l21 -30l-21 -35v-135v-505l231 5l604 -5l-10 280l-25 30l25 65v535l-59 5h-115l-45 -15h-40l-56 21z" />
    <glyph glyph-name="period" unicode="." horiz-adv-x="500" 
d="M184 167l73 -11l-20 -57l10 -81l-68 -8l-72 13l-5 51l5 42l10 54zM5 832v-215l20 -30l-20 -35v-640l437 5l43 -5l6 280l-26 30l26 65v540l-250 5h-26l-45 -16h-40l-105 20z" />
    <glyph glyph-name="slash" unicode="/" horiz-adv-x="520" 
d="M345 810l137 -23l-43 -120l-74 -104l-48 -138l-46 -130l-29 -89l-48 -193l-20 -79l-138 32l89 270l48 135l53 131l55 112l20 74l30 85zM235 352l-21 -50l-9 -70l30 16l34 119zM5 827v-210l20 -30l-20 -35v-640l230 5l285 -5l-10 280l-25 30l25 65v535l-59 5l-236 -5
l-54 -10l-45 -10l-26 25h-85z" />
    <glyph glyph-name="zero" unicode="0" horiz-adv-x="632" 
d="M114 721l-61 -30l-24 20l30 40l55 -9v-21zM583 321q-3 -20 -6 -39q-2 -12 -4 -32q-3 -28 -5 -42q-3 -22 -9 -46q-23 -93 -115 -141q-93 -48 -200 -20l-54 13l-21 5q-5 3 -11 8q-5 4 -17 15l-13 14q-16 17 -36 46q-18 26 -33 54q-11 18 -15 70q-2 28 -2 75l1 5l-1 7
q0 91 5 140q8 88 32 118l54 -15q0 27 -7 36q-3 6 -12 7q-5 0 -7 3q-1 4 2 15q9 45 63 71q33 16 110 33h2q20 -3 44 -4q13 -1 40 -2q54 -3 77 -8q37 -9 63 -36q11 -11 30 -36q13 -19 26 -39l19 -54l2 -73q2 -55 2 -81q0 -44 -4 -67zM534 471q-12 4 -25 6q-7 1 -20 1
q-15 1 -21 3q-9 3 -10 11q-3 16 -5 29q-2 8 -3 18q-1 9 -2 13q-2 5 -9 14q-10 13 -40 23q-24 9 -45 12h-90q-13 -14 -20 -23q-4 -6 -11 -15l-25 -32q-6 -7 -13 -36q-4 -18 -10 -55l-7 -39v-95l13 -46q19 -76 41 -103q34 -46 106 -46q46 0 82 58q32 49 38 102l1 40q1 27 2 40
q1 23 7 35q2 7 11 11q6 2 19 5q11 2 16 4q9 2 15 6zM404 412l-30 -56l-36 40l-19 35l24 40l26 -25zM634 -88l-9 280l-26 30l26 65v535l-60 5h-56l-45 -15h-40l-54 21l-361 -6v-210l21 -30l-21 -35v-640l231 5z" />
    <glyph glyph-name="one" unicode="1" horiz-adv-x="480" 
d="M480 -88l-10 300l-24 30l24 65v520l-59 5h-121l-45 -16h-40l-55 20l-141 -4v-215l21 -30l-21 -35v-640l231 5zM310 597l-9 -58l3 -93v-89l-1 -155l-55 -20l12 -57l46 -16l-5 -86l-133 5l17 32l-1 48l5 59l-5 98l5 70v111v41v87l-35 -7l-12 -3q-3 -1 -13 -6l-50 -20
l-26 59l53 50q14 15 24 22q7 5 17 10q10 6 16 11q9 8 23 20l44 10l71 -10l7 -28l-2 -39zM449 185l-60 -19l-30 -15l5 64l40 5z" />
    <glyph glyph-name="two" unicode="2" horiz-adv-x="604" 
d="M59 567l1 25q2 52 9 74q11 36 41 36q19 0 47 -4q16 -3 51 -10q39 -8 57 -11q31 -5 55 -5q11 0 21 5q7 3 20 11q17 10 28 14q19 6 40 6h33h21h21q1 -15 4 -33l6 -30q5 -24 7 -36q4 -21 4 -37q0 -39 -3 -72q-6 -55 -18 -68q-13 -14 -46 -18q-19 -4 -63 -4q-37 -1 -53 -2
q-28 -3 -43 -11q-7 -3 -15 -12q-6 -7 -16 -19q-15 -20 -22 -27q-12 -12 -22 -12q-40 0 -52 -15q-5 -9 -4 -30q1 -6 1 -9q0 -5 -1 -8q-1 -4 3 -7q3 -2 13 -6q12 -4 16 -7q8 -6 8 -13q-3 -17 -5 -37q-3 -29 -3 -43q0 -8 25 -14q22 -6 39 -6l61 -1q31 -2 47 -2q26 0 52 3
q21 3 30 29q4 14 7 47l3 24q9 -1 20 -1h19q23 1 32 -2q15 -3 24 -17v-140h-144l-201 -20h-155v110l6 50q8 82 18 118q15 62 46 67q59 11 121 25q39 9 115 28l10 2v135h-161q-37 -6 -44 -17q-6 -9 -6 -47l1 -6q0 -6 -6 -6q-4 0 -13 3q-6 2 -9 2q-5 1 -8 1q-31 0 -56 -2
q-26 -3 -19 -3q3 0 16 33q12 32 -11 22zM415 547l40 -15l14 75l-50 5zM9 833v-216l21 -30l-21 -35v-640l231 5h370l-5 430l-35 40l35 80l-6 366l-59 4l-111 -4l-45 -16h-40l-54 20z" />
    <glyph glyph-name="three" unicode="3" horiz-adv-x="649" 
d="M125 487q0 24 4 51q3 14 11 44l10 41l1 24q1 15 2 21q2 11 7 19q7 15 51 17q26 2 81 0l33 -2q37 0 68 3q19 2 52 5q29 4 47 5q28 2 62 2v-240q-53 0 -66 -12q-11 -8 -17 -49l-2 -19l27 -7q39 -10 48 -21q15 -18 15 -72v-250h-184q-54 11 -131 15q-72 4 -134 0
q-22 0 -26 16q-2 8 2 38q2 14 2 22q1 14 1 24q-2 15 -2 33q1 12 2 33q1 25 1 37q0 22 -1 37q7 8 30 8q12 -1 43 -5q21 -3 30 -3q15 -1 22 0q14 4 13 -10q0 -10 -9 -40q-8 -25 -10 -38q-3 -20 1 -32q11 -25 78 -37q45 -8 107 -8q9 0 15 15q3 9 5 26l1 4q4 31 9 94q5 61 5 91
q0 20 -27 25q-16 3 -56 1l-26 -1l24 66l75 9q0 54 9 89q7 29 27 67l-68 2q-44 2 -67 1q-38 -1 -80 -9q-16 -2 -27 -40q-5 -22 -14 -77l-4 -28q-10 2 -20 3h-13q-13 0 -18 2q-9 2 -19 10zM480 277l-40 -60l40 -35l24 75zM9 827v-210l21 -30l-21 -35v-640l231 5l404 -5
l-10 280l-24 30l24 65v535l-59 5h-226l-45 -15h-40l-55 21z" />
    <glyph glyph-name="four" unicode="4" horiz-adv-x="650" 
d="M644 -88l-10 280l-24 30l24 65v535l-59 5h-245l-45 -15h-40l-55 21l-181 -6v-210l10 -29l-10 -36v-640l231 5zM77 599l-21 -75l-30 30l16 65l19 35zM593 213q-45 0 -69 -2q-28 -3 -66 -14q4 -36 5 -73q1 -23 0 -65l-1 -51l-45 6q-21 -5 -46 -5q-31 0 -28 10q2 19 4 42
q1 14 2 41q2 38 4 57q3 29 10 49q-40 0 -77 4q-22 2 -61 7q-41 5 -65 7q-41 3 -87 3v45q2 13 3 27q0 10 1 27q0 21 1 32q1 18 5 34q0 10 8 16q5 4 16 9q14 7 18 12q8 7 8 18l-3 42q-5 52 -5 76q-2 42 2 42q19 4 40 5q15 2 31 2l30 -2q-4 -9 -6 -31q-1 -13 -3 -44
q-3 -38 -5 -54q-3 -27 -6 -36l-15 -130h150q18 12 23 19q4 6 9 27l2 9v185q3 9 13 16q5 4 18 10q14 8 20 14q10 8 10 20q0 15 -9 23q-5 5 -18 10q-9 4 -13 7q-7 4 -10 9q-5 9 -8 20q-2 7 -4 19q-1 10 -2 16q-3 9 -6 16h170v-106q-9 -50 -29 -177q-17 -118 -16 -118l35 -5
q15 -1 24 -2q15 -2 41 -2v-116zM483 284l-70 21l-20 -61l80 9z" />
    <glyph glyph-name="five" unicode="5" horiz-adv-x="600" 
d="M594 -88l-10 280l-25 30l25 65v535l-59 5h-205l-45 -15h-40l-56 21l-170 -6v-210l21 -30l-21 -35v-640l231 5zM111 720l-40 -50l-20 36l-5 40l20 9zM546 701q0 -28 -4 -48q-3 -18 -11 -37h-65q-20 0 -57 -3q-22 -2 -69 -8q-42 -5 -59 -6q-31 -4 -45 -4q-12 0 -12 8
q-1 5 4 19q4 8 5 14q3 8 3 15v39q45 0 127 4q79 4 128 7l3 1q19 5 31 6q21 1 21 -7zM516 36q-58 -5 -88 -6q-21 -2 -69 -3l-13 -1l-54 -1q-45 0 -66 -1q-36 -1 -50 -4l-99 16q0 22 -1 44q-1 13 -2 36q-2 25 -3 38v47q0 10 8 10q4 0 20 -3q9 -3 14 -5q8 -2 13 -2q33 0 58 -2
q38 -4 47 -14q4 -3 0 -14q-3 -5 -11 -19t-9 -18q-3 -9 5 -9h47q67 -1 99 -1q55 1 79 6q6 2 2 60q-2 32 -9 98l-3 33q0 10 -10 11q-4 0 -20 -5q-13 -4 -19 -5q-10 -2 -16 -1q-26 8 -61 5q-21 -1 -65 -10q-47 -8 -71 -10q-39 -3 -68 4l-5 107q-6 120 -10 194q-1 11 11 14
q9 4 26 4q11 0 26 -2t13 -2l5 26q4 29 4 50q-1 11 17 5q23 -10 19 -10l-16 -311l325 -14q-6 -61 -6 -114q0 -32 2 -92q2 -38 3 -59q1 -35 1 -70z" />
    <glyph glyph-name="six" unicode="6" horiz-adv-x="600" 
d="M605 -88l-11 280l-24 30l24 65v535l-59 5h-276l-45 -15h-40l-54 21l-111 -6v-210l21 -30l-21 -35v-640l231 5zM519 713l-8 -57q-6 -44 -9 -67q-2 -38 -2 -70h-95q3 20 3 46q-1 16 -2 45l-1 29q0 22 -12 27q-8 2 -29 0l-25 -2l-9 1q-49 0 -76 -3q-46 -4 -59 -18
q-8 -5 -11 -20q-1 -10 -3 -32l-2 -28q-9 -54 -14 -115q-5 -69 -5 -130l-3 -65q-3 -50 -2 -71q2 -32 15 -43l145 -1q49 0 64 38q9 24 9 88l1 54q-17 3 -28 6q-6 2 -14 5q-9 3 -16 4q-13 2 -39 2q-11 0 -23 -3q-7 0 -19 -5q-8 -3 -11 -4q-6 -1 -9 0q-2 6 -6 12q-2 5 -6 14
q-8 13 -10 19q-3 9 -3 14q0 20 28 27q18 4 52 4l41 2q88 2 123 -7q60 -15 55 -71l-14 -179q2 -28 3 -50q0 -29 -3 -50q-37 -10 -108 -9q-42 1 -130 7q-66 6 -93 6q-45 2 -65 -4v180q0 29 -4 55q-2 16 -7 42q-6 30 -7 45q-2 26 4 53v154q3 15 2 32q-1 10 -5 29q-5 24 -4 34
q3 16 21 21l196 4l155 5h74z" />
    <glyph glyph-name="seven" unicode="7" horiz-adv-x="594" 
d="M489 31h-17q-43 -2 -64 -1q-39 1 -39 11l-1 27q-2 47 -2 70q0 42 3 47l14 426q-23 -2 -44 -1q-13 0 -40 2t-44 3q-29 1 -61 1l-12 -60q-9 -42 -12 -61q-3 -34 -3 -69l-93 -5v259q53 11 84 15t91 6q21 1 46 2q16 1 44 3q35 2 51 3q28 1 54 1q40 0 49 -10q6 -7 1 -34
q-3 -13 -4 -21q-1 -13 -1 -24v-111l-3 -132l-2 -132v-36q1 -9 3 -25q1 -16 2 -24v-36l2 -26q3 -31 3 -45q1 -23 -5 -23zM594 -88l-10 280l-25 30l25 65v535l-59 5h-266l-45 -15h-40l-54 21l-111 -6v-210l21 -30l-21 -35v-640l231 5z" />
    <glyph glyph-name="eight" unicode="8" horiz-adv-x="640" 
d="M644 -88l-11 280l-24 30l24 65v535l-59 5h-355l-45 -15h-40l-54 21l-71 -6v-210l21 -30l-21 -35v-640l231 5zM570 162q0 -71 -21 -95q-25 -30 -104 -30h-221q-79 0 -113 14q-34 16 -36 50q-7 62 -5 99q1 27 11 96l3 25q3 23 22 43q12 11 37 29l21 14q9 8 15 14
q-13 7 -20 17q-5 6 -11 20q-7 16 -13 26q-10 16 -25 32l19 135q8 5 15 12q5 4 13 13q24 29 48 41q41 23 115 30l210 -56q0 -27 3 -49q2 -13 7 -33q4 -19 6 -30q3 -19 3 -42q0 -31 -10 -54q-7 -15 -23 -36q-9 -13 -13 -20q-6 -10 -8 -21l5 -2q17 -9 28 -19q18 -17 31 -49
q14 -33 16 -63q1 -20 -2 -55q-2 -17 -2 -26q-1 -16 -1 -30zM445 622l-205 9l-7 -7q-19 -26 -23 -40q-5 -19 -5 -63t23 -62q15 -10 60 -19l21 -4h125q0 23 2 47q2 15 5 41q5 32 6 49q2 25 -2 49zM440 126q-1 18 0 36q1 10 2 30q3 37 2 58q-1 34 -10 71q-4 13 -40 18
q-20 3 -64 3l-5 -1q-18 0 -33 -2q-9 -2 -26 -6q-14 -2 -20 -4q-12 -2 -22 -2l-50 -56l3 -18q0 -4 -1 -12q-1 -6 -2 -11v-19v-80z" />
    <glyph glyph-name="nine" unicode="9" horiz-adv-x="605" 
d="M543 681l-14 -275l-55 -345l-51 -5l-299 -19l-25 154l95 16l10 -81l195 20l35 186l-185 4h-116l-40 165l-10 161l220 49zM434 577l-120 19l-101 -10l-19 -80l14 -100l81 -10l115 10l14 60zM605 -88l-11 280l-24 30l24 65v535l-59 5h-285l-45 -15h-40l-55 21l-101 -6v-210
l21 -30l-21 -35v-640l231 5z" />
    <glyph glyph-name="colon" unicode=":" horiz-adv-x="550" 
d="M381 617l-9 -91l-111 -15l-75 31l10 80v59l96 10l49 -5zM376 118l-70 -40h-70l-55 100l30 80l81 10l64 -25l16 -65zM549 -88l-9 280l-26 30l26 65v535l-60 5h-200l-45 -15h-40l-56 21l-130 -6v-210l21 -30l-21 -35v-640l250 5z" />
    <glyph glyph-name="semicolon" unicode=";" horiz-adv-x="550" 
d="M380 603l-54 -80l-96 5l-64 45l35 94l59 36l90 -36zM379 210l-4 -80l-20 -80l-16 -35l-64 -10h-85l-6 50l70 45l21 70h-91l-5 116l40 35l125 -6l31 -29zM549 -88l-9 280l-26 30l26 65v535l-60 5h-240l-45 -15h-40l-56 21l-90 -6v-240l21 -30l-21 -35v-610l241 5z" />
    <glyph glyph-name="less" unicode="&#x3c;" horiz-adv-x="500" 
d="M446 104l-80 -101l-20 31l-105 94l-85 96l-79 114l14 61l135 130l130 144l90 -5l-45 -59l-100 -115l-105 -125l11 -40l125 -100zM492 -93l-5 295l-30 40l25 70v505l-60 5l-187 5l-45 -15h-40l-55 21l-90 -6v-210l20 -30l-20 -35v-640l230 5z" />
    <glyph glyph-name="equal" unicode="=" horiz-adv-x="844" 
d="M701 466l-79 -5l-142 5l-111 -5l-102 5l-65 -8l-46 8v108l39 5l92 -5l117 -5l188 5l58 11l51 -11v-108zM701 198l-79 -5l-142 5l-111 -5l-102 5l-65 -8l-46 8v108l39 5l92 -5l117 -5l188 5l58 11l51 -11v-108zM5 827v-210l20 -30l-20 -35v-640l230 5l605 -5l-9 280
l-26 30l26 65v535l-61 5h-435l-44 -15h-41l-54 21z" />
    <glyph glyph-name="greater" unicode="&#x3e;" horiz-adv-x="500" 
d="M419 417l-35 -90l-149 -191l-56 -99l-120 29l16 45l104 155l85 110l-90 65l-35 30l-5 50l-90 75l21 50l45 50l170 -145zM493 -88l-8 280l-26 30l26 65v535l-61 5h-194l-46 -15h-40l-55 21l-80 -6v-210l11 -39l-11 -26v-640l231 5z" />
    <glyph glyph-name="question" unicode="?" horiz-adv-x="972" 
d="M945 -88l-11 280l-24 30l24 65v535l-59 5h-215l-45 -15h-40l-56 21l-479 -6v-210l19 -30l-19 -35v-640l200 5zM700 702l-16 -290l-159 -65l19 -65l-4 -80l-121 6l5 114l16 65l125 65l10 185l-106 15l-94 -20v-145h-151l11 140l24 70l181 51l180 -16zM754 309l-30 -17
l1 75l-11 150l35 5l-11 -64l12 -70zM559 67l-29 -80l-111 -10l-54 50l40 80l90 16zM620 -6l-17 -13l-17 17l17 49l7 -35zM323 585l-28 26l-26 -11l-5 -12l-4 -7l32 -19z" />
    <glyph glyph-name="at" unicode="@" 
d="M874 140l-180 -109l-271 -16l-174 45l-85 75l-81 135l5 176l80 154l135 96l216 45l255 -75l90 -250l-61 -156l-164 -30l-51 -34l-304 29l9 195l260 -14l6 54l-40 45h-141l-80 5l31 71l160 30l179 -56l-14 -139l24 -135l66 5l30 29l35 105l-51 170l-134 61l-180 39
l-170 -74l-85 -151l-16 -130l91 -179l215 -66l175 15l149 75zM574 315l-15 46l-101 10l-69 -10l-6 -61l111 -14h75zM974 -88l-10 280l-24 30l24 65v535l-59 5h-245l-45 -15h-40l-56 21l-510 -6v-210l21 -30l-21 -35v-640l231 5z" />
    <glyph glyph-name="A" unicode="A" horiz-adv-x="754" 
d="M764 -88l-10 280l-24 30l24 65v535l-59 5h-155l-45 -15h-40l-55 21l-391 -6v-210l21 -30l-21 -35v-640l231 5zM134 543l-16 -12l-17 17l17 49l7 -35zM624 77l-103 13l10 163l-55 5l-112 -22l-110 -4l14 -59l-4 -101l-103 -5l5 64l3 119l5 210l14 149l22 58l129 -4l137 18
l103 -4l14 -26l8 -68l23 -110l-14 -166zM724 103l-28 -8l-1 38v47l-11 72l12 3l20 -92zM516 507l-8 81l-72 31l-109 -5l-54 -9l3 -63l-18 -79l-4 -96v-29l142 -5l99 15zM364 473l-24 -21l-25 37l-6 68l24 12l5 -66l5 -10z" />
    <glyph glyph-name="B" unicode="B" horiz-adv-x="648" 
d="M644 -88l-10 280l-24 30l24 65v535l-59 5h-295l-45 -15h-40l-56 21l-130 -6v-210l21 -30l-21 -35v-640l231 5zM569 433l-32 -21l-39 8l10 24l-5 14l31 18zM559 225l-18 -142l-117 -4l-316 4l14 270l-18 318l17 5l98 -12h130l79 -3l55 -10v-114l-14 -90l-71 -45l120 -40z
M625 157l-17 -32l-9 -42l-36 21l13 37zM375 573h-66l-104 14l-4 -87l30 -26h82l41 9zM464 196l-40 136l-111 53l-104 -13l19 -205l45 -16l183 -6zM292 338l-6 -46l1 -56l-29 19l3 50z" />
    <glyph glyph-name="C" unicode="C" horiz-adv-x="656" 
d="M655 -88l-11 280l-24 30l24 65v535l-60 5h-275l-45 -15h-40l-55 21l-160 -6v-210l21 -30l-21 -35v-640l231 5zM305 524l-24 -40l-22 -52l-18 29l23 45zM553 276l-6 -143l-62 -45l-262 -7q-23 9 -45 16q-12 5 -33 10q-22 6 -29 10q-9 6 -10 16q-3 29 -4 64v63v51
q0 30 -1 56q-1 43 -1 81q1 23 3 68l3 55l144 102l244 -12l59 -42l-6 -187l-97 5l-10 122l-232 -5q-6 -39 -10 -82q-2 -35 -2 -66l-1 -29q0 -31 1 -46q0 -24 4 -47l35 -109l215 -8l21 125zM433 199l-24 -17l2 74l-11 151l26 5l-10 -64l12 -70zM95 90l-8 -22l-40 38l-11 93
l24 12l5 -65l5 -11zM303 616l-28 25l-26 -11l-5 -12l-3 -7l30 -19z" />
    <glyph glyph-name="D" unicode="D" horiz-adv-x="691" 
d="M689 -88l-11 280l-24 30l24 65v535l-59 5h-299l-45 -15h-40l-56 21l-170 -6v-210l21 -30l-21 -35v-640l231 5zM171 748l-11 -32l-6 -43l-27 23l9 36zM99 690l-5 -29l-7 -36v-57l-12 -1l-6 73l2 47zM599 435l-25 -169l-73 -143l-146 -47l-214 3l-5 93l-3 249v205l57 45
l281 -23l84 -65zM501 412l-39 138l-88 22l-122 -4v-36l-3 -125l3 -177l-3 -63l172 -4l54 80zM343 206l-32 -24l-30 19l3 7l5 12l26 11z" />
    <glyph glyph-name="E" unicode="E" horiz-adv-x="610" 
d="M605 -88l-11 280l-24 30l24 65v535l-59 5h-205l-45 -15h-40l-55 21l-181 -6v-210l21 -30l-21 -35v-640l231 5zM542 656l-17 -154l-27 -2l16 63l-4 70l-10 52l15 19zM508 93h-202l-205 -5l-5 40l-3 165l3 170v174l19 27h160l181 14l20 -22l-8 -59l-57 -14l-185 -7
l-22 -153l17 -35l49 -5l22 23l9 31h118h81l8 -76l-162 -5h-66l-80 -9v-61l-5 -103l75 -10l149 -7l81 26zM281 273l-12 -31l-5 -43l-26 21l9 37z" />
    <glyph glyph-name="F" unicode="F" horiz-adv-x="576" 
d="M575 -88l-10 280l-25 30l25 65v535l-61 5h-214l-45 -15h-40l-55 21l-141 -6v-210l21 -30l-21 -35v-640l231 5zM534 568l-33 -22l-39 9l12 24l-6 14l31 18zM489 352l-201 -21l-67 -10l-5 -254l-106 5v98l-5 182l10 190v117h49h160l138 -5l-36 -67l-182 -4l-4 -54v-112
l154 8l90 -3zM321 135l-16 -152l-27 -3l16 62l-3 72l-10 52l14 18z" />
    <glyph glyph-name="G" unicode="G" horiz-adv-x="743" 
d="M745 -88l-10 280l-26 30l26 65v535l-61 5h-174l-45 -15h-40l-55 21l-351 -6v-210l21 -30l-21 -35v-640l231 5zM285 484l-17 -13l-17 17l13 54l39 -32zM644 323h-85l10 -93l12 -133l-57 -56l-90 12l10 98l-32 70l-202 -25l-97 43l3 269v129l108 31l255 14l90 -21l4 -73
l-4 -86l-72 -3l-23 89l-138 4l-126 -39v-234l68 -49h161l-14 67h-66l17 45h68l115 9h85v-68zM351 167l-12 -31l-6 -43l-25 23l8 36zM279 111l-4 -30l-7 -36v-57l-14 -1l-5 73l1 47z" />
    <glyph glyph-name="H" unicode="H" horiz-adv-x="673" 
d="M674 -88l-9 280l-7 18l7 77v535l-60 5h-155l-45 -15h-40l-56 21l-300 -6v-210l21 -30l-21 -35v-640l231 5zM258 723l-32 -21l-38 8l11 24l-5 14l30 18zM329 515l-8 -22l-40 38l-12 93l24 12l5 -65l5 -11zM570 71l-60 -5l-75 17l9 233l-176 -13l-4 72l126 13h58l5 75
l4 177l-4 32l101 -5v-346zM247 79l-131 -3l9 120l23 232l-9 176l-6 50h103l-5 -103l-3 -114l8 -104l5 -150zM636 276l-15 -153l-28 -2l17 62l-5 70l-10 52l15 19z" />
    <glyph glyph-name="I" unicode="I" horiz-adv-x="270" 
d="M184 74h-104l-15 343l9 152l6 93l71 5l33 -5l5 -79zM5 827v-210l20 -30l-20 -35v-640l230 5l35 -5l-10 280l-25 30l25 65v540h-59l-45 6l-46 -16l-39 -15l-26 31z" />
    <glyph glyph-name="J" unicode="J" horiz-adv-x="519" 
d="M286 678h112l-5 -161l5 -259v-160l-134 -31l-170 18l-23 116l10 52l97 -11l-4 -90l135 14l9 160l-42 45l15 200zM417 545l11 24l-5 14l31 18l35 -43l-32 -21zM249 431l4 -64l5 -12l26 -45l-9 -22l-40 39l-11 91zM9 827v-210l21 -30l-21 -35v-640l231 5l279 -5l-5 280
l-24 30l24 65v535l-59 5h-156l-45 -15h-40l-54 21z" />
    <glyph glyph-name="K" unicode="K" horiz-adv-x="695" 
d="M695 -88l-11 280l-24 30l24 65v535l-59 5h-265l-45 -15h-40l-56 21l-210 -6v-210l21 -30l-21 -35v-640l231 5zM599 366l-9 -23l-40 38l-11 93l25 12l5 -65l4 -10zM600 671l-75 -157l-40 -75l-57 -84l111 -166l52 -45l-44 -36l-36 -35l-71 75l-125 180l-70 -14l-10 -241
l-102 -9l-13 318l13 168v112l112 23l-14 -232v-67l99 31l70 106l63 135l57 9zM321 166l-16 -153l-27 -3l16 63l-3 71l-10 52l14 17z" />
    <glyph glyph-name="L" unicode="L" horiz-adv-x="540" 
d="M540 -88l-10 280l-26 30l26 65v535l-61 5h-160l-45 -15h-40l-55 21l-160 -6v-210l21 -30l-21 -35v-640l231 5zM310 672l-12 -32l-6 -42l-26 21l9 37zM417 631l-63 -138l-27 6l36 54l18 70l8 50l20 13zM490 78h-40h-140l-186 -9l-9 133v460l120 8l-9 -213l4 -130l-29 -29
l-5 -78l5 -53l29 -9l135 5l115 13zM82 167l-4 -31l-8 -35v-58l-15 -1l-6 75l2 46z" />
    <glyph glyph-name="M" unicode="M" horiz-adv-x="733" 
d="M734 -88l-10 280l-25 30l25 65v535l-60 5h-304l-45 -15h-40l-56 21l-210 -6v-210l21 -30l-21 -35v-640l231 5zM108 516l-65 -139l-27 6l37 55l18 69l8 51l20 13zM639 531l-31 -472l-84 14l30 408l-110 -134l4 -190l-112 -13l-8 217l-89 133l-15 -408l-39 -9h-89l35 374
l-8 176l-14 37l134 -8l130 -183l39 13l88 178l95 14zM286 72l-12 -31l-6 -43l-27 21l9 37zM396 367l-30 -4l-1 -47l6 -73l13 1v57l9 35z" />
    <glyph glyph-name="N" unicode="N" horiz-adv-x="710" 
d="M714 -88l-9 280l-26 30l26 65v535l-61 5h-305l-45 -15h-40l-54 21l-191 -6v-210l21 -30l-21 -35v-640l231 5zM599 560l-18 -198v-89l-3 -183h-87l-3 62l-40 143l-116 98l-63 69v-170l-4 -215l-130 -10v44l15 107l-6 403l15 58l128 -6l8 -108l73 -72l120 -158v141l-9 167
l35 23h75zM131 251l-63 -138l-27 6l36 54l18 69l8 50l20 14zM335 242l-3 -31l-8 -35v-57l-15 -1l-6 73l2 47zM219 617l-35 -16l-9 -37l27 -22l6 43z" />
    <glyph glyph-name="O" unicode="O" horiz-adv-x="715" 
d="M714 -88l-9 280l-26 30l26 65v535l-61 5h-114l-45 -15h-40l-56 21l-380 -6v-210l21 -30l-21 -35v-640l231 5zM625 484l-32 -252l-79 -155l-170 -29l-174 29l-57 141l-14 180l40 185l99 34l-14 58l142 17l187 -93zM135 59l-8 -22l-40 39l-4 68l26 12l5 -65l4 -10zM343 627
l-34 44l-30 -18l5 -14l-11 -23l38 -10zM508 434l-70 139l-125 10l-75 -60l-49 -116l13 -154l85 -97l124 -23l93 139zM259 412l-4 -31l-6 -35v-57l-14 -1l-5 73l1 47zM304 239l-16 -13l-17 17l17 49l7 -35z" />
    <glyph glyph-name="P" unicode="P" horiz-adv-x="614" 
d="M615 -88l-10 280l-25 30l25 65v535l-61 5h-125l-44 -15h-41l-54 21l-271 -6v-210l21 -30l-21 -35v-640l231 5zM525 414l-70 -81l-179 -17l14 67l93 -5l27 80l8 123l-187 16l5 -165l5 -139l13 -123l-8 -93l-103 -14l-22 58v170l-15 203l5 174h98l129 5l183 -9v-138z
M445 229l-45 -17l-17 17l45 53l7 -34zM105 88l-7 -21l-40 38l-5 68l26 13l4 -64l4 -11z" />
    <glyph glyph-name="Q" unicode="Q" horiz-adv-x="719" 
d="M714 -88l-5 360l-19 30l24 65l-9 455l-71 5h-184l-45 -15h-40l-56 21l-300 -6v-210l21 -30l-21 -35v-640l231 5zM656 167l-69 -107l-44 44l-44 45l-188 -45l-160 45l-40 116l-13 193l27 118l80 83l121 31h133l94 -76l52 -142l-9 -127l-9 -50l-16 -53zM513 340l-10 186
l-62 79l-111 9l-99 -35l-43 -111l3 -194l50 -85l142 -4l53 48l-102 36l22 63l112 -37zM491 414l-8 -22l-40 38l-4 69l24 12l5 -65l5 -11z" />
    <glyph glyph-name="R" unicode="R" horiz-adv-x="646" 
d="M644 -88l-10 290l-24 55l24 80v485l-59 5h-236l-45 -15h-40l-54 21l-191 -6v-210l21 -30l-21 -35v-640l231 5zM85 446l-20 -29l-17 -39l-18 28l17 34zM588 147l-11 -45l-86 -39l-22 58l-91 177l-97 -30l-63 -41l-5 -155l-112 -5v76l15 253v201l-10 71l175 5l141 -12
l98 -60l41 -89l-45 -124l-58 -76zM297 93l-63 -131l-32 4l39 52l12 65l2 45l24 16zM463 553l-107 48l-148 -4l18 -54l-13 -172l10 -50l232 102z" />
    <glyph glyph-name="S" unicode="S" horiz-adv-x="604" 
d="M605 -88l-11 280l-24 30l24 65v535l-59 5h-205l-45 -15h-40l-55 21l-181 -6v-210l21 -30l-21 -35v-640l231 5zM116 691l-21 -28l-16 -39l-20 27l19 34zM100 367l-7 -22l-40 38l-5 69l26 11l5 -64l4 -11zM525 353l-23 -260l-187 -12l-187 -4v96l238 -12l22 57l-5 99
l-125 26l-148 54l-9 179l99 102l294 -10l8 -115l-88 9l-206 9l5 -134l165 -31zM579 138l-65 -131l-31 4l38 52l14 64l2 46l22 16z" />
    <glyph glyph-name="T" unicode="T" horiz-adv-x="640" 
d="M644 -88l-10 280l-24 30l24 65v535l-59 5h-226l-45 -15h-40l-55 21l-200 -6v-210l21 -30l-21 -35v-640l231 5zM510 701l-6 -12l-47 41l-28 28l15 24l14 -21l17 -25zM456 427l-8 -21l-40 37l-4 69l24 12l6 -66l4 -10zM554 645l-23 -90l-107 12l-52 -3l8 -231l-4 -166
l-4 -84l-129 -5l26 94l18 245l-4 137l-157 -9l-13 100l191 27zM471 313l-23 -32l-2 -4l-8 -1l-32 5l17 11l11 21h37zM220 131l-19 -28l-17 -39l-19 27l18 34z" />
    <glyph glyph-name="U" unicode="U" horiz-adv-x="669" 
d="M674 -88l-9 280l-26 30l26 65v535l-60 5h-266l-45 -15h-40l-54 21l-191 -6v-210l9 -30l-9 -35v-640l231 5zM86 527l-5 -22l-40 37l-4 70l24 12l5 -65l5 -11zM578 458l-9 -251l-15 -108l-205 -26l-205 30l-21 104l-5 186l-13 143v88l119 -8v-223l-4 -142l19 -71l218 4
l32 248v192l-24 44l108 5zM453 343l-64 -131l-33 4l39 52l14 65l2 45l23 16zM340 316l-19 -28l-18 -39l-18 27l18 34z" />
    <glyph glyph-name="V" unicode="V" horiz-adv-x="696" 
d="M695 -83l-11 275l-24 30l24 65v535l-59 5h-305l-45 -15h-40l-56 21l-170 -6v-210l21 -30l-21 -35v-635l231 5zM305 567l-8 -22l-39 38l-5 69l26 12l5 -65l4 -11zM601 642l-62 -259l-122 -306l-84 -9l-98 44l-62 156l-62 329l94 30l13 -88l17 -93l14 -148l66 -114l40 39
l55 152l35 236l58 57z" />
    <glyph glyph-name="W" unicode="W" horiz-adv-x="760" 
d="M696 623l-35 -319l-13 -181l13 -36l-135 9l-128 182l-54 -13l-89 -178l-92 -14l-45 142l-35 396l116 17l12 -361l100 211l39 112l84 3l30 -155l57 -180l75 238l5 132zM764 -88l-10 280l-24 30l24 65v535l-59 5h-375l-45 -15h-40l-56 21l-170 -6v-210l21 -30l-21 -35v-640
l231 5z" />
    <glyph glyph-name="X" unicode="X" horiz-adv-x="667" 
d="M586 133l-101 -61l-27 50l-58 120l-54 56l-120 -221l-40 -23l-76 49l23 54l57 85l68 106l-50 63l-84 101l-36 92l95 32l47 -93l90 -92l45 48l61 114l32 72l107 -72l-76 -127l-80 -98l93 -67l49 -113zM665 -88l-10 280l-26 30l26 65v535l-61 5h-245l-45 -15h-40l-55 21
l-200 -6v-210l21 -30l-21 -35v-640l231 5z" />
    <glyph glyph-name="Y" unicode="Y" horiz-adv-x="716" 
d="M714 -88l-9 280l-26 30l26 65v535l-61 5h-305l-45 -15h-40l-54 21l-191 -6v-210l21 -30l-21 -35v-640l231 5zM625 646l-36 -75l-98 -113l-80 -87l-5 -64l-7 -65l12 -44l-8 -124l-134 -14l18 63l8 234l-81 99l-92 101l72 85h20l86 -106l84 -54l80 99l54 101zM505 267
l-7 -21l-40 37l-4 69l25 12l5 -66l4 -10zM555 126l-19 -28l-17 -39l-39 39l18 34z" />
    <glyph glyph-name="Z" unicode="Z" horiz-adv-x="608" 
d="M129 651l232 10l138 -24l9 -71l-170 -263l-102 -124l259 9l18 -50v-56l-282 3l-106 -18l4 134l99 137l205 215l-72 23l-177 -5l-63 10zM9 827v-210l21 -30l-21 -35v-640l231 5l375 -5l-10 280l-25 30l25 65v535l-61 5h-235l-45 -15h-40l-55 21z" />
    <glyph glyph-name="bracketleft" unicode="[" horiz-adv-x="500" 
d="M451 682l-45 -5l-106 10l-9 -255l-16 -175l11 -215l134 15l-4 -110h-226l-5 75l5 120l-10 191l5 139v276l56 34h144l66 10v-110zM499 -88l-9 320l-26 30l26 65v495l-61 5h-80l-45 -15h-40l-55 21l-200 -6v-240l21 -30l-21 -35v-610l340 5z" />
    <glyph glyph-name="backslash" unicode="\" horiz-adv-x="500" 
d="M504 -88l-9 320l-26 30l26 65v495l-61 5h-165l-45 -15h-40l-55 21l-120 -6v-240l21 -30l-21 -35v-610l231 5zM458 8l-92 -61l-20 65l-82 199l-111 206l-48 155l-10 110l-40 60l85 35l35 15l10 -55l35 -150l111 -245l91 -215z" />
    <glyph glyph-name="bracketright" unicode="]" horiz-adv-x="500" 
d="M495 -88l-5 320l-26 30l26 65v495l-165 5h-45l-45 -15h-40l-56 21l-130 -6v-210l21 -30l-21 -35v-640l231 5zM328 448l-5 -170v-286l-55 -35h-145l-65 -11v110l45 5l105 -10l10 297l15 175l-10 165l-136 -15l6 110h225l5 -75l-5 -120zM190 97l-7 -21l-40 37l-4 69l25 12
l4 -66l4 -10z" />
    <glyph glyph-name="asciicircum" unicode="^" horiz-adv-x="454" 
d="M178 576l-18 -52l-106 5l33 56l19 47l22 51l20 35l6 39l20 45l21 -5l31 6l26 -1l34 -10l29 -18v-61l24 -47l50 -90l5 -62l-91 5l-16 57l-29 31l-18 54l-14 31l-12 -19l-9 -25l-14 -37zM9 827v-240l21 -30l-21 -35v-610l231 5l215 -5l-10 320l-26 30l26 65v495l-66 5
l-45 -15h-40l-54 21z" />
    <glyph glyph-name="underscore" unicode="_" 
d="M961 39v-97l-15 6l-16 -10l-127 -6l-102 10l-62 -7l-78 7l-297 -12l-69 12l-25 -6h-90l-17 6h-22h-20v97l20 -10l63 13h116l225 6l284 -11l171 2l31 -2zM9 827v-240l21 -30l-21 -35v-610l441 5l545 -5l-10 320l-26 30l26 65v495l-396 5l-45 -15h-40l-54 21z" />
    <glyph glyph-name="grave" unicode="`" horiz-adv-x="250" 
d="M0 0z" />
    <glyph glyph-name="a" unicode="a" horiz-adv-x="578" 
d="M63 505l203 56l180 -30l34 -57l6 -137l-6 -119l58 -25l-37 -132l-86 56l-82 -40l-153 6l-92 29l-46 175l189 60h123l5 97l-185 5l-91 -10zM346 276l-147 -26l-10 -37l56 -46l111 17l47 40l-15 68zM9 827v-210l21 -30l-21 -35v-640l231 5l345 -5l-9 280l-26 30l26 65v535
l-61 5h-246l-45 -15h-40l-55 21z" />
    <glyph glyph-name="b" unicode="b" horiz-adv-x="571" 
d="M569 -88l-10 280l-25 30l25 65v535l-60 5h-190l-45 -15h-40l-55 21l-160 -6v-210l21 -30l-21 -35v-640l231 5zM265 537l-7 -22l-40 38l-5 70l26 10l5 -64l4 -11zM515 437l-20 -260l-97 -72l-228 16v-40l-91 -19l-5 71v118l-10 117v199l15 106l106 6v-91l-5 -90l131 -10z
M170 441l-37 -6l-18 -34l18 -27l17 39zM449 314l-45 67h-224v-179l203 -20l61 76zM381 258l-23 -32l-3 -4l-7 -2l-32 5l17 13l11 20h37z" />
    <glyph glyph-name="c" unicode="c" horiz-adv-x="535" 
d="M542 -88l-11 280l-18 21l18 74v535l-60 5h-181l-45 -15h-40l-55 21l-141 -6v-210l21 -30l-21 -35v-640l231 5zM499 233l-46 -125l-128 -51l-232 31l-44 84l-18 124l34 162l91 62h129l161 -15l16 -16l17 -137l-118 -10l-21 83l-61 33l-111 -12l-35 -124l40 -170l172 -10
l46 106zM255 242l-20 -29l-17 -40l-18 29l18 34zM446 58l-24 -32l-2 -4l-7 -2l-32 6l18 12l11 20h36z" />
    <glyph glyph-name="d" unicode="d" horiz-adv-x="571" 
d="M499 428l-26 -240l21 -123l-113 12l-231 -12l-75 31l-11 183l16 122l148 41l153 -10l5 61l-20 190l128 15zM386 263v77l-216 -31l11 -129l194 5zM570 -88l-11 280l-24 30l24 65v535l-59 5h-201l-45 -15h-40l-54 21l-151 -6v-210l21 -30l-21 -35v-640l231 5z" />
    <glyph glyph-name="e" unicode="e" horiz-adv-x="546" 
d="M486 167l-69 -108l-226 6l-129 57l-20 186l22 150l110 44l159 12l124 -28l23 -80l-6 -130l-309 -14l3 -105l193 -14l69 63zM399 409l-102 34l-123 -23l-6 -88h204zM544 -88l-9 280l-26 30l26 65v535l-61 5h-215l-45 -15h-40l-54 21l-120 -6v-210l20 -30l-20 -35v-640
l240 5z" />
    <glyph glyph-name="f" unicode="f" horiz-adv-x="370" 
d="M375 -88l-10 280l-26 30l26 65v535l-61 5h-64l-45 -15h-40l-56 21l-99 -6v-210l20 -30l-20 -35v-640l240 5zM135 756l-19 -28l-17 -39l-19 27l17 34zM342 409l-135 -20l5 -72l12 -155l-4 -97l-46 -5l-86 11l21 132v171l-77 -11v97l67 5l-22 197l103 20l147 -5l10 -84
l-156 5l5 -112h151zM327 258l-25 -32l-2 -4l-8 -2l-31 5l18 13l11 20h37zM307 118l-63 -131l-33 5l39 50l14 66l1 46l24 14z" />
    <glyph glyph-name="g" unicode="g" horiz-adv-x="557" 
d="M554 -88l-10 320l-25 30l25 65v495l-59 5h-155l-45 -15h-40l-55 21l-181 -6v-210l21 -30l-21 -35v-640l231 5zM416 652l-8 -22l-40 37l-4 70l25 12l5 -65l4 -11zM490 350l-10 -164l-6 -173l-86 -61l-175 -5l-142 30l-6 131l94 15l-5 -86l105 -6l86 26l5 97l-15 56h-127
l-107 5l-19 61l-27 136l10 101l204 46l170 -11l51 -35v-163zM394 423l-25 57l-184 -5l-20 -61l14 -97h100l85 16zM406 303h-36l-11 -20l14 -10z" />
    <glyph glyph-name="h" unicode="h" horiz-adv-x="530" 
d="M535 -88l-10 280l-25 30l25 65v535l-61 5h-224l-45 -15h-40l-56 21l-90 -6v-210l21 -30l-21 -35v-640l231 5zM250 656l-20 -29l-17 -39l-18 29l17 34zM475 327l-5 -260l-129 16l20 234l-51 46l-110 -10l-27 -194v-96l-120 5l6 208l5 245l11 165h90l9 -93l-9 -77l4 -67
l174 22l38 -6l75 -31zM326 260l-6 -11l-49 42l-26 28l13 23l15 -21l18 -26z" />
    <glyph glyph-name="i" unicode="i" horiz-adv-x="230" 
d="M180 702l-11 -109l-101 -5l-5 87zM174 492l-5 -307l-9 -108l-92 -15l-10 92l10 158l11 185zM240 -83l-10 81l-6 119l-15 20l15 80l6 616h-101l-24 -16l-30 -10l-31 26l-35 -6v-210l21 -30l-21 -35v-640z" />
    <glyph glyph-name="j" unicode="j" horiz-adv-x="400" 
d="M307 704l-51 -77l-91 11l-5 77l87 31zM302 -60l-88 11l-152 -5v65l-15 143h90v-112h77l-24 224l5 185l-11 81l41 5l72 -5l-5 -175v-163zM389 -88l-11 320l-18 24l18 71v497l-128 5h-44l-45 -15h-40l-56 19l-50 -4v-212l21 -30l-21 -35v-640l231 5z" />
    <glyph glyph-name="k" unicode="k" horiz-adv-x="546" 
d="M500 146l-83 -61l-51 51l-74 52l-120 88l6 -73v-135h-118l11 65l-6 145l11 249v166l117 -5l-15 -162v-134l51 5l148 118l103 -54l-52 -50l-170 -101l57 -24l89 -101zM544 -88l-9 280l-26 30l26 65v535l-61 5h-265l-44 -15h-40l-55 21l-61 -6v-210l21 -30l-21 -35v-640
l231 5z" />
    <glyph glyph-name="l" unicode="l" horiz-adv-x="250" 
d="M181 67h-98l10 19l-12 41l2 142l-12 78l7 76l3 217l6 32l-4 24l67 2l31 -2l10 -59l-10 -84l-13 -22l13 -74l-3 -143l13 -80v-62v-45l-13 -35zM9 827v-210l21 -30l-21 -35v-640l241 5v250l-31 35l31 35l-5 596l-101 -6l-24 -12l-40 -5l-31 23z" />
    <glyph glyph-name="m" unicode="m" horiz-adv-x="774" 
d="M775 -88l-11 280l-24 30l24 65v535l-59 5h-295l-45 -15h-40l-56 21l-260 -6v-210l21 -30l-21 -35v-640l231 5zM531 527l-8 -22l-40 37l-4 70l24 12l5 -65l5 -11zM676 573l-23 -31l-3 -5l-7 -1l-32 5l17 12l11 20h37zM710 324l-26 -248l-40 6h-71l15 138l-15 175l-87 11
l-11 -124l-5 -191l-60 -5l-67 -10l31 295l-25 46l-102 4l-16 -83v-171l-21 -102l-96 6l20 180l5 175l-81 -20l-5 101l143 21l137 -36l26 41l106 -5l32 -51h56l20 41l111 -6zM305 122l-19 -29l-17 -39l-19 28l18 34z" />
    <glyph glyph-name="n" unicode="n" horiz-adv-x="530" 
d="M535 -88l-10 280l-25 30l25 65v535l-61 5h-195l-45 -15h-40l-55 21l-120 -6v-210l21 -30l-21 -35v-640l231 5zM269 392l-24 -31l-2 -5l-8 -2l-39 7l17 12l11 20zM473 71h-96v151l-26 203h-175l-5 -198v-162l-65 6l-56 -6l5 83l10 122l-20 203l56 56l55 -21l88 16l187 -5
l42 -169v-192v-87z" />
    <glyph glyph-name="o" unicode="o" horiz-adv-x="582" 
d="M579 -88l-10 280l-26 30l26 65v535l-61 5h-218l-45 -15h-40l-55 21l-141 -6v-210l21 -30l-21 -35v-640l231 5zM520 297l-44 -191l-142 -67l-175 37l-81 86l-19 191l17 93l117 46l15 56l155 -6l133 -72zM77 132l-8 -21l-40 37l-4 69l24 12l4 -78zM409 337l-20 77l-120 26
l-120 -72v-156l97 -66l129 31zM396 148h-36l-11 -21l14 -16l8 1zM293 409l-19 -28l-18 -39l-18 27l17 34z" />
    <glyph glyph-name="p" unicode="p" horiz-adv-x="569" 
d="M575 -88l-10 280l-25 30l25 65v535l-61 5h-205l-45 -15h-40l-54 21l-151 -6v-210l21 -30l-21 -35v-640l231 5zM519 446l-11 -170l-133 -52l-173 15l-11 -132l5 -154l-120 -15v88l6 111l4 92l-10 188l-5 179l109 15l22 -46l112 17l159 -11zM268 181l-20 -28l-18 -39
l-19 27l19 34zM306 -24l-8 -22l-40 38l-4 69l26 12l5 -65l4 -10zM413 369l-5 82l-76 55l-121 -14v-41l-4 -128l149 -5z" />
    <glyph glyph-name="q" unicode="q" horiz-adv-x="569" 
d="M504 372l-9 -280l-27 -153l-112 21l20 71l12 167h-107l-148 -5l-73 60l-10 250l61 47l265 -7l-4 58l62 5l70 5v-239zM398 407l-77 61l-168 -10l9 -166l174 -14zM576 -88l-11 320l-24 30l24 65v495l-60 5h-215l-45 -15h-40l-55 21l-141 -6v-200l21 -30l-26 -45l5 -640
l231 5z" />
    <glyph glyph-name="r" unicode="r" horiz-adv-x="380" 
d="M384 -88l-9 280l-26 30l26 65v535l-60 5h-125l-46 -15h-39l-56 21l-40 -6v-210l21 -30l-21 -35v-640l231 5zM198 623l-25 -33l-2 -4l-7 -3l-31 5l17 14l11 21h37zM360 417l-184 -72l-25 -183v-98h-109l9 45l8 101l-14 178l-4 139l103 -5v-78l69 21l101 51l41 -36z
M243 232l-8 -22l-40 38l-5 69l25 12l5 -65l4 -12z" />
    <glyph glyph-name="s" unicode="s" horiz-adv-x="491" 
d="M428 452l-27 -74l-217 58l-11 -88l253 -77l-20 -146l-109 -72l-132 12l-105 37l-18 54l22 38l120 -51l111 29v58l-231 57l-11 98l34 99l148 39zM485 -88l-11 280l-24 30l24 65v535l-59 5h-165l-45 -15h-40l-55 21l-101 -6v-210l21 -30l-21 -35v-640l231 5z" />
    <glyph glyph-name="t" unicode="t" horiz-adv-x="360" 
d="M307 351h-112l7 -69v-114h109v-80l-46 -31l-160 15l-16 72l16 78l2 120h-67v101h62l5 58l3 49l81 -7v-51l7 -54l104 10zM367 -88l-10 280l-25 30l25 65v535l-60 5h-106l-45 -15h-40l-55 21l-40 -6l-14 -195l24 -45l-10 -35v-640l230 5z" />
    <glyph glyph-name="u" unicode="u" horiz-adv-x="554" 
d="M554 -88l-10 280l-25 30l25 65v535l-59 5h-216l-45 -15h-40l-55 21l-120 -6v-210l21 -30l-21 -35v-640l231 5zM230 308l-7 -21l-40 37l-5 69l26 13l4 -66l4 -11zM491 118l-57 -56l-51 21l-120 -16l-158 6l-52 169l11 190v87h92v-152l24 -203h183l5 197v168l60 -5l57 5
l-5 -87l-11 -121zM354 226l-34 -38l-31 5l16 14l11 19h38zM111 41l-6 -12l-56 5l-18 65l13 24l15 -22l22 -18z" />
    <glyph glyph-name="v" unicode="v" horiz-adv-x="611" 
d="M608 -88l-10 279l-25 30l25 66v534l-60 6h-308l-46 -15h-40l-55 21l-80 -6v-210l21 -30l-21 -35v-640l231 5zM247 376l-8 -22l-40 38l-4 69l24 12l5 -65l5 -11zM521 402l-138 -340l-154 5l-35 87l-83 138l-58 154l81 45l33 -90l69 -135l55 -77l58 26l45 182l6 122h116z
M160 184l-6 -11l-56 9l-19 61l14 23l13 -20l19 -28zM501 173l-23 -31l-3 -4l-7 -2l-32 5l18 13l10 19h37z" />
    <glyph glyph-name="w" unicode="w" horiz-adv-x="760" 
d="M765 -88l-10 280l-25 30l25 65v539l-59 5h-376l-45 -16h-40l-56 20l-170 -4v-214l21 -30l-21 -35v-640l231 5zM565 458l-23 -32l-2 -4l-9 -2l-31 5l18 13l11 20h36zM259 392l-6 -11l-51 13l-24 58l15 22l14 -21l17 -26zM709 527l-4 -104l-27 -95l-32 -102l14 -128
l-92 -36l-24 41l-86 72l-57 67l-74 -71l-52 -48l-28 -58l-101 20l-6 73l-24 139l-74 173l72 51l30 -51l59 -119l46 -102l41 27l45 64l20 103l73 -20l75 -123l41 46l43 82l11 94zM568 281l-38 -5l-19 -34l20 -29l16 39z" />
    <glyph glyph-name="x" unicode="x" horiz-adv-x="578" 
d="M174 531l69 -127l40 -31l158 168l61 -78l-127 -139l96 -128l42 -104l-83 -30l-86 108l-47 53l-90 -111l-77 -51l-71 56l71 91l74 60l-69 115l-62 92zM9 831v-214l21 -30l-21 -35v-640l231 5l344 -5l-9 280l-26 30l26 65v539l-61 5h-205l-45 -16h-40l-55 20z" />
    <glyph glyph-name="y" unicode="y" horiz-adv-x="576" 
d="M525 598l-16 -117l-60 -199l-146 -213l-96 -123l-73 36l10 44l79 112l63 98l-102 86l-55 79l-85 132l46 30l68 16l66 -123l113 -103l52 118l25 142zM575 -88l-10 320l-25 30l25 65v495l-61 5h-224l-45 -15h-40l-56 21l-130 -6v-170l21 -30l-21 -35v-680l231 5z" />
    <glyph glyph-name="z" unicode="z" horiz-adv-x="512" 
d="M74 524l320 -10l36 -11l27 -118l-169 -154l-86 -79h255v-90h-236h-137l-36 89l140 133l146 107l-25 44l-153 -12h-103zM9 827v-210l21 -30l-21 -35v-640l231 5l274 -5l-10 280l-24 30l24 65v535l-59 5h-186l-45 -15h-40l-54 21z" />
    <glyph glyph-name="braceleft" unicode="{" horiz-adv-x="500" 
d="M500 -78l-6 270l-26 30l26 65l-4 535l-61 5h-85l-45 -15h-40l-54 21l-196 -6v-240l21 -30l-21 -35v-600l316 -10zM426 7l-60 -65l-140 50v105l5 192l-20 54l-44 16l-66 -21v116l110 4l15 121l-5 143l10 65h181l5 -70l-96 -15l-10 -65l-5 -179l-90 -49l90 -40l5 -95
l-15 -222zM375 133l-20 -28l-17 -39l-18 27l17 34zM458 86l-24 -32l-10 -6l-30 5l17 13l10 20h37z" />
    <glyph glyph-name="bar" unicode="|" horiz-adv-x="500" 
d="M290 -63h-100l-11 49l4 111l22 50l-20 24l4 133l-4 113l10 114l-10 165l20 52l-15 39h100l7 -67v-157l6 -32l-6 -60l-4 -154l13 -60l3 -70l-9 -57l9 -127l-16 -30zM9 827v-240l21 -30l-21 -35v-610l330 5l157 -5l-11 320l-25 30l25 65v495l-74 5l-157 -15h-40l-54 21z
" />
    <glyph glyph-name="braceright" unicode="}" horiz-adv-x="500" 
d="M498 -83l-4 275l-26 30l26 65v535l-60 5h-215l-45 -15h-40l-54 21l-71 -6v-210l21 -30l-21 -35v-635h226h263zM388 316l-110 -5l-15 -109l5 -204l-20 -61l-170 -5l-5 70l94 15l11 66l5 228l90 50l-90 40l-5 96l15 175l-130 45l60 85l140 -70v-105l-5 -146l20 -55l45 -14
l65 19v-115z" />
    <glyph glyph-name="asciitilde" unicode="~" 
d="M844 465q-4 -6 -11 -13q-6 -5 -19 -15q-14 -10 -21 -16q-12 -9 -22 -20q-15 -3 -29 -10q-9 -4 -26 -14q-14 -8 -22 -11q-12 -6 -21 -7q-25 -7 -40 -3q-8 2 -20 12l-9 6q-5 2 -10 3l-38 12q-14 4 -21 7l-21 7l-23 10l-17 10q-14 10 -22 14q-14 7 -26 5q-26 12 -51 18
q-27 7 -42 5q-27 -2 -41 -10q-10 -5 -24 -20q-11 -12 -18 -18q-12 -9 -27 -19q-18 -15 -31 -13q-8 1 -20 12l-7 7q-5 3 -9 4q-6 10 -7 20q-1 11 6 20q23 26 38 40q25 21 53 36q6 18 28 25q13 4 39 5h13q21 3 47 -3q19 -4 46 -13q12 -13 29 -21q10 -4 31 -8q10 -2 15 -4
q7 -2 14 -5q14 -6 32 -14q22 -10 43 -19q12 -16 38 -20q13 -2 39 1h7q8 9 22 16l26 13q22 11 33 17q17 9 28 21q7 6 16 6q6 0 18 -3q8 -2 12 -2q7 -1 12 -1q15 -8 17 -21q2 -12 -7 -29zM974 -88l-10 280l-24 30l24 65v535l-59 5h-245l-45 -15h-40l-56 21l-510 -6v-240
l21 -30l-21 -35v-610l231 5z" />
    <glyph glyph-name="uni007F" horiz-adv-x="500" 
d="M392 46h-283v625h283v-625zM63 718v-719h375v719h-375z" />
    <glyph glyph-name="exclamdown" unicode="&#xa1;" 
d="M545 651v135h-133v-135h133zM537 -58v354l-30 249h-57l-29 -249v-354h116z" />
    <glyph glyph-name="currency" unicode="&#xa4;" 
d="M844 47l-117 118q31 42 48 89q17 50 17 104q0 55 -18 105q-18 49 -49 90l119 117l-53 54l-120 -117q-41 32 -89 50q-51 16 -105 16q-56 0 -104 -16q-49 -17 -88 -49l-118 116l-54 -54l116 -117q-33 -40 -51 -90q-17 -50 -17 -105q0 -54 17 -105q17 -48 50 -91l-115 -115
l54 -54l115 116q41 -32 90 -50q49 -17 105 -17q54 0 105 18q49 18 90 50l119 -117zM716 358q0 -99 -70 -170q-70 -70 -169 -70q-100 0 -170 70t-70 170t70 170q69 69 170 69q99 0 169 -69q70 -70 70 -170z" />
    <glyph glyph-name="section" unicode="&#xa7;" 
d="M613 270q19 34 5 81q-11 35 -36 69q-15 19 -37 38q-13 12 -41 33q-53 42 -73 66q-33 42 -33 95q0 37 19 56q17 17 42 18q24 2 41 -8t13 -24q-6 -14 -2 -29q5 -15 16 -25q12 -11 25 -10q15 1 30 15q12 14 9 33q-2 20 -18 38q-18 21 -46 33q-31 12 -69 12q-57 0 -91 -33
q-36 -35 -37 -101q-3 -48 18 -86q16 -29 47 -56q-17 6 -38 -4q-24 -11 -36 -33q-21 -34 -10 -76q10 -36 41 -75q14 -16 34 -35q14 -12 40 -32q54 -42 74 -68q35 -42 35 -97q0 -35 -21 -55q-16 -16 -43 -18q-24 -1 -41 8q-16 11 -11 24q5 15 1 29q-3 15 -15 25q-12 9 -26 9
q-16 -1 -30 -15q-14 -13 -11 -32q3 -20 20 -39q18 -19 46 -31q32 -13 70 -13q58 0 92 33q37 36 37 100q0 53 -20 88q-12 24 -45 55q17 -3 37 5q24 10 38 32zM521 382q34 -39 35 -77q0 -42 -49 -40q-18 3 -43 21q-26 18 -53 49q-34 39 -36 76q-3 41 42 41q18 0 42 -16
q28 -17 62 -54z" />
    <glyph glyph-name="dieresis" unicode="&#xa8;" 
d="M951 163v43l-23 12l6 115v411l-15 18l19 42h-167l-17 -9l-64 9h-373l-106 10l-6 -19l-191 7l11 -285l-20 -15l9 -90l4 -199l19 -34l-19 -54l-2 -196h271l55 23l39 -7v-16h553v163zM794 685v-10q1 -11 -1 -16q-1 -9 -8 -14l-11 -11l-8 -8l-8 -6q-8 -1 -12 -4q-3 -2 -6 -6
q-2 -4 -4 -5q-3 -1 -8 -1q-12 0 -25 3q-15 3 -25 7q-4 3 -5 5l-3 6l-4 10q-5 7 -16 16q-5 9 -7 17t-2 17q0 4 1 7q0 3 2 7q3 5 4 9q2 5 2 12q1 3 4 5q1 2 5 4q5 4 7 7q3 5 6 11q9 7 22 11q11 3 24 3l19 -3l21 -6l21 -11l2 -13q13 -11 16 -19q2 -3 -1 -12zM315 685v-10
q1 -11 0 -16q-2 -9 -10 -14l-9 -9q-5 -6 -7 -9q-5 -3 -9 -7q-9 -1 -14 -4l-6 -6q-2 -4 -4 -5q-3 -1 -7 -1q-12 0 -26 3q-15 3 -23 7q-4 3 -6 5q-1 2 -2 6q-3 6 -6 10q-5 8 -16 16q-4 10 -6 17q-2 9 -2 17q0 4 1 7t3 7q2 5 3 9q2 5 2 12q1 3 4 6q1 1 5 4q5 3 7 6q4 5 6 11
q10 7 21 11q11 3 25 3l19 -3l22 -6l19 -11l3 -13q14 -10 16 -18q2 -4 -1 -12q-1 -4 -2 -6v-7z" />
    <glyph glyph-name="ordfeminine" unicode="&#xaa;" 
d="M267 59v-26h468v26h-468zM719 196l-10 10q-13 -13 -25 -19q-10 -3 -21 -3q-12 0 -16 15q-3 14 -3 38v237q0 64 -41 99q-38 35 -103 35q-78 0 -132 -29q-53 -29 -53 -67q0 -20 9 -32q10 -11 30 -11q17 0 28 13q8 9 16 29q14 39 36 56q24 17 61 17q43 0 66 -28
q23 -25 23 -72v-49q-135 -24 -211 -72q-74 -48 -74 -108q0 -45 32 -75q36 -33 95 -33q47 0 88 19q35 17 70 49q0 -30 9 -47q14 -21 46 -21q26 0 46 14q14 11 34 35zM584 407v-162q-33 -31 -64 -44q-31 -14 -74 -14q-36 0 -59 21q-22 20 -22 49q0 57 69 100q62 38 150 50z
" />
    <glyph glyph-name="uni00AD" unicode="&#xad;" 
d="M951 163v43l-23 12l6 115v411l-15 18l19 42h-167l-17 -9l-64 9h-373l-106 10l-6 -19l-191 7l11 -285l-20 -15l9 -90l4 -199l19 -34l-19 -54l-2 -196h271l55 23l39 -7v-16h553v163zM752 513l-51 -13l-79 13l-83 -8l-33 8l-93 5l-74 -10l-72 10l-62 -5v73l59 3l136 4l76 -6
l78 2l100 -11l34 -13l64 21v-73z" />
    <glyph glyph-name="registered" unicode="&#xae;" 
d="M0 0z" />
    <glyph glyph-name="degree" unicode="&#xb0;" 
d="M586 704q0 47 -34 82q-34 33 -81 33q-48 0 -82 -33q-33 -35 -33 -82t33 -81q34 -35 82 -35q47 0 81 35q34 34 34 81zM538 704q0 -28 -20 -47q-19 -21 -47 -21t-48 21q-19 19 -19 47t19 47q20 19 48 19t47 -19q20 -18 20 -47z" />
    <glyph glyph-name="plusminus" unicode="&#xb1;" 
d="M771 368v79h-250v222h-85v-222h-250v-79h250v-222h85v222h250zM771 4v79h-585v-79h585z" />
    <glyph glyph-name="uni00B2" unicode="&#xb2;" 
d="M105 408h245l29 107l-16 6q-14 -37 -29 -52q-14 -16 -38 -16h-152q17 30 50 60q20 20 63 51q55 42 75 63q34 37 34 76q0 53 -40 83q-38 29 -97 29q-51 0 -90 -32q-36 -32 -35 -70q1 -19 13 -30q10 -10 25 -9t25 11q11 11 11 26q0 8 -1 14q-1 3 -4 8q-4 5 -5 10q-1 6 3 17
q8 19 30 27q21 9 44 4q25 -5 40 -25q18 -21 18 -58q0 -40 -26 -74q-16 -21 -59 -61q-40 -36 -60 -58q-33 -36 -53 -78v-29z" />
    <glyph glyph-name="uni00B3" unicode="&#xb3;" 
d="M191 636v-28q67 2 97 -12q41 -19 41 -72q0 -54 -28 -79q-23 -21 -65 -21q-32 0 -42 22q-5 12 -5 34l1 3q0 21 -12 31q-10 10 -24 10q-15 -1 -26 -12q-10 -10 -10 -30q0 -39 37 -60q35 -19 84 -19q66 0 106 27q45 29 45 84q0 45 -33 77q-30 29 -70 32q38 5 62 28
q30 26 30 71t-38 73q-33 26 -76 26q-49 0 -83 -15q-37 -17 -49 -50q-11 -27 2 -42q11 -13 26 -13q27 5 34 19q4 9 1 29v12q0 20 20 30q18 9 45 9q25 0 42 -20q18 -20 18 -55q0 -47 -24 -69q-21 -20 -67 -20h-39z" />
    <glyph glyph-name="acute" unicode="&#xb4;" 
d="M572 819h-120l-99 -269z" />
    <glyph glyph-name="paragraph" unicode="&#xb6;" 
d="M641 -72v862h-223q-78 0 -132 -55q-55 -54 -55 -131q0 -81 53 -133q54 -54 146 -54v-489h58v823h95v-823h58z" />
    <glyph glyph-name="periodcentered" unicode="&#xb7;" 
d="M951 163v43l-23 12l6 115v411l-15 18l19 42h-167l-17 -9l-64 9h-373l-106 10l-6 -19l-191 7l11 -285l-20 -15l9 -90l4 -199l19 -34l-19 -54l-2 -196h271l55 23l39 -7v-16h553v163zM555 549v-7q1 -12 -1 -18q-2 -9 -10 -14l-5 -6l-9 -9q-6 -6 -11 -10q-8 -1 -13 -4
q-3 -2 -6 -6q-2 -4 -4 -5q-3 -2 -8 -2q-11 0 -25 4q-14 3 -23 7q-4 2 -6 5l-3 6q-2 6 -5 10q-6 8 -16 16q-4 8 -6 17t-2 16q0 4 1 8q0 2 2 6q3 5 4 9q2 6 2 12q1 4 4 6l4 4q5 4 8 7q4 4 6 10q9 9 21 13q10 2 25 2l19 -3l21 -6l20 -12l3 -12q14 -10 16 -18q2 -5 -1 -14z" />
    <glyph glyph-name="cedilla" unicode="&#xb8;" 
d="M571 71l-139 132v-64l70 -68l-70 -73v-65z" />
    <glyph glyph-name="uni00B9" unicode="&#xb9;" 
d="M162 409h173v21q-30 0 -43 7q-16 9 -16 28v359h-42q0 -19 -22 -36q-23 -17 -54 -17v-22h66v-280q0 -21 -19 -30q-16 -8 -43 -8v-22z" />
    <glyph glyph-name="ordmasculine" unicode="&#xba;" 
d="M499 608q-100 0 -160 -72q-52 -64 -52 -159t52 -159q59 -71 160 -71q99 0 158 71q54 64 54 159t-54 159q-60 72 -158 72zM498 582q68 0 108 -64q39 -59 39 -143q0 -85 -39 -144q-40 -63 -108 -63q-69 0 -109 63q-37 59 -37 144q0 84 37 143q41 64 109 64zM267 59v-26h468
v26h-468z" />
    <glyph glyph-name="onequarter" unicode="&#xbc;" 
d="M446 15h239v-60q0 -10 -17 -16q-15 -5 -42 -3v-23h165v24q-28 0 -38 2q-16 3 -16 15v61h59v24h-59v313h-40l-251 -314v-23zM685 39h-204l204 250v-250zM134 351h211v21q-28 0 -45 4q-31 9 -31 31v364l-20 8q-22 -15 -57 -29q-27 -10 -53 -17l6 -18q35 7 54 7t19 -8v-303
q0 -24 -26 -33q-17 -6 -58 -6v-21zM113 -65l24 -18l706 826l-23 20z" />
    <glyph glyph-name="onehalf" unicode="&#xbd;" 
d="M134 352h211v21q-28 0 -45 4q-31 9 -31 32v364l-20 8q-22 -15 -57 -29q-27 -10 -53 -17l9 -18q33 7 51 7q19 0 19 -8v-304q0 -23 -26 -32q-18 -6 -58 -6v-22zM545 -87h284l26 113l-16 5q-14 -45 -30 -63q-15 -16 -38 -16h-193q25 50 73 88q28 24 87 58q57 32 77 52
q34 31 34 72q0 58 -48 93q-43 32 -105 32q-70 0 -111 -36q-38 -31 -42 -80q0 -20 10 -32q9 -11 24 -13q12 -2 23 5q12 7 14 19q1 11 -2 18q-2 4 -8 10q-6 7 -9 11q-4 9 -2 22q1 24 33 42q30 15 61 15q52 0 81 -33q25 -26 25 -65q0 -37 -31 -70q-18 -21 -70 -57
q-57 -41 -83 -66q-44 -45 -64 -99v-25zM112 -65l22 -18l709 827l-23 20z" />
    <glyph glyph-name="threequarters" unicode="&#xbe;" 
d="M247 573l1 -21q67 0 99 -15q46 -23 46 -80q0 -75 -65 -102q-58 -23 -117 8q-29 17 -32 32q-2 10 7 27l6 9q2 6 3 10q2 20 -10 30q-9 10 -26 9q-16 0 -27 -11q-13 -11 -12 -32q2 -49 59 -82q49 -28 105 -28q68 0 114 33q50 35 50 92q0 48 -34 79q-30 29 -77 33q42 6 68 36
q25 31 25 69q0 56 -51 85q-40 24 -91 24q-70 0 -111 -30q-36 -27 -41 -71q-1 -22 9 -35q9 -11 23 -12q13 -1 25 6q13 7 18 19q4 13 0 21q-1 5 -10 13l-8 8q-3 5 -3 11q2 19 28 36q27 16 57 15q53 0 80 -33q23 -25 23 -62q0 -54 -39 -75q-29 -16 -92 -16zM718 38h-204
l204 253v-253zM480 14h238v-60q0 -10 -16 -16q-16 -5 -43 -3v-23h165v24q-28 0 -38 2q-16 3 -16 15v61h59v24h-59v316h-40l-250 -317v-23zM160 -70l24 -17l706 826l-24 20z" />
    <glyph glyph-name="questiondown" unicode="&#xbf;" 
d="M544 651v134h-133v-134h133zM708 171h-112q3 -67 -23 -105q-30 -45 -96 -45q-64 0 -95 49q-26 43 -13 97q6 36 29 65q14 18 47 50q44 42 61 72q30 49 30 115v75h-116v-86q0 -48 -24 -86q-16 -24 -55 -62q-39 -36 -54 -58q-28 -36 -37 -80q-20 -89 46 -160q68 -71 176 -71
q119 0 184 72q56 65 52 158z" />
    <glyph glyph-name="AE" unicode="&#xc6;" 
d="M25 -1h224v24h-48q-31 2 -41 19q-11 18 5 51l91 159h250v-175q0 -29 -27 -42q-23 -12 -68 -12v-24h503l69 174l-21 9q-48 -87 -122 -129q-53 -30 -107 -30h-88q-38 0 -56 9q-19 11 -19 37v276h80q57 0 90 -21q45 -29 45 -98h27v268h-25q0 -73 -45 -103q-33 -21 -92 -21
h-80v238q0 42 21 63q21 22 68 22h101q49 0 107 -47q50 -41 86 -99l15 8l-68 163h-534v-25q57 0 77 -13q18 -11 7 -32l-323 -560q-24 -39 -51 -54q-22 -11 -51 -11v-24zM506 277h-235l235 405v-405z" />
    <glyph glyph-name="Eth" unicode="&#xd0;" 
d="M73 432v-25h208v-310q0 -40 -25 -57q-22 -15 -78 -15v-25h277q162 0 254 89q98 95 98 277q0 171 -104 267q-92 86 -235 86h-285v-25q60 0 82 -16q16 -11 16 -39v-207h-208zM525 432h-181v195q0 37 37 54q30 13 87 13q133 0 200 -71q76 -78 76 -248q0 -204 -82 -286
q-62 -63 -187 -63q-71 0 -100 14q-31 16 -31 53v314h181v25z" />
    <glyph glyph-name="multiply" unicode="&#xd7;" 
d="M730 167l-193 194l193 193l-56 56l-194 -193l-194 195l-61 -60l196 -195l-193 -194l55 -55l194 193l194 -194z" />
    <glyph glyph-name="Oslash" unicode="&#xd8;" 
d="M500 711q66 0 116 -43q38 -34 69 -96l-382 -405q-17 37 -27 92q-7 52 -7 99q0 143 58 242q66 111 173 111zM700 539q13 -32 21 -77q10 -50 10 -104q0 -141 -60 -240q-65 -109 -171 -109q-63 0 -111 38q-35 27 -70 85zM500 736q-139 0 -222 -118q-76 -107 -76 -259
q0 -58 13 -116q17 -67 48 -120l-125 -134l27 -22l117 126q37 -46 81 -73q61 -36 137 -36q139 0 222 118q77 106 77 257q0 71 -19 137q-15 50 -37 88l113 121l-24 25l-108 -115q-38 56 -91 87q-60 34 -133 34z" />
    <glyph glyph-name="Thorn" unicode="&#xde;" 
d="M232 719v-25q62 0 87 -10q25 -9 25 -33v-580q0 -26 -24 -38q-25 -12 -88 -12v-21h300v21q-70 0 -99 13q-26 12 -26 39v70q167 0 250 53q86 54 86 165q0 112 -86 167q-83 53 -250 53v69q0 24 28 34t97 10v25h-300zM680 361q0 -87 -83 -142q-78 -51 -190 -51v388
q112 0 190 -51q83 -55 83 -144z" />
    <glyph glyph-name="germandbls" unicode="&#xdf;" 
d="M238 -1h219v24q-41 0 -60 10q-17 10 -17 33v510q0 58 44 91q38 28 86 28q47 0 88 -36q50 -42 50 -107q0 -94 -50 -131q-34 -25 -99 -25v-25q83 0 137 -59q51 -56 51 -132q0 -56 -16 -96q-14 -35 -37 -55q-20 -18 -43 -23q-20 -4 -32 3q-8 6 -10 18q-1 6 -1 20q0 23 -5 31
q-8 13 -35 13q-25 0 -35 -17q-11 -17 -5 -40q6 -24 26 -39q25 -19 61 -19q78 0 132 49q63 55 63 155q0 80 -45 134q-40 51 -111 71q66 22 96 77q27 52 14 112q-13 62 -61 102q-53 44 -130 44q-94 0 -149 -50q-47 -42 -47 -94v-510q0 -23 -18 -33q-19 -10 -61 -10v-24z" />
    <glyph glyph-name="ae" unicode="&#xe6;" 
d="M859 265q0 91 -39 149q-33 50 -91 69q-52 17 -114 2q-59 -14 -105 -53q-23 32 -66 48t-93 12q-54 -3 -99 -27q-50 -26 -80 -75q-23 -41 -2 -65q16 -19 43 -19q19 2 29 13q13 12 16 31q0 8 -1 17l-3 15q-4 18 -3 27q1 14 13 26q21 23 70 28q49 6 80 -9q30 -14 46 -51
q16 -38 14 -99q-25 -8 -56 -18q-19 -6 -54 -17q-114 -35 -151 -58q-59 -37 -59 -100q0 -58 51 -91q43 -28 100 -28q64 0 110 22q41 20 95 69q27 -47 80 -71q50 -23 107 -17q60 8 105 47q50 44 71 117q4 17 -2 20q-7 3 -15 -15q-26 -48 -62 -81q-42 -38 -82 -38
q-96 0 -138 57q-37 51 -37 163h322zM796 296h-259q0 85 32 126q32 40 95 40q71 0 104 -49q28 -41 28 -117zM500 103l-5 -5q-30 -26 -77 -43q-50 -17 -104 -17q-38 0 -66 21q-31 23 -31 60q0 49 71 88q41 21 132 51q22 7 31 9q16 6 23 9q-1 -40 7 -94q8 -50 19 -79z" />
    <glyph glyph-name="eth" unicode="&#xf0;" 
d="M352 188h282q-5 -69 -51 -121q-45 -50 -97 -50q-58 0 -93 43q-38 44 -41 128zM740 484l-108 -57q-30 32 -68 49q-39 17 -84 17q-68 0 -120 -35q-44 -28 -79 -84l14 -12q36 48 81 72q43 23 91 23q32 0 61 -13q32 -14 55 -43l-184 -98l13 -19l184 97q18 -29 27 -69
q11 -43 11 -96h-347q0 -102 55 -163q55 -60 143 -60q90 0 151 73q62 72 62 176q0 50 -14 93q-14 41 -37 73l105 54z" />
    <glyph glyph-name="divide" unicode="&#xf7;" 
d="M551 588q0 32 -21 53q-22 21 -51 21q-31 0 -53 -21q-20 -21 -20 -53q0 -29 20 -49q22 -22 53 -22q29 0 51 22q21 20 21 49zM771 318v78h-585v-78h585zM551 129q0 32 -21 53t-51 21q-31 0 -53 -21q-20 -20 -20 -53q0 -30 20 -50q22 -21 53 -21q30 0 51 21q21 20 21 50z
" />
    <glyph glyph-name="oslash" unicode="&#xf8;" 
d="M653 401q0 -121 -65 -215q-61 -91 -142 -101l153 446q29 -7 42 -40q12 -31 12 -90zM357 182q0 123 64 233q65 108 144 117l-152 -444q-24 8 -40 31q-16 25 -16 63zM294 205q0 -58 37 -96q30 -30 75 -40l-56 -167h34l56 164q125 4 204 111q72 96 72 218q0 68 -33 109
q-28 38 -78 46l80 233h-35l-79 -231q-56 -1 -109 -34q-48 -31 -88 -85q-38 -51 -59 -111q-21 -61 -21 -117z" />
    <glyph glyph-name="thorn" unicode="&#xfe;" 
d="M243 543v-25q56 0 79 -9q22 -8 22 -29v-549q0 -24 -24 -35q-25 -12 -77 -12v-25h289v25q-72 0 -100 12q-25 11 -25 36v64q165 0 252 53q92 55 92 165q0 116 -92 170q-84 50 -252 50v109h-164zM688 214q0 -94 -90 -148q-78 -46 -191 -46v389q113 0 191 -47q90 -53 90 -148
z" />
    <glyph glyph-name="dcroat" unicode="&#x111;" 
d="M605 391v-318l-7 -6q-20 -23 -36 -33q-27 -17 -65 -17q-71 0 -111 67q-36 59 -36 148q0 90 36 150q40 68 111 68q34 0 61 -15q25 -15 47 -44zM521 677l3 -15q46 0 64 -9q17 -9 17 -35v-10h-308v-25h308v-155q-27 26 -51 39q-34 17 -77 17q-93 0 -146 -78
q-47 -71 -47 -174q0 -100 49 -172q54 -77 144 -77q41 0 76 17q30 15 50 37l2 -43q39 4 61 6q26 2 65 4v21q-35 0 -51 17q-15 15 -15 48v493h84v25h-84v118z" />
    <glyph glyph-name="Hbar" unicode="&#x126;" 
d="M92 597v-25h183v-493q0 -28 -27 -42q-24 -13 -71 -13v-25h262v25q-49 0 -75 14q-26 15 -26 42v271h337v-272q0 -28 -27 -42q-24 -13 -71 -13v-25h261v25q-49 0 -74 14q-26 15 -26 42v492h171v25h-171v53q0 24 30 35q25 9 70 9v25h-265v-25q59 0 81 -9q21 -9 21 -32v-56
h-337v53q0 24 30 35q25 9 70 9v25h-265v-25q59 0 81 -10q21 -9 21 -32v-55h-183zM675 572v-196h-337v196h337z" />
    <glyph glyph-name="hbar" unicode="&#x127;" 
d="M268 677l4 -16q34 0 48 -11q15 -10 15 -42h-100v-25h100v-507q0 -28 -16 -41q-15 -11 -51 -11v-25h194v25q-36 0 -52 11q-15 13 -15 41v286q33 35 63 53q37 21 74 21q41 0 61 -26q20 -24 20 -72v-262q0 -28 -15 -40t-52 -12v-25h194v25q-34 0 -51 12q-16 14 -16 40v280
q0 65 -34 98q-30 30 -80 30q-44 0 -91 -30q-29 -16 -73 -57v186h292v25h-292v119z" />
    <glyph glyph-name="dotlessi" unicode="&#x131;" 
d="M402 -1h194v25q-40 0 -54 9q-13 10 -13 39v411l-131 -45l3 -15q38 0 54 -12q14 -11 14 -33v-306q0 -29 -16 -39q-15 -9 -51 -9v-25z" />
    <glyph glyph-name="IJ" unicode="&#x132;" 
d="M145 719v-25q60 0 81 -13q24 -14 24 -53v-545q0 -31 -24 -45q-23 -14 -81 -14v-25h272v25q-59 0 -82 14q-22 14 -22 45v545q0 39 22 53q21 13 82 13v25h-272zM866 719h-266v-25q62 0 84 -14q23 -14 23 -51v-530q0 -68 -19 -107q-21 -43 -61 -43q-23 0 -36 22q-9 18 -9 43
q0 26 -13 40q-13 13 -37 13q-23 0 -35 -17q-10 -15 -10 -38q0 -42 40 -67q38 -23 100 -23q61 0 99 49q44 55 44 153v505q0 37 20 51q21 14 76 14v25z" />
    <glyph glyph-name="ij" unicode="&#x133;" 
d="M344 736q-25 0 -39 -16q-12 -14 -12 -35q0 -20 12 -34q14 -15 39 -15q24 0 40 15q14 14 14 34t-14 35q-16 16 -40 16zM246 -1h194v25q-40 0 -53 9q-13 10 -13 39v411l-132 -45l4 -15q38 0 54 -12q14 -11 14 -33v-306q0 -29 -17 -39q-14 -9 -51 -9v-25zM544 438l5 -17
q46 0 63 -10q16 -11 16 -40v-398q0 -42 -12 -62q-13 -19 -38 -19q-7 0 -12 7q-3 4 -8 17q-9 24 -17 34q-16 17 -41 17q-19 0 -30 -13q-9 -13 -9 -34q0 -22 21 -39q26 -22 72 -22q56 0 91 36q43 44 43 130v459zM652 736q-24 0 -39 -16q-11 -14 -11 -35q0 -20 11 -34
q15 -15 39 -15q25 0 40 15q14 14 14 34q0 21 -14 35q-15 16 -40 16z" />
    <glyph glyph-name="kgreenlandic" unicode="&#x138;" 
d="M272 -1h199v25q-31 0 -49 12q-15 11 -15 27v129l82 82l122 -205q11 -30 -2 -40q-9 -5 -42 -5v-25h208v25q-39 0 -52 4q-20 7 -32 32l-155 258l80 83q30 27 64 42t67 15v25h-209v-25q43 0 58 -11q13 -10 3 -27l-192 -191v188q0 24 12 33q14 8 52 8v25h-199v-25
q42 0 58 -10q14 -9 14 -31v-351q0 -21 -19 -32q-19 -10 -53 -10v-25z" />
    <glyph glyph-name="Ldot" unicode="&#x13f;" 
d="M740 425q-28 0 -44 -16q-15 -17 -15 -39q0 -23 15 -39q16 -18 44 -18q26 0 43 18q14 16 14 39q0 22 -14 39q-17 16 -43 16zM225 -1h478l72 174l-17 10q-43 -75 -104 -117q-62 -42 -132 -42h-64q-41 0 -59 16q-15 16 -15 48v544q0 36 19 49q22 13 85 13v25h-263v-25
q56 0 76 -13t20 -49v-544q0 -33 -20 -48q-22 -16 -76 -16v-25z" />
    <glyph glyph-name="ldot" unicode="&#x140;" 
d="M640 425q-27 0 -43 -16q-14 -17 -14 -39q0 -23 14 -39q16 -18 43 -18t44 18q15 16 15 39q0 22 -15 39q-17 16 -44 16zM267 -1h197v25q-38 0 -55 14q-15 15 -15 47v642l-131 -46l4 -14q37 0 52 -12q15 -10 15 -35v-535q0 -32 -16 -47q-15 -14 -51 -14v-25z" />
    <glyph glyph-name="Lslash" unicode="&#x141;" 
d="M225 -1h478l72 174l-17 10q-43 -75 -104 -117q-62 -42 -132 -42h-64q-41 0 -59 16q-15 16 -15 48v381l226 136l-17 20l-209 -125v132q0 36 19 49q22 13 85 13v25h-263v-25q56 0 76 -13t20 -49v-169l-216 -129l13 -26l203 124v-344q0 -33 -20 -48q-22 -16 -76 -16v-25z
" />
    <glyph glyph-name="lslash" unicode="&#x142;" 
d="M475 85q0 -35 -16 -48q-15 -13 -52 -13v-25h198v25q-39 0 -55 13q-15 14 -15 47v282l277 279l-17 17l-260 -261v326l-132 -46l4 -14q36 0 53 -11q15 -9 15 -30v-283l-269 -269l14 -20l255 254v-223z" />
    <glyph glyph-name="napostrophe" unicode="&#x149;" 
d="M109 403l7 -8l188 185q14 11 14 24q1 12 -9 20q-10 7 -22 3q-16 -2 -28 -20zM269 -1h194v25q-36 0 -51 13t-15 45v282q41 37 72 55q40 22 74 22q35 0 53 -28q17 -24 17 -70v-261q0 -32 -16 -45q-15 -13 -51 -13v-25h194v25q-37 0 -52 13t-15 45v258q0 66 -32 105
q-30 39 -79 39q-39 0 -82 -25q-24 -15 -68 -51l-15 -13v89l-128 -40l4 -15q38 0 51 -11t13 -43v-293q0 -32 -15 -45q-16 -13 -53 -13v-25z" />
    <glyph glyph-name="Eng" unicode="&#x14a;" 
d="M185 0h263v26q-57 0 -80 12t-23 41v360q56 65 117 95q49 26 94 26q65 0 102 -49q44 -61 44 -191q0 -139 -36 -206q-31 -60 -101 -83q-29 -9 -26 -23q4 -14 29 -8q98 23 143 87q54 76 54 234t-66 230q-53 57 -144 57q-53 0 -106 -32q-60 -34 -104 -101v173q0 25 23 36
q23 10 80 10v25h-263v-25q53 0 74 -10q23 -11 23 -37v-574q0 -24 -26 -36q-24 -11 -71 -11v-26z" />
    <glyph glyph-name="eng" unicode="&#x14b;" 
d="M284 9h204v22q-29 0 -48 10q-22 11 -22 30v299q33 36 75 53q39 18 75 16q36 -1 58 -23q24 -22 24 -62v-363q0 -55 -42 -86q-33 -25 -77 -25q-57 3 -72 18q-9 8 -3 26q2 5 2 7q1 4 1 6q0 19 -13 29q-12 9 -27 9q-16 0 -28 -10t-12 -29q0 -36 51 -58q44 -19 102 -19
q79 0 125 33q56 38 56 120v315q0 81 -33 121q-30 36 -87 36q-49 0 -94 -24q-27 -14 -66 -47l-14 -12v85l-144 -46l9 -18q31 0 50 -8q21 -8 21 -23v-318q0 -19 -21 -31q-20 -11 -50 -11v-22z" />
    <glyph glyph-name="OE" unicode="&#x152;" 
d="M324 694q92 0 147 -104q50 -94 50 -231q0 -136 -50 -231q-55 -104 -147 -104q-94 0 -149 104q-48 95 -48 231q0 137 48 231q55 104 149 104zM323 719q-123 0 -195 -113q-64 -100 -64 -247q0 -146 64 -247q72 -113 196 -113h545l68 176l-19 9q-61 -86 -120 -122
q-61 -38 -146 -38h-227q69 31 113 122q46 95 46 217h55q53 0 80 -31q29 -32 29 -98h24v281h-24q0 -70 -29 -99q-25 -26 -80 -26h-57q-6 108 -43 181q-38 77 -111 123h228q87 0 144 -42q34 -24 78 -85l22 -29l15 11l-71 170h-521z" />
    <glyph glyph-name="oe" unicode="&#x153;" 
d="M337 461q70 0 110 -70q37 -61 37 -153q0 -89 -37 -150q-41 -68 -110 -68q-67 0 -108 68q-38 62 -38 150q0 89 38 153q42 70 108 70zM337 486q-100 0 -158 -76q-51 -70 -51 -170q0 -99 51 -169q58 -76 158 -76q57 0 102 28q42 27 69 74q22 -44 78 -74q53 -28 103 -28
q55 0 97 21t70 65q12 18 7 26q-6 7 -20 -8q-26 -31 -67 -50q-34 -14 -65 -14q-65 0 -107 46q-53 60 -57 186h323q0 82 -50 146q-58 73 -152 73q-57 0 -104 -34q-41 -30 -56 -68q-27 48 -69 74q-45 28 -102 28zM807 292h-259q4 81 43 127q34 42 83 42t86 -42q42 -46 47 -127z
" />
    <glyph glyph-name="Tbar" unicode="&#x166;" 
d="M347 -1h306v25q-58 0 -88 12q-34 15 -34 47v245h244v25h-244v297q0 21 23 32q24 12 75 12q55 0 108 -45q46 -41 81 -109h27l-69 179h-557l-66 -179h24q48 79 83 111q48 43 112 43q53 0 75 -12q21 -10 21 -32v-297h-236v-25h236v-245q0 -32 -34 -47q-28 -12 -87 -12v-25z
" />
    <glyph glyph-name="tbar" unicode="&#x167;" 
d="M470 637h-21q0 -19 -5 -46q-4 -27 -10 -45h-106v-29h95q-13 -30 -34 -47q-33 -26 -93 -30v-19h114v-325q0 -57 27 -86q27 -27 73 -27q37 0 68 20q33 23 58 66l-12 8q-21 -22 -43 -36q-25 -15 -46 -15q-32 0 -49 14q-16 15 -16 42v339h157v29h-157v67h129v29h-129v91z" />
    <glyph glyph-name="caron" unicode="&#x2c7;" 
d="M672 801l-28 48l-165 -95l-166 95l-28 -48l194 -109z" />
    <glyph glyph-name="uni02D0" unicode="&#x2d0;" 
d="M549 588h-185l93 -159zM549 128l-92 161l-93 -161h185z" />
    <glyph glyph-name="breve" unicode="&#x2d8;" 
d="M690 809l-43 29q-28 -35 -74 -60q-48 -27 -94 -27q-47 0 -95 27q-46 25 -73 60l-43 -29q37 -49 91 -76q56 -29 120 -29q63 0 119 29q54 27 92 76z" />
    <glyph glyph-name="dotaccent" unicode="&#x2d9;" 
d="M478 617q39 0 63 27q20 23 20 58q0 34 -20 57q-24 27 -63 27q-40 0 -63 -27q-22 -23 -22 -57q0 -35 22 -58q23 -27 63 -27z" />
    <glyph glyph-name="ring" unicode="&#x2da;" 
d="M588 708q0 46 -33 79q-32 32 -76 32q-46 0 -78 -32q-32 -33 -32 -79q0 -44 32 -77t78 -33q44 0 76 33q33 33 33 77zM541 708q0 -25 -19 -43q-18 -18 -43 -18q-26 0 -44 18t-18 43q0 27 18 44q18 18 44 18q25 0 43 -18q19 -17 19 -44z" />
    <glyph glyph-name="ogonek" unicode="&#x2db;" 
d="M531 -67v65l-71 73l71 68v64l-139 -132z" />
    <glyph glyph-name="hungarumlaut" unicode="&#x2dd;" 
d="M646 819h-99l-89 -242zM517 819h-99l-88 -242z" />
    <glyph glyph-name="Alpha" unicode="&#x391;" 
d="M86 -1h214v25q-45 0 -62 11q-22 13 -5 42l113 175h320l18 -175q2 -27 -19 -40q-22 -13 -63 -13v-25h234v25q-49 0 -69 15q-18 13 -20 45l-67 635l-72 -18l-401 -613q-22 -34 -55 -50q-27 -14 -66 -15v-24zM622 667l42 -389h-303z" />
    <glyph glyph-name="Beta" unicode="&#x392;" 
d="M292 718v-24q67 0 88 -13q15 -10 11 -31l-161 -569q-15 -36 -39 -47q-22 -10 -74 -10v-24h386q121 0 200 57q81 60 81 151q0 72 -42 117q-41 45 -113 57q97 16 152 58q60 47 60 120q0 81 -64 123q-54 35 -138 35h-347zM384 397l68 231q9 37 26 51q17 15 46 15h143
q60 0 88 -40q24 -33 24 -92q0 -66 -72 -117q-67 -48 -135 -48h-188zM515 24h-163q-28 1 -45 12q-23 14 -15 44l85 290h202q55 0 97 -45q45 -48 45 -119q0 -75 -58 -127q-60 -55 -148 -55z" />
    <glyph glyph-name="Gamma" unicode="&#x393;" 
d="M140 -1h259v25q-52 0 -73 13q-22 12 -15 38l179 619h206q48 0 69 -21q23 -23 20 -77l-8 -107h25l56 229h-525v-24q48 0 65 -9q19 -11 13 -39l-161 -562q-12 -33 -37 -46q-24 -14 -73 -14v-25z" />
    <glyph glyph-name="uni0394" unicode="&#x394;" 
d="M877 719l-67 -8l-705 -687v-25h562zM181 61l611 598l-170 -598h-441z" />
    <glyph glyph-name="Epsilon" unicode="&#x395;" 
d="M144 -1h562l91 173l-17 12q-45 -71 -111 -115q-67 -45 -133 -45h-182q-27 0 -40 13q-14 11 -7 29l82 283h113q56 0 73 -42q12 -30 5 -92l24 -2l72 261l-21 3q-24 -57 -58 -82q-27 -21 -63 -21h-139l77 264q6 26 26 40q22 17 55 16h89q87 0 136 -40q40 -33 71 -112l17 7
l-37 169h-500v-24q52 0 70 -15q13 -11 9 -32l-162 -571q-9 -31 -32 -41q-20 -11 -70 -11v-25z" />
    <glyph glyph-name="Zeta" unicode="&#x396;" 
d="M645 -1l72 171l-16 9q-45 -77 -100 -117q-52 -38 -103 -38h-246l562 679l-6 15h-436l-60 -173l16 -6q40 74 85 110q56 45 134 45h190l-562 -682l11 -13h459z" />
    <glyph glyph-name="Eta" unicode="&#x397;" 
d="M481 -1h245v25q-51 0 -69 12q-19 12 -13 36l166 574q8 23 26 35q21 13 58 13v24h-219v-24q44 0 62 -13q13 -11 10 -27l-82 -283h-336l79 275q8 30 26 40q18 8 63 8v24h-230v-24q48 0 66 -13q15 -10 10 -27l-165 -579q-10 -25 -28 -37q-22 -14 -64 -14v-25h228v25
q-43 0 -62 12q-19 13 -10 36l79 274h336l-76 -271q-9 -25 -29 -37q-23 -14 -71 -14v-25z" />
    <glyph glyph-name="Theta" unicode="&#x398;" 
d="M577 395h-129q-18 0 -19 24q-2 15 4 54l1 1h-24l-67 -218h30q9 36 20 53q14 24 29 24h130q19 0 20 -23q0 -16 -10 -55h26l65 217h-27q-11 -37 -19 -52q-13 -23 -30 -25zM583 704q72 0 119 -59q48 -61 48 -159q0 -101 -32 -193q-29 -84 -80 -150q-48 -62 -107 -96
q-58 -35 -114 -35q-71 0 -118 61q-49 67 -49 178q0 73 27 154q28 80 75 147q49 69 106 109q63 43 125 43zM583 728q-83 0 -159 -41q-70 -40 -125 -110q-53 -67 -83 -152q-29 -86 -29 -174q0 -129 63 -199q60 -65 164 -65q79 0 152 33q71 33 127 92q56 61 87 142
q32 85 32 182q0 148 -60 221q-57 71 -169 71z" />
    <glyph glyph-name="Iota" unicode="&#x399;" 
d="M279 -1h251v25q-55 0 -74 15q-19 13 -10 43l159 553q9 31 27 43q23 16 70 16v24h-235v-24q50 0 68 -11q13 -10 9 -31l-163 -570q-10 -32 -31 -44q-22 -14 -71 -14v-25z" />
    <glyph glyph-name="Kappa" unicode="&#x39a;" 
d="M99 -1h234v25q-43 0 -63 16q-19 15 -10 42l58 198l159 124l140 -327q2 -28 -14 -39q-16 -14 -56 -14v-25h227v25q-38 0 -61 17q-18 13 -30 42l-153 360l242 195q32 28 64 41q35 15 70 15v24h-235v-24q51 0 65 -22q13 -19 -9 -39l-397 -312l89 312q10 31 28 44
q21 17 64 17v24h-230v-24q49 0 67 -15q15 -11 11 -29l-163 -567q-11 -32 -30 -44q-23 -15 -67 -15v-25z" />
    <glyph glyph-name="Lambda" unicode="&#x39b;" 
d="M86 -1h214v25q-45 0 -62 11q-22 13 -5 42l389 590l62 -590q2 -27 -19 -40q-22 -13 -63 -13v-25h234v25q-49 0 -69 15q-18 13 -20 45l-67 635l-72 -18l-401 -613q-22 -34 -55 -50q-27 -14 -66 -15v-24z" />
    <glyph glyph-name="Mu" unicode="&#x39c;" 
d="M71 -1h176v25q-45 0 -59 18q-12 14 0 46l167 581v-677h18l437 683l-174 -605q-10 -31 -26 -39q-13 -7 -57 -7v-25h223v25q-48 0 -64 14q-14 12 -6 44l158 547q11 42 23 54q13 11 47 11v24h-129l-388 -601v601h-174v-24q47 0 64 -16q15 -12 9 -34l-162 -569
q-10 -33 -36 -43q-16 -8 -47 -8v-25z" />
    <glyph glyph-name="Nu" unicode="&#x39d;" 
d="M91 -1h201v25q-45 0 -62 13q-19 13 -11 46l156 548l250 -639h17l177 642q10 28 27 41q22 15 57 15v27h-186v-27q42 0 60 -16q15 -15 9 -43l-142 -518l-231 604h-155v-27q48 0 72 -16q21 -13 16 -32l-161 -563q-10 -28 -35 -42q-25 -13 -59 -13v-25z" />
    <glyph glyph-name="Xi" unicode="&#x39e;" 
d="M612 395h-197q-20 0 -22 16q-3 14 6 60h-25l-70 -222h30l7 20q12 33 20 45q13 19 33 19h195q24 0 26 -24q2 -17 -10 -61h26l65 224h-26q-14 -51 -27 -65q-10 -12 -31 -12zM331 718l-54 -184h27q29 70 43 91q21 31 49 31h355q28 0 30 -33q1 -22 -11 -82l-1 -8h26l52 185
h-516zM202 197l-55 -198h525l55 198h-26q-28 -82 -53 -114q-18 -23 -40 -23h-358q-31 0 -34 23q-5 24 14 114h-28z" />
    <glyph glyph-name="Omicron" unicode="&#x39f;" 
d="M583 703q72 0 119 -59q48 -61 48 -159q0 -101 -32 -193q-29 -84 -80 -149q-48 -62 -107 -97q-58 -35 -114 -35q-71 0 -118 62q-49 66 -49 177q0 74 27 155q28 79 75 146q49 70 106 110q63 42 125 42zM583 727q-83 0 -159 -41q-70 -39 -125 -109q-53 -68 -83 -153
q-29 -86 -29 -174q0 -128 63 -199q60 -65 164 -65q79 0 152 33q71 33 127 93t87 141q32 85 32 182q0 148 -60 222q-57 70 -169 70z" />
    <glyph glyph-name="Pi" unicode="&#x3a0;" 
d="M114 -1h224v25q-45 0 -59 10q-18 11 -10 45l179 615h310l-178 -622q-9 -28 -27 -37q-17 -11 -57 -12v-24h218v25q-47 0 -59 8q-18 10 -10 45l168 576q6 24 23 32q17 9 58 9v24h-607v-24q52 0 70 -18q14 -13 9 -38l-159 -550q-11 -39 -33 -52q-18 -12 -60 -12v-25z" />
    <glyph glyph-name="Rho" unicode="&#x3a1;" 
d="M162 -1h226v25q-51 0 -65 11q-13 10 -8 37l78 271h141q118 0 181 38q76 44 109 155q24 88 -28 139q-46 43 -129 43h-331v-24q53 0 71 -15q12 -9 10 -28l-167 -580q-9 -27 -30 -37q-18 -10 -58 -10v-25zM402 368l78 277q8 29 20 39t41 10h108q74 0 102 -47q25 -43 6 -113
q-26 -87 -90 -129q-55 -37 -130 -37h-135z" />
    <glyph glyph-name="Sigma" unicode="&#x3a3;" 
d="M167 -1h512l62 197h-26q-41 -82 -83 -112q-31 -23 -79 -23h-297l365 310l-187 323h250q58 0 84 -47q23 -39 21 -106h21l42 177h-493v-24l198 -342l-390 -328v-25z" />
    <glyph glyph-name="Tau" unicode="&#x3a4;" 
d="M237 -1h266v25q-59 0 -79 14q-19 12 -11 47l165 569q5 20 24 30t50 10h50q54 0 88 -37q33 -38 53 -126l21 1l-25 186h-566l-112 -163l15 -11q72 83 134 120q52 30 102 30h54q21 0 34 -10q16 -12 11 -30l-165 -577q-11 -33 -36 -43q-21 -10 -73 -10v-25z" />
    <glyph glyph-name="Upsilon" unicode="&#x3a5;" 
d="M206 -1h237v25q-48 0 -68 13q-17 10 -11 34l104 366q23 78 108 159q83 79 144 84q-16 -30 -1 -57q18 -30 62 -30q24 0 39 20q14 18 13 43q0 26 -18 43q-21 19 -56 19q-85 0 -172 -69q-73 -60 -104 -129q14 64 -16 126q-35 72 -113 72q-55 0 -107 -24q-30 -15 -67 -43
l18 -26q24 21 59 35q37 13 75 13q69 0 86 -71q15 -59 -6 -138l-114 -390q-10 -31 -32 -41q-18 -9 -60 -9v-25z" />
    <glyph glyph-name="Phi" unicode="&#x3a6;" 
d="M252 267q0 123 71 224q81 113 212 129l-149 -516q-66 8 -101 54q-33 43 -33 109zM741 456q0 -131 -81 -236q-85 -110 -210 -121l149 518q69 -12 108 -60q34 -42 34 -101zM803 417q0 92 -51 152t-145 73q6 25 37 38q32 14 85 14v24h-268v-24q54 0 73 -14q13 -12 8 -35
q-87 -4 -159 -40q-63 -32 -109 -87q-42 -50 -65 -111q-19 -57 -19 -114q0 -92 53 -148q47 -50 134 -69q-5 -25 -37 -38q-30 -14 -79 -14v-25h260v25q-47 0 -66 11q-22 11 -14 34q86 5 158 41q65 32 113 87q44 50 68 110q23 58 23 110z" />
    <glyph glyph-name="Chi" unicode="&#x3a7;" 
d="M77 -1h227v23q-52 0 -68 17q-16 15 9 42l249 250l117 -261q10 -22 -17 -35q-24 -13 -72 -13v-23h267v25q-41 0 -71 12t-38 32l-138 309l277 280q23 23 55 32q20 5 53 5v24h-219v-24q45 0 60 -16q13 -14 -5 -33l-234 -235l-104 232q-10 25 17 39q24 13 72 13v24h-261v-25
q30 1 51 -4q28 -6 39 -22l137 -306l-276 -278q-38 -36 -70 -49q-25 -12 -57 -12v-23z" />
    <glyph glyph-name="Psi" unicode="&#x3a8;" 
d="M232 -1h260v25q-55 0 -77 16q-21 14 -12 43l31 104q114 0 181 45q65 43 82 126q6 32 8 73q0 25 -1 73q-2 51 0 75q2 36 12 56q16 31 32 32q14 1 14 -20q-1 -22 17 -35q17 -14 43 -14q20 0 36 17q14 15 16 37q1 23 -15 40q-19 20 -54 25q-44 7 -78 -17q-26 -20 -46 -57
q-15 -31 -22 -79q-4 -28 -7 -88q-4 -74 -10 -106q-11 -56 -37 -87q-33 -34 -78 -55q-45 -20 -87 -20l123 428q9 26 25 39q22 19 59 19v24h-214v-24q40 0 57 -14q13 -12 10 -30l-125 -441q-62 0 -103 33q-41 31 -41 75q0 35 20 79q12 26 45 80q32 51 43 76q21 42 21 73
q0 44 -23 70q-21 23 -56 23q-36 0 -63 -13q-27 -14 -44 -43q-12 -20 -6 -26q8 -5 22 9q10 15 30 21q15 3 36 3q18 0 30 -11q11 -13 11 -33q0 -28 -20 -65q-12 -22 -43 -67q-33 -47 -45 -71q-21 -39 -21 -71q0 -74 53 -116q54 -44 149 -44l-32 -108q-9 -32 -31 -44
q-23 -15 -75 -15v-25z" />
    <glyph glyph-name="uni03A9" unicode="&#x3a9;" 
d="M122 -1h258l39 137q6 23 -4 38q-6 9 -28 22q-34 23 -48 43q-24 37 -24 100q0 61 24 125q25 61 68 113q43 53 96 83q57 32 116 32q67 0 113 -39q56 -45 56 -137q0 -113 -58 -196q-54 -76 -143 -110l-27 -8q-25 -9 -34 -14q-14 -10 -19 -31l-45 -158h272l57 152l-25 8
q-27 -57 -48 -78q-20 -19 -51 -19h-151l22 81q3 15 22 24q18 8 60 15q107 24 170 107q60 79 60 186q0 117 -60 182q-61 66 -168 66q-75 0 -145 -31q-65 -30 -117 -83q-51 -50 -79 -113q-29 -64 -29 -129q0 -77 36 -123q20 -26 66 -52q21 -11 28 -18q10 -10 7 -24l-25 -88
h-155q-22 0 -26 15q-5 18 7 79l-26 1z" />
    <glyph glyph-name="alpha" unicode="&#x3b1;" 
d="M549 99l-5 -10q-6 -41 12 -65q15 -23 48 -29q21 -2 46 14q25 15 35 34q12 23 6 33q-7 10 -23 -5q-15 -14 -29 -15q-11 -1 -28 5q-14 9 -19 26q-7 21 -2 53q43 53 85 117q50 77 70 130q19 49 19 63q1 18 -20 24q-24 8 -37 -10q-11 -14 -19 -53q-13 -59 -45 -130
q-31 -72 -55 -97q49 151 35 228q-13 74 -81 74q-54 0 -107 -36q-47 -32 -87 -87q-39 -52 -61 -113q-22 -60 -22 -111q0 -74 34 -113q29 -33 75 -33q52 0 100 31q45 29 75 75zM545 455l5 -1q22 0 34 -25q13 -21 13 -54q0 -43 -12 -91q-6 -29 -22 -77q-9 -28 -12 -39
q-5 -19 -5 -32q-27 -46 -67 -70q-36 -21 -76 -21q-36 0 -54 25q-16 23 -16 71q0 51 21 109q20 52 54 101q32 47 69 74q37 30 68 30z" />
    <glyph glyph-name="beta" unicode="&#x3b2;" 
d="M616 363l6 2q61 22 98 66q43 52 43 119q0 63 -31 107q-28 41 -75 54q-46 15 -93 -3q-51 -20 -86 -72q-36 -47 -87 -188q-30 -83 -86 -265q-31 -102 -45 -143q-22 -67 -34 -92q-19 -40 -12 -61q6 -16 30 -22q35 -4 51 35q10 24 17 92q4 37 6 55q5 30 13 49q29 -50 78 -77
q47 -26 104 -26q72 0 125 54q55 55 55 136q0 60 -20 104q-19 41 -57 76zM340 125l-2 3l14 64q33 135 50 194q27 98 54 157q31 70 68 105q41 37 94 37q39 0 60 -32q21 -31 21 -89q0 -83 -46 -135q-30 -35 -65 -44q-57 24 -95 22q-37 -2 -40 -30q0 -27 38 -36q39 -8 87 8
q27 -11 42 -56q12 -36 12 -82q0 -78 -49 -126q-43 -43 -103 -43q-46 0 -81 21q-35 20 -59 62z" />
    <glyph glyph-name="gamma" unicode="&#x3b3;" 
d="M480 240q16 110 -4 175q-21 71 -83 71q-45 0 -77 -33q-30 -32 -39 -78q-5 -22 6 -24q10 -3 17 16q11 27 29 42q19 15 48 15q50 0 75 -76q23 -76 -2 -141q-23 -55 -50 -113q-17 -33 -45 -87q-40 -75 -45 -98q-8 -34 25 -43q27 -6 45 10q18 17 34 58q12 35 28 102
q10 42 34 159l4 13q62 67 118 119q32 31 79 72l16 13q17 16 22 30q6 18 -10 32q-20 14 -35 10q-15 -3 -30 -26q-16 -23 -46 -63q-17 -24 -58 -79z" />
    <glyph glyph-name="delta" unicode="&#x3b4;" 
d="M578 379l-7 7q-18 16 -34 23q-23 8 -52 8q-92 0 -156 -83q-59 -77 -59 -168q0 -88 54 -135q46 -38 110 -38q77 0 143 61q79 73 79 194q0 65 -39 132q-23 40 -78 108q-39 47 -53 68q-21 35 -21 61q0 27 14 38q13 9 35 6q50 -7 91 -54q23 -27 54 -85l17 -29q19 -33 38 -25
q18 8 10 34q-20 82 -81 145q-58 62 -119 68q-46 7 -74 -21q-23 -26 -23 -64q0 -43 29 -88q17 -28 61 -75q29 -31 39 -46q18 -23 22 -42zM432 22h-5q-43 0 -66 29q-26 33 -26 101q0 90 45 162q48 75 117 75q42 0 67 -36q25 -34 25 -86q0 -115 -56 -185q-46 -60 -101 -60z" />
    <glyph glyph-name="epsilon" unicode="&#x3b5;" 
d="M395 266l-6 -2q-55 -24 -80 -59q-23 -34 -23 -82q0 -62 48 -96q42 -30 110 -33q64 -3 123 17q62 21 86 54q21 25 13 31q-7 7 -32 -7q-51 -25 -106 -33q-51 -8 -94 2q-43 11 -67 35q-25 26 -25 63q0 38 24 63q20 22 49 27q28 -19 64 -29q34 -9 66 -10q30 0 47 8
q19 10 18 28q-5 40 -82 47q-69 5 -112 -14q-8 5 -13 19q-7 17 -4 36q3 36 33 60q29 23 74 32q43 9 89 2q50 -7 89 -29q26 -16 32 -9q5 6 -3 25q-15 32 -54 52q-42 22 -96 22q-80 0 -136 -34q-54 -35 -63 -88q-5 -34 7 -64q10 -26 24 -34z" />
    <glyph glyph-name="zeta" unicode="&#x3b6;" 
d="M362 -80v-3q0 -26 30 -41q24 -11 60 -11q89 0 131 49q34 39 35 108q0 61 -41 87q-24 15 -88 23q-54 8 -75 19q-36 18 -42 58q-12 77 47 167q32 50 99 119l5 4q47 3 94 19q43 15 78 36q34 22 48 42q13 22 1 34q-27 28 -97 -9q-41 -22 -130 -87l-11 -9q-26 3 -45 19
q-17 17 -20 40q-4 26 11 50q16 29 53 49q27 14 21 26q-6 14 -44 4q-46 -11 -71 -43q-23 -29 -22 -66q1 -36 27 -62q27 -31 75 -39q-65 -57 -114 -141q-59 -100 -50 -165q9 -78 62 -108q30 -17 102 -22q49 -4 66 -11q29 -13 29 -49q0 -45 -34 -64q-30 -17 -68 -8l-4 2
q-55 18 -78 19q-40 1 -40 -36z" />
    <glyph glyph-name="eta" unicode="&#x3b7;" 
d="M428 384l-5 -23q-14 -44 -52 -125q-22 -47 -65 -131l-20 -43q-16 -25 -13 -44q3 -18 21 -25q24 -8 38 6q8 9 21 43q62 202 124 308q64 107 122 107q23 0 38 -17q16 -18 13 -46q-10 -84 -72 -229q-35 -81 -97 -202l-9 -18q-18 -34 -14 -55q2 -18 21 -23q22 -7 39 11
q15 17 36 71q52 128 85 224q53 149 57 211q6 50 -22 76q-26 26 -77 26q-33 0 -69 -23q-38 -24 -66 -64q2 49 -19 71q-20 19 -50 15q-29 -5 -55 -27t-32 -51q-7 -25 4 -29q10 -3 22 12q28 38 61 38q34 1 35 -44z" />
    <glyph glyph-name="theta" unicode="&#x3b8;" 
d="M620 691q35 0 46 -44q7 -32 3 -95q-4 -40 -11 -80t-15 -79h-254q43 126 98 205q63 93 124 93h9zM337 177q3 37 15 86q11 48 28 101h255q-41 -148 -103 -244q-65 -99 -124 -99q-39 0 -58 43q-17 41 -13 113zM620 718h-9q-65 0 -128 -55q-58 -50 -107 -137
q-45 -83 -73 -177q-26 -96 -26 -176q0 -83 30 -129q32 -50 98 -50t130 55q56 51 103 139q43 83 68 180t25 180q0 82 -25 124q-28 46 -86 46z" />
    <glyph glyph-name="iota" unicode="&#x3b9;" 
d="M591 480l-10 3q-22 7 -38 -2q-16 -10 -28 -37q-40 -73 -75 -160q-46 -111 -57 -179q-8 -52 20 -84q24 -28 63 -28q45 0 86 34q35 28 53 66q13 28 1 32q-10 5 -24 -11q-28 -32 -57 -48q-25 -13 -49 -10q-21 2 -34 17q-12 13 -9 32q4 49 56 141q28 51 86 137l7 10
q23 34 28 51q8 27 -19 36z" />
    <glyph glyph-name="kappa" unicode="&#x3ba;" 
d="M434 248h-23q8 30 29 84q18 48 30 76q14 38 13 50q-2 15 -21 23q-23 8 -34 -1q-9 -7 -11 -26q-22 -85 -49 -179q-37 -128 -66 -206q-14 -38 -14 -49q0 -16 20 -25q28 -10 40 9q8 14 19 71q8 41 13 65q10 43 24 83q12 4 32 4q21 0 30 -5q25 -16 27 -46q1 -17 -9 -55
q-7 -28 -9 -41q-2 -23 5 -40q24 -56 81 -45q53 9 87 65q12 23 4 30q-9 9 -26 -8q-33 -37 -60 -39q-31 -1 -28 43q9 90 3 116q-9 36 -59 47q17 12 33 33q10 13 26 41q28 47 46 62q31 26 75 16q21 -4 38 6q14 10 17 26q3 18 -8 31q-11 17 -37 21q-37 6 -74 -35
q-22 -25 -63 -91q-32 -52 -49 -72q-28 -34 -52 -39z" />
    <glyph glyph-name="lambda" unicode="&#x3bb;" 
d="M624 467l-8 -7q-78 -76 -175 -198q-58 -74 -134 -181q-22 -33 -25 -46q-4 -19 16 -34q28 -15 44 -2q10 7 22 34l2 4q51 105 134 222q67 98 124 158q-28 -122 -33 -195q-7 -111 27 -185q16 -32 38 -38q20 -6 37 12q15 18 12 34q-3 11 -19 36q-16 22 -23 37q-13 25 -18 51
q-8 42 -7 110q1 41 7 126q8 120 6 169q-4 81 -29 105q-25 25 -49 33q-21 9 -39 5q-17 -2 -27 -13q-9 -11 -9 -25q0 -26 18 -39q12 -8 41 -14q12 -2 17 -3q9 -3 14 -6q22 -11 31 -57q7 -38 5 -93z" />
    <glyph glyph-name="uni03BC" unicode="&#x3bc;" 
d="M324 144l-3 -7l-87 -188q-20 -43 -12 -66q6 -18 30 -18q27 0 40 25q7 17 19 70q8 40 14 64q10 40 24 76q36 -61 114 -57q76 4 120 63q12 -32 37 -45q21 -11 48 -6q26 6 47 24q22 17 31 40q6 21 0 29q-7 9 -22 -4q-16 -15 -34 -23q-17 -8 -31 -9q-22 0 -35 11
q-14 9 -10 21q49 73 82 149q33 75 51 151q6 35 -14 41t-37 -20q-39 -53 -70 -130q-36 -92 -47 -188q-16 -36 -54 -58q-35 -19 -77 -19q-37 0 -65 26q-29 28 -23 58q10 43 44 120q19 44 58 125l11 21q16 31 13 48q-3 18 -25 18q-27 0 -54 -38q-26 -35 -47 -94
q-21 -55 -30 -112q-11 -59 -6 -98z" />
    <glyph glyph-name="nu" unicode="&#x3bd;" 
d="M349 63v5q57 98 76 200q19 97 -3 160q-8 28 -23 42q-15 16 -31 16q-31 0 -39 -24q-8 -23 10 -48q48 -93 31 -207q-15 -89 -64 -173q-13 -22 -6 -33q6 -8 28 -8q59 4 129 44q67 39 125 103q60 67 95 144q38 84 40 165q-1 33 -11 36q-10 4 -14 -20q-29 -189 -150 -299
q-84 -78 -193 -103z" />
    <glyph glyph-name="xi" unicode="&#x3be;" 
d="M496 565l-3 3q-28 15 -31 35q-3 19 17 34q18 17 52 24q36 6 78 -1q18 -5 34 1q14 6 18 16q2 12 -9 23q-13 11 -42 15q-56 5 -99 -11q-39 -16 -60 -44q-20 -28 -17 -57t30 -50q-39 -14 -68 -42q-30 -28 -43 -61q-13 -35 -3 -69q12 -37 51 -66q-72 -28 -113 -78
q-40 -50 -40 -106q0 -87 69 -111q46 -17 166 -12q31 0 41 -17t-1 -39q-11 -23 -34 -34q-26 -12 -55 -2q-34 10 -41 -9q-8 -21 20 -33q58 -22 113 1q64 28 64 105q0 63 -52 82q-30 12 -111 10q-71 -1 -98 8q-42 14 -42 63q0 70 50 108q42 32 113 39q103 -24 170 -20
q68 5 68 37q0 44 -85 47q-72 2 -157 -22q-30 2 -47 23q-22 24 -21 70q2 45 50 78q41 30 85 32q95 -24 159 -20q66 4 66 35q0 38 -87 37q-71 0 -155 -22z" />
    <glyph glyph-name="omicron" unicode="&#x3bf;" 
d="M556 486q-104 0 -179 -93t-75 -218q0 -86 49 -138q45 -44 104 -44q96 0 172 89q80 94 80 221q0 88 -44 138q-40 45 -102 45h-5zM556 461h5q40 0 62 -40q21 -38 21 -112q0 -78 -25 -141q-20 -52 -55 -91q-28 -30 -62 -48q-29 -14 -47 -14q-42 0 -66 37t-24 100
q0 61 18 119q17 54 47 99q28 42 63 66q33 25 63 25z" />
    <glyph glyph-name="pi" unicode="&#x3c0;" 
d="M404 424l45 -1q-50 -160 -105 -248q-30 -50 -80 -97l-17 -18q-15 -16 -10 -34q5 -16 22 -26q17 -9 35 -6q21 4 34 22q17 32 42 93q13 37 43 119q25 72 38 105q21 56 38 88l104 -4l-31 -90q-35 -100 -48 -147q-20 -77 -16 -121q2 -28 20 -46q18 -15 43 -19q24 -4 48 6
t39 32q15 25 7 34q-7 9 -29 -3q-26 -16 -46 5q-24 21 -21 71q5 71 32 160q16 54 41 114q85 -8 106 -3q21 4 30 32q11 27 4 41q-6 13 -19 4q-25 -10 -45 -13q-24 -4 -56 -2l-227 14q-56 0 -93 -34q-26 -24 -42 -65q-7 -25 6 -30q14 -6 22 12q15 29 40 43q20 12 46 12z" />
    <glyph glyph-name="rho" unicode="&#x3c1;" 
d="M337 200l3 -6q15 -76 63 -111q36 -26 88 -26q96 0 165 81q68 78 68 180q0 79 -46 126q-42 42 -101 42q-80 0 -146 -63q-58 -53 -102 -151q-38 -85 -59 -187q-19 -92 -18 -168q0 -28 13 -42q14 -13 33 -10q17 3 29 18q13 16 10 36q-15 81 -18 137q-5 91 18 144zM575 460h3
q33 0 56 -28q27 -30 27 -76q0 -124 -59 -203q-53 -72 -120 -72q-40 0 -66 28q-27 29 -27 80q5 122 65 201q55 70 121 70z" />
    <glyph glyph-name="sigma" unicode="&#x3c3;" 
d="M503 404h5q32 0 57 -29q29 -32 29 -77q0 -118 -56 -201q-53 -81 -122 -81q-37 0 -64 33q-28 34 -28 81q0 125 54 203q51 71 125 71zM498 425l16 10q27 16 69 11q24 -3 69 -18q17 -5 25 -7q12 -4 20 -4q18 0 31 16q11 14 13 33q3 20 -4 34q-9 14 -26 14q-12 0 -21 -2
q-6 -2 -14 -7q-15 -7 -27 -11q-22 -7 -59 -9q-123 -6 -223 -95q-102 -93 -102 -209q0 -92 45 -142q42 -46 110 -46q28 0 65 15q43 17 79 47q42 35 65 84q28 57 28 125q0 75 -47 119q-44 42 -112 42z" />
    <glyph glyph-name="tau" unicode="&#x3c4;" 
d="M496 420l-4 -7q-19 -42 -40 -87q-13 -27 -35 -73q-42 -85 -54 -117q-18 -52 -10 -90q7 -28 32 -43q24 -12 56 -10q30 2 58 16t42 35q18 26 7 39q-10 12 -35 -4q-46 -29 -68 -23q-24 7 -24 48q1 49 36 141q18 51 61 146l13 26l62 -2l60 -4q31 -2 43 11q12 16 8 56
q-2 18 -10 19q-6 1 -27 -9q-33 -10 -65 -11q-19 0 -58 4q-34 4 -52 4q-33 1 -63 -5q-25 -2 -51 -23q-25 -21 -45 -54q-12 -24 0 -32q10 -9 22 5q24 33 57 42q29 8 84 2z" />
    <glyph glyph-name="upsilon" unicode="&#x3c5;" 
d="M422 20h-10q-22 0 -38 21q-15 21 -15 51q0 36 22 82q13 26 49 82q34 52 48 78q22 43 22 76t-16 55q-16 21 -44 21q-23 0 -28 -15q-3 -10 2 -38q2 -11 2 -17q2 -10 2 -18q0 -29 -15 -69q-9 -25 -33 -73q-25 -55 -34 -79q-15 -43 -15 -76q0 -54 35 -82q29 -24 77 -24
q50 0 103 32q51 32 94 86q42 55 66 120q27 70 27 137q0 57 -35 93q-35 38 -69 14q-15 -12 -12 -26q2 -9 17 -28q12 -15 16 -25q9 -14 9 -29q0 -65 -21 -131q-19 -61 -52 -111t-73 -78q-41 -29 -81 -29z" />
    <glyph glyph-name="phi" unicode="&#x3c6;" 
d="M364 -135h7q37 0 50 29q8 18 15 73q4 33 7 50q5 29 12 54q135 0 223 91q82 84 82 198q0 44 -22 76q-20 30 -53 42q-33 13 -67 3q-36 -11 -63 -44q-26 -30 -54 -103q-17 -42 -46 -133q-12 -34 -17 -48q-7 -25 -13 -40q-46 0 -76 37q-31 38 -31 95q0 76 60 140
q56 58 119 70q31 10 30 23q-1 14 -30 6q-109 -19 -179 -90q-65 -69 -65 -157q0 -80 50 -125q44 -38 109 -38l-2 -3q-17 -47 -29 -74q-20 -49 -39 -78q-17 -27 -10 -42q7 -12 32 -12zM464 112l2 5q48 170 78 227q43 83 106 83q35 0 54 -16q26 -24 26 -77q0 -106 -90 -168
q-77 -54 -176 -54z" />
    <glyph glyph-name="chi" unicode="&#x3c7;" 
d="M557 -60q-15 21 -19 60q-4 25 -7 91l-4 93q66 86 116 142q41 47 87 91q16 18 17 33q0 17 -22 28q-23 13 -39 4q-10 -6 -25 -28l-2 -4l-48 -82q-26 -43 -39 -68q-24 -41 -45 -82q-2 162 -21 216q-17 52 -70 52q-48 0 -79 -34q-23 -26 -29 -59q-8 -33 11 -38q19 -4 31 14
q26 43 61 49t47 -29q13 -36 19 -71q5 -42 8 -123q-71 -89 -139 -165q-48 -53 -110 -116q-17 -18 -9 -33q5 -12 26 -15q22 -2 35 2q19 6 33 31q16 30 37 64q14 22 41 63q29 44 43 66q25 39 44 74q0 -26 -1 -55q0 -19 -1 -51q-4 -104 5 -138q13 -51 65 -57q44 -3 78 23
q33 27 38 67q2 28 -11 34q-12 7 -20 -10q-22 -44 -53 -55q-30 -10 -49 16z" />
    <glyph glyph-name="psi" unicode="&#x3c8;" 
d="M578 662q-15 -72 -68 -257q-56 -197 -91 -288q-36 0 -58 27q-22 26 -25 72q-3 49 15 107q20 63 62 129q19 25 13 32t-32 -12q-55 -35 -91 -94q-40 -66 -40 -135q0 -76 43 -122q40 -44 100 -44l-19 -44q-13 -35 -21 -52q-11 -27 -18 -41q-18 -37 -18 -52q1 -16 26 -21
q27 -6 40 8q13 16 21 65q4 27 15 69q10 37 20 69q113 0 195 94q81 94 94 236q5 47 -4 63q-9 15 -33 15q-35 0 -40 -20q-4 -12 3 -49q3 -18 5 -28q3 -15 3 -29q7 -110 -60 -182q-64 -67 -156 -67q36 126 87 281q41 120 90 251q19 49 20 64q2 19 -21 25q-28 9 -40 -8
q-8 -12 -17 -57v-5z" />
    <glyph glyph-name="omega" unicode="&#x3c9;" 
d="M484 88v18q30 48 62 127q36 88 40 137q4 35 -10 39q-14 5 -45 -34q-42 -59 -58 -110q-21 -63 -21 -157q-33 -44 -66 -64q-30 -17 -56 -9q-25 7 -40 38q-14 31 -14 79q0 105 58 194q50 73 113 104q32 17 32 30q-1 12 -35 0q-111 -46 -168 -125q-58 -82 -58 -199
q0 -63 22 -106q22 -39 58 -52t77 4q43 20 81 68q7 -35 36 -57q27 -20 62 -20q87 0 161 88q77 90 77 205q0 58 -15 102q-13 43 -42 73q-22 27 -33 24q-11 -2 1 -24q37 -61 32 -142q-3 -69 -37 -140q-31 -64 -74 -107t-75 -43q-26 0 -41 15q-14 14 -24 44z" />
    <glyph glyph-name="uni0401" unicode="&#x401;" 
d="M212 -1h506l69 176l-19 9q-61 -86 -120 -122q-63 -38 -147 -38h-49q-41 0 -61 17q-19 16 -19 52v270h107q53 0 80 -31q28 -33 28 -99h24v266h-24q0 -63 -28 -87q-24 -22 -80 -22h-107v216q0 34 19 50q19 14 60 14h53q87 0 145 -41q34 -24 77 -85l23 -30l15 11l-70 171
h-482v-26q51 0 74 -14q23 -15 23 -50v-513q0 -36 -23 -52q-23 -17 -74 -17v-25zM625 858q-24 0 -38 -14q-12 -13 -12 -32t12 -32q14 -15 38 -15q22 0 36 15q12 13 12 32t-12 32q-14 14 -36 14zM379 858q-23 0 -37 -14q-11 -13 -11 -32t11 -32q14 -15 37 -15t37 15
q12 13 12 32t-12 32q-14 14 -37 14z" />
    <glyph glyph-name="uni0410" unicode="&#x410;" 
d="M519 735l-55 -24l-197 -584q-23 -65 -45 -85q-18 -18 -61 -18v-25h217v25q-67 0 -85 18q-18 20 0 75l46 144h277l58 -168q15 -41 -6 -55q-19 -14 -84 -14v-25h254v25q-41 0 -63 17q-24 16 -36 56zM477 662l128 -371h-256z" />
    <glyph glyph-name="uni0411" unicode="&#x411;" 
d="M187 -1h321q118 0 188 61q63 55 63 137t-56 135q-68 63 -198 63h-160v234q0 38 11 50q14 15 52 15h82q92 0 149 -42q35 -26 79 -92l16 -22l15 10l-71 170h-491v-24q55 0 75 -17q21 -15 21 -53v-534q0 -39 -21 -52q-18 -14 -75 -14v-25zM345 370h158q81 0 137 -53
q53 -51 53 -120q0 -70 -51 -118q-55 -55 -145 -55h-68q-47 0 -64 14q-20 14 -20 52v280z" />
    <glyph glyph-name="uni0412" unicode="&#x412;" 
d="M187 -1h321q118 0 188 61q63 55 63 137q0 75 -43 122q-48 52 -145 70q84 24 122 68q34 38 34 94q0 74 -62 120q-65 47 -175 47h-303v-24q55 0 75 -17q21 -15 21 -53v-534q0 -39 -21 -52q-18 -14 -75 -14v-25zM345 395v229q0 37 20 53q20 17 64 17h58q84 0 132 -45
q40 -39 40 -93q0 -59 -48 -108q-52 -53 -124 -53h-142zM345 370h158q81 0 137 -53q53 -51 53 -120q0 -70 -51 -118q-55 -55 -145 -55h-68q-47 0 -64 14q-20 14 -20 52v280z" />
    <glyph glyph-name="uni0413" unicode="&#x413;" 
d="M212 -1h280v25q-70 0 -96 17q-24 15 -24 52v536q0 35 19 50t60 15h101q86 0 144 -41q33 -24 77 -85l23 -30l15 10l-70 170h-529v-24q51 0 74 -15q23 -14 23 -50v-536q0 -36 -23 -52q-23 -17 -74 -17v-25z" />
    <glyph glyph-name="uni0414" unicode="&#x414;" 
d="M141 33l-11 -175h26q11 66 32 100q27 41 76 41h436q48 0 80 -35q32 -34 52 -106h25l-12 159q-53 0 -73 9q-22 10 -22 35v601q0 19 26 26q21 6 73 6v24h-591v-24q58 0 77 -5q26 -7 26 -28q0 -210 -35 -343q-51 -197 -185 -285zM406 694h281v-633h-457q95 92 138 262
q38 148 38 371z" />
    <glyph glyph-name="uni0415" unicode="&#x415;" 
d="M212 -1h506l69 176l-19 9q-61 -86 -120 -122q-63 -38 -147 -38h-49q-41 0 -61 17q-19 16 -19 52v268h107q53 0 80 -30q28 -33 28 -98h24v281h-24q0 -69 -28 -98q-25 -27 -80 -27h-107v240q0 35 19 50t60 15h53q87 0 145 -41q34 -25 77 -85l23 -30l15 10l-70 170h-482v-24
q51 0 74 -15q23 -14 23 -50v-536q0 -36 -23 -52q-23 -17 -74 -17v-25z" />
    <glyph glyph-name="uni0416" unicode="&#x416;" 
d="M65 24v-25h137q31 28 53 69q14 25 35 79q28 73 49 107q37 58 101 93h28v-268q0 -33 -20 -43q-20 -12 -77 -12v-25h262v25q-53 0 -77 12q-25 11 -25 43v268h28q70 -38 109 -101q23 -38 48 -117q15 -46 26 -69q15 -36 39 -61h174v25q-57 0 -106 53q-28 31 -79 116
q-41 68 -65 99q-39 49 -80 68q32 21 53 67q14 28 31 88q19 61 31 83q19 39 50 49q13 4 28 -3q9 -3 24 -15q13 -9 20 -12q12 -7 22 -7q27 0 40 14q14 12 14 38q0 30 -23 46q-24 16 -62 16q-77 0 -121 -64q-27 -39 -58 -138q-23 -76 -39 -104q-26 -45 -66 -45h-38v274
q0 26 28 37q24 10 72 10v24h-261v-24q52 0 75 -10t23 -37v-274h-29q-42 0 -68 44q-17 27 -39 101q-31 101 -58 140q-47 66 -129 66q-38 0 -61 -16q-22 -16 -22 -46q0 -26 15 -40q13 -12 33 -12q12 0 23 7q7 3 19 12q15 12 23 15q15 7 34 3q35 -10 60 -57q15 -29 36 -96
q18 -59 28 -81q18 -40 42 -53q-39 -19 -76 -68q-22 -31 -62 -99q-49 -85 -76 -116q-46 -53 -96 -53z" />
    <glyph glyph-name="uni0417" unicode="&#x417;" 
d="M286 139l-2 3q-8 16 -19 12q-11 -3 -4 -20q32 -69 79 -102q56 -38 149 -39q97 0 167 60t70 142q0 83 -37 127q-33 42 -110 61q61 18 90 55q33 39 33 107q0 75 -61 127q-58 51 -132 51q-38 0 -66 -8q-16 -5 -39 -16q-13 -6 -19 -9q-10 -4 -19 -4h-26l-35 23h-13l-8 -191
h23q1 63 47 116q54 64 137 64q74 0 113 -44q34 -39 34 -103q0 -74 -55 -115q-54 -41 -149 -41h-43v-24h43q105 0 166 -44q64 -46 64 -131q0 -74 -49 -121q-56 -55 -165 -55q-48 0 -97 38q-45 35 -67 81z" />
    <glyph glyph-name="uni0418" unicode="&#x418;" 
d="M167 -1h253v25q-54 0 -76 16q-19 14 -19 49v6l347 489v-495q0 -35 -22 -49q-22 -16 -73 -16v-25h255v25q-55 0 -77 16q-20 14 -20 49v547q0 31 20 44q23 14 77 14v24h-255v-24q50 0 73 -14q22 -13 22 -44v-6l-347 -490v496q0 31 20 44q22 14 75 14v24h-253v-24
q55 0 77 -14q18 -13 18 -44v-547q0 -35 -20 -49q-22 -16 -75 -16v-25z" />
    <glyph glyph-name="uni0419" unicode="&#x419;" 
d="M167 -1h253v25q-54 0 -76 16q-19 14 -19 49v6l347 442v-448q0 -35 -22 -49q-22 -16 -73 -16v-25h255v25q-55 0 -77 16q-20 14 -20 49v499q0 31 20 43q23 14 77 14v25h-255v-25q50 0 73 -14q22 -12 22 -43v-5l-347 -443v448q0 31 20 43q22 14 75 14v25h-253v-25
q55 0 77 -14q18 -11 18 -43v-499q0 -35 -20 -49q-22 -16 -75 -16v-25zM609 842v-1q0 -39 -39 -62q-32 -21 -70 -21q-35 0 -65 21q-36 24 -36 63h-31q0 -61 36 -94q35 -31 96 -31q60 0 97 31q42 34 42 94h-30z" />
    <glyph glyph-name="uni041A" unicode="&#x41a;" 
d="M150 24v-25h272v25q-58 0 -85 18q-25 18 -25 51v254h116q63 -22 104 -76q23 -31 58 -107q28 -60 47 -89q30 -47 73 -76h155v25q-77 8 -134 64q-33 34 -85 119q-43 70 -70 98q-43 47 -98 57q64 52 105 123q24 41 49 112q17 48 27 63q14 23 38 23q11 0 18 -9q5 -5 13 -20
q10 -21 18 -29q12 -13 34 -13q24 0 40 16q14 16 14 39q0 31 -28 45q-28 15 -82 15q-64 0 -99 -40q-20 -26 -46 -100q-28 -75 -50 -111q-38 -63 -100 -103h-117v250q0 42 25 57q24 14 85 14v24h-272v-24q52 0 74 -14q26 -16 26 -57v-530q0 -33 -26 -51q-25 -18 -74 -18z" />
    <glyph glyph-name="uni041B" unicode="&#x41b;" 
d="M383 647v-411q0 -91 -32 -153q-29 -59 -64 -59q-13 0 -26 13q-7 6 -21 26q-16 22 -25 31q-15 14 -32 14q-25 0 -40 -16q-14 -14 -14 -40q0 -34 24 -51q25 -19 86 -19q80 0 120 57q49 68 49 227v428h253v-602q0 -33 -23 -50q-24 -18 -78 -18v-25h262v25q-59 0 -81 20
q-18 16 -18 49v540q0 36 18 48q19 13 81 13v24h-538v-24q55 0 77 -10t22 -37z" />
    <glyph glyph-name="uni041C" unicode="&#x41c;" 
d="M83 -1h219v25q-54 0 -76 17q-19 15 -19 52v577h11l256 -678h17l259 693h10v-592q0 -35 -20 -51q-22 -18 -74 -18v-25h251v25q-53 0 -76 18q-19 16 -19 51v546q0 30 17 42q21 13 78 13v24h-185l-234 -627l-234 627h-181v-24q53 0 75 -12q20 -12 20 -43v-546q0 -38 -20 -52
q-22 -17 -75 -17v-25z" />
    <glyph glyph-name="uni041D" unicode="&#x41d;" 
d="M167 -1h253v25q-54 0 -76 16q-19 14 -19 49v269h347v-269q0 -35 -22 -49q-22 -16 -73 -16v-25h255v25q-55 0 -77 16q-20 14 -20 49v547q0 31 20 44q23 14 77 14v24h-255v-24q50 0 73 -14q22 -13 22 -44v-253h-347v253q0 31 20 44q22 14 75 14v24h-253v-24q55 0 77 -14
q18 -13 18 -44v-547q0 -35 -20 -49q-22 -16 -75 -16v-25z" />
    <glyph glyph-name="uni041E" unicode="&#x41e;" 
d="M500 736q-139 0 -222 -117q-76 -108 -76 -260q0 -151 76 -259q83 -118 222 -118t223 118q76 108 76 259q0 152 -76 260q-84 117 -223 117zM500 709q106 0 171 -109q60 -100 60 -242q0 -141 -60 -240q-65 -110 -171 -110q-107 0 -172 110q-59 99 -59 240q0 142 59 242
q65 109 172 109z" />
    <glyph glyph-name="uni041F" unicode="&#x41f;" 
d="M145 24v-25h264v25q-48 0 -73 16q-24 14 -24 43v611h375v-611q0 -29 -27 -43q-28 -16 -83 -16v-25h277v25q-54 0 -80 16q-24 14 -24 43v566q0 25 24 35t80 10v24h-709v-24q52 0 77 -10q28 -11 28 -35v-566q0 -29 -28 -43q-27 -16 -77 -16z" />
    <glyph glyph-name="uni0420" unicode="&#x420;" 
d="M219 -1h263v25q-60 0 -83 18q-22 17 -22 56v240h165q92 0 150 52q60 55 60 149q0 84 -59 132q-57 47 -143 47h-331v-24q55 0 75 -14q21 -13 21 -50v-532q0 -38 -21 -56t-75 -18v-25zM377 364v266q0 36 17 50t55 14h77q74 0 118 -48q40 -43 40 -107q0 -68 -40 -118
q-45 -57 -119 -57h-148z" />
    <glyph glyph-name="uni0421" unicode="&#x421;" 
d="M764 193l-17 9q-46 -86 -104 -129q-55 -40 -118 -40q-108 0 -180 94q-72 95 -72 236q0 149 60 249q62 98 154 98q74 2 146 -59q47 -39 97 -110l17 7l-70 183l-72 -23l-11 3q-37 14 -53 18q-28 7 -56 7q-121 0 -202 -111q-78 -107 -78 -262q0 -176 89 -282q84 -99 208 -99
q93 0 164 63q59 54 98 148z" />
    <glyph glyph-name="uni0422" unicode="&#x422;" 
d="M353 -2h287v24q-61 0 -84 10q-28 11 -28 46v556q0 32 21 45t63 13q66 0 111 -41q27 -25 69 -96l10 -16l17 6l-59 172h-527l-59 -165l15 -8q43 71 78 101q55 47 129 47q37 0 53 -13q16 -12 16 -45v-556q0 -34 -33 -46q-24 -10 -79 -10v-24z" />
    <glyph glyph-name="uni0423" unicode="&#x423;" 
d="M189 718v-24q35 0 51 -8q10 -6 20 -23l231 -489l-19 -48q-19 -40 -34 -60q-17 -24 -30 -24q-15 0 -24 9q-5 5 -11 19q-8 14 -14 20q-11 9 -26 9q-23 0 -37 -15q-11 -13 -11 -35q0 -20 15 -34q19 -16 55 -16q48 0 76 23q35 30 74 119l217 503q14 30 32 40q19 10 58 10v24
h-170v-24q39 0 51 -11q11 -11 3 -36l-175 -395l-194 405q-9 22 1 29q10 8 49 8v24h-188z" />
    <glyph glyph-name="uni0424" unicode="&#x424;" 
d="M369 718v-24q45 0 73 -20q26 -17 26 -41v-25q-133 -3 -207 -66q-74 -65 -74 -178q0 -114 74 -181q75 -67 207 -70q0 -43 -26 -66t-77 -23v-25h262v25q-52 0 -75 23q-21 22 -21 66q129 4 205 70q76 68 76 181t-76 178q-75 63 -205 66v27q0 30 21 44q24 15 75 15v24h-258z
M468 583v-445q-92 3 -154 66q-64 64 -64 160q0 98 64 159q61 58 154 60zM531 583q86 -2 149 -60q70 -63 70 -159q0 -94 -70 -160q-64 -63 -149 -66v445z" />
    <glyph glyph-name="uni0425" unicode="&#x425;" 
d="M207 -1h218v25q-67 0 -86 15q-19 13 1 48l151 251l154 -264q18 -31 -6 -41q-18 -9 -81 -9v-25h254v25q-38 0 -57 10q-20 10 -41 44l-184 317l142 228q26 39 49 54q27 17 64 17v24h-220v-24q70 0 88 -14q17 -13 -6 -49l-133 -213l-139 236q-15 21 11 31q24 9 79 9v24h-254
v-24q43 0 66 -13q15 -9 28 -30l172 -288l-164 -271q-25 -38 -42 -50q-23 -18 -64 -18v-25z" />
    <glyph glyph-name="uni0426" unicode="&#x426;" 
d="M145 694q52 0 77 -12q28 -13 28 -41v-572q0 -24 -28 -34q-25 -11 -77 -11v-25h569q62 0 98 -44q26 -31 48 -97h24l-30 166q-56 0 -80 11q-24 9 -24 34v572q0 28 24 41q24 12 80 12v24h-277v-24q56 0 83 -12q27 -13 27 -41v-572q0 -24 -24 -34q-22 -11 -63 -11h-200
q-44 0 -65 11q-23 10 -23 34v572q0 28 24 41q23 12 73 12v24h-264v-24z" />
    <glyph glyph-name="uni0427" unicode="&#x427;" 
d="M780 718h-240v-24q48 0 68 -12q19 -12 19 -41v-268q-35 -44 -68 -65q-42 -27 -97 -27q-65 0 -93 35q-24 27 -24 79v246q0 29 16 41q18 12 69 12v24h-226v-24q44 0 62 -12q20 -13 20 -41v-264q0 -68 37 -106q39 -39 112 -39q62 0 115 36q33 22 77 70v-268q0 -28 -16 -36
q-17 -10 -71 -10v-25h240v25q-57 0 -75 10q-18 8 -18 36v571q0 30 19 41q19 12 74 12v24z" />
    <glyph glyph-name="uni0428" unicode="&#x428;" 
d="M38 24v-25h926v25q-47 0 -67 11q-22 10 -22 36v546q0 37 22 57q23 20 67 20v24h-240v-24q42 0 66 -20q22 -20 22 -57v-593h-281v593q0 37 23 57q24 20 69 20v24h-243v-24q42 0 65 -20t23 -57v-593h-281v593q0 36 26 57q26 20 70 20v24h-245v-24q38 0 62 -20
q25 -21 25 -57v-527q0 -34 -25 -50q-22 -16 -62 -16z" />
    <glyph glyph-name="uni0429" unicode="&#x429;" 
d="M39 24v-25h795q50 0 81 -38q27 -34 41 -103h24l-6 166q-54 0 -76 11q-23 9 -23 36v546q0 37 24 57t72 20v24h-247v-24q42 0 66 -20q22 -20 22 -57v-593h-281v593q0 37 23 57q24 20 69 20v24h-243v-24q42 0 65 -20t23 -57v-593h-281v593q0 36 26 57q26 20 70 20v24h-246
v-24q42 0 64 -20q24 -20 24 -57v-527q0 -33 -27 -50q-22 -16 -59 -16z" />
    <glyph glyph-name="uni042A" unicode="&#x42a;" 
d="M282 24v-25h343q106 0 173 47q77 53 77 148q0 101 -77 151q-64 42 -173 42h-151v227q0 37 28 57q33 23 97 23v24h-429l-26 -181h26q21 85 44 117q29 40 82 40h116v-582q0 -45 -37 -68q-32 -20 -93 -20zM474 362h151q83 0 136 -49q51 -48 51 -119q0 -73 -51 -120
q-52 -50 -136 -50h-151v338z" />
    <glyph glyph-name="uni042B" unicode="&#x42b;" 
d="M84 24v-25h291q115 0 180 49q70 52 70 147q0 104 -76 156q-63 44 -174 44h-125v238q0 32 21 46q23 15 71 15v24h-259v-24q53 0 78 -14q26 -14 26 -49v-543q0 -31 -22 -46q-26 -18 -81 -18zM250 371h125q75 0 127 -42q60 -49 60 -134q0 -79 -74 -130q-59 -41 -113 -41
h-125v347zM708 718v-24q35 0 52 -14q20 -15 20 -53v-544q0 -29 -20 -44q-17 -15 -52 -15v-25h205v25q-36 0 -53 15q-18 15 -18 44v544q0 38 21 53q16 14 50 14v24h-205z" />
    <glyph glyph-name="uni042C" unicode="&#x42c;" 
d="M369 371h126q74 0 127 -42q59 -49 59 -134q0 -79 -74 -130q-59 -41 -112 -41h-126v347zM204 24v-25h291q114 0 179 49q70 52 70 147q0 104 -76 156q-63 44 -173 44h-126v238q0 32 21 46q24 15 71 15v24h-259v-24q53 0 78 -14q26 -14 26 -49v-543q0 -31 -22 -46
q-26 -18 -80 -18z" />
    <glyph glyph-name="uni042D" unicode="&#x42d;" 
d="M392 374v-25h357q-4 -136 -84 -230q-81 -95 -192 -95q-88 0 -178 47q-90 48 -123 110l-22 -16q50 -83 108 -121q83 -53 221 -53q147 0 238 96q95 101 95 275q0 173 -105 273q-96 92 -239 92q-68 0 -118 -14q-48 -12 -90 -41q-23 -12 -32 10q-6 15 -5 51h-28l-23 -249h23
q19 103 82 160q64 58 165 58q120 0 211 -97q92 -98 96 -231h-357z" />
    <glyph glyph-name="uni042E" unicode="&#x42e;" 
d="M55 24v-25h267v25q-43 0 -72 17q-33 17 -33 44v249h159q2 -168 81 -261q73 -90 198 -90q134 0 206 93q76 96 76 285q0 164 -78 268t-204 104q-125 0 -202 -102q-74 -98 -77 -246h-159v246q0 33 24 47q24 16 77 16v24h-266v-24q41 0 70 -16q33 -17 33 -47v-546
q0 -28 -30 -44q-27 -17 -70 -17zM655 708q39 0 79 -29q39 -28 71 -77q31 -50 50 -110q20 -65 20 -131q0 -144 -68 -249q-66 -104 -152 -104q-85 0 -151 105q-65 105 -65 244q0 67 19 133q17 62 49 112q32 49 70 77q39 29 78 29z" />
    <glyph glyph-name="uni042F" unicode="&#x42f;" 
d="M790 -1v25q-56 0 -78 18q-18 15 -18 53v538q0 34 18 47q21 14 78 14v24h-292q-114 0 -176 -50q-60 -47 -60 -126q0 -76 47 -125q52 -52 148 -58l-163 -288q-15 -28 -39 -37q-21 -10 -62 -10v-25h135l197 358h106v-262q0 -37 -22 -53q-23 -18 -73 -18v-25h254zM631 382
h-151q-78 0 -116 50q-32 42 -32 110q0 72 43 112q46 40 127 40h56q36 0 54 -14q19 -14 19 -47v-251z" />
    <glyph glyph-name="uni0430" unicode="&#x430;" 
d="M718 31l-10 11q-12 -13 -25 -19q-10 -4 -20 -4q-12 0 -16 16q-3 12 -3 38v277q0 65 -40 100q-38 34 -104 34q-78 0 -132 -28q-53 -30 -53 -68q0 -20 9 -31q10 -12 30 -12q17 0 28 14q8 9 16 28q14 39 36 56q24 16 61 16q43 0 66 -27q22 -25 22 -72v-71q-136 -24 -210 -74
q-75 -48 -75 -116q0 -51 33 -83q35 -34 95 -34q47 0 88 19q35 17 69 49q0 -30 10 -47q14 -21 45 -21q27 0 46 15q15 9 34 34zM583 261v-180q-32 -32 -63 -44q-31 -15 -74 -15q-35 0 -58 22q-22 23 -22 57q0 64 68 108q61 41 149 52z" />
    <glyph glyph-name="uni0431" unicode="&#x431;" 
d="M685 715q-9 -17 -40 -23q-19 -5 -69 -7q-78 -3 -118 -14q-66 -17 -101 -66q-53 -67 -80 -158t-27 -194q0 -114 69 -188q69 -73 172 -73q106 0 173 68q67 67 67 176q0 111 -67 177q-66 64 -173 64q-55 0 -103 -17q-54 -18 -90 -57l4 14q15 48 25 72q16 40 40 66
q27 32 67 49q46 20 109 21q97 2 124 17q26 15 40 73q0 10 -8 11q-7 2 -10 -6zM491 452q88 0 133 -57q43 -55 43 -159q0 -100 -43 -158q-47 -62 -133 -62q-88 0 -135 62q-43 58 -43 158q0 104 43 159q45 57 135 57z" />
    <glyph glyph-name="uni0432" unicode="&#x432;" 
d="M213 -1h331q80 0 138 43q56 41 56 94q0 51 -41 83q-43 35 -126 42q69 11 103 35q32 24 32 59q0 57 -47 84q-46 26 -134 26h-312v-25q46 0 69 -14q18 -11 18 -33v-330q0 -20 -18 -29q-21 -10 -69 -10v-25zM363 266v127q0 21 19 33q23 14 65 14h76q60 0 89 -23
q25 -21 25 -57q0 -39 -33 -67q-32 -27 -81 -27h-160zM363 242h177q55 0 93 -32q38 -30 38 -74t-35 -76q-40 -36 -104 -36h-85q-44 0 -65 10q-19 9 -19 29v179z" />
    <glyph glyph-name="uni0433" unicode="&#x433;" 
d="M216 -1h280v25q-70 0 -97 17q-24 15 -24 52v283q0 35 19 50q19 14 60 14h93q51 0 85 -37q24 -27 46 -84l25 10l-45 136h-442v-25q51 0 74 -14q22 -14 22 -50v-283q0 -36 -22 -52q-23 -17 -74 -17v-25z" />
    <glyph glyph-name="uni0434" unicode="&#x434;" 
d="M207 33l-11 -175h25q11 66 32 100q27 41 76 41h308q48 0 80 -35q33 -34 52 -106h25l-11 159q-53 0 -74 9q-22 10 -22 35v347q0 19 26 26q22 6 74 6v25h-529v-25q59 0 77 -5q26 -6 26 -28q0 -125 -27 -204q-36 -108 -127 -170zM406 440h219v-379h-330q58 76 80 147
q31 89 31 232z" />
    <glyph glyph-name="uni0435" unicode="&#x435;" 
d="M691 114q-37 -47 -82 -72q-43 -24 -90 -24q-69 0 -113 53q-53 63 -53 189h346q0 103 -57 164q-55 60 -142 60q-91 0 -152 -72q-59 -72 -59 -177q0 -112 62 -184q61 -69 154 -69q68 0 120 35q42 28 81 84zM633 289h-280q4 69 50 121q44 49 97 49q56 0 91 -42
q37 -44 42 -128z" />
    <glyph glyph-name="uni0436" unicode="&#x436;" 
d="M181 24v-25h101q40 35 62 66q14 19 31 54q14 30 25 46q18 28 47 56h21v-142q0 -34 -14 -43q-16 -12 -72 -12v-25h251v25q-53 0 -77 12q-25 11 -25 43v142h17q30 -28 48 -56q12 -17 27 -46q17 -35 31 -54q23 -31 65 -66h120v25q-49 0 -95 38q-29 22 -77 82q-28 33 -42 49
q-24 26 -45 41q18 12 39 40q11 16 32 52q20 35 30 48q17 20 31 20q9 0 15 -5q4 -4 10 -13q7 -9 12 -13q7 -7 20 -7q25 0 40 14q14 13 14 39q0 30 -24 47q-23 15 -61 14q-38 0 -69 -40q-17 -24 -44 -86q-23 -50 -35 -67q-20 -30 -42 -30h-17v147q0 25 28 36q24 10 72 10v25
h-250v-25q51 0 70 -10q17 -9 17 -36v-147h-21q-20 0 -36 25q-11 16 -30 60q-27 66 -48 93q-38 45 -89 45q-27 0 -45 -15q-21 -18 -21 -46q0 -26 15 -40q14 -13 32 -13q8 0 16 6q4 4 12 13q10 9 16 13q9 6 21 6q17 0 31 -17q8 -9 22 -41q17 -34 29 -51q20 -31 46 -51
q-24 -17 -50 -46q-15 -18 -44 -56q-42 -54 -66 -75q-37 -33 -77 -33z" />
    <glyph glyph-name="uni0437" unicode="&#x437;" 
d="M327 111q-9 13 -21 6q-11 -6 -2 -23q28 -51 79 -78q47 -24 105 -24q98 0 152 48q47 42 47 107q0 50 -30 80q-26 24 -78 41q38 15 61 40q27 28 27 67q0 54 -48 86q-45 31 -115 31q-28 0 -53 -8q-16 -5 -37 -16q-22 -10 -29 -8q-9 3 -11 30h-29l-10 -157h22q14 60 48 96
q37 38 91 38q56 0 83 -19q29 -23 29 -73q0 -42 -30 -65q-39 -29 -126 -29v-26q86 0 131 -33q42 -29 42 -78q0 -54 -43 -86q-43 -34 -115 -34q-47 0 -84 27q-28 20 -56 60z" />
    <glyph glyph-name="uni0438" unicode="&#x438;" 
d="M216 -1h246v25q-49 0 -69 16q-18 14 -18 49v6l250 242v-248q0 -34 -22 -49q-20 -16 -67 -16v-25h247v25q-54 0 -75 16q-21 14 -21 49v294q0 31 21 43q22 14 75 14v25h-247v-25q46 0 67 -14q22 -12 22 -43v-6l-250 -243v249q0 31 19 43q21 14 68 14v25h-246v-25
q56 0 77 -14q19 -11 19 -43v-294q0 -35 -20 -49q-21 -16 -76 -16v-25z" />
    <glyph glyph-name="uni0439" unicode="&#x439;" 
d="M216 -1h246v25q-49 0 -69 16q-18 14 -18 49v6l250 242v-248q0 -34 -22 -49q-20 -16 -67 -16v-25h247v25q-54 0 -75 16q-21 14 -21 49v294q0 31 21 43q22 14 75 14v25h-247v-25q46 0 67 -14q22 -12 22 -43v-6l-250 -243v249q0 31 19 43q21 14 68 14v25h-246v-25
q56 0 77 -14q19 -11 19 -43v-294q0 -35 -20 -49q-21 -16 -76 -16v-25zM609 670v-1q0 -39 -39 -62q-32 -20 -70 -20q-35 0 -65 20q-36 24 -36 63h-31q0 -61 36 -94q35 -31 96 -31q60 0 97 31q42 34 42 94h-30z" />
    <glyph glyph-name="uni043A" unicode="&#x43a;" 
d="M225 24v-25h273v25q-59 0 -86 18q-25 17 -25 51v131h65q40 -27 60 -59q13 -20 27 -60q10 -32 19 -49q15 -30 37 -57h155v25q-58 9 -98 46q-24 22 -58 77q-24 39 -39 56q-24 26 -54 36q39 27 58 69q12 25 22 69q5 29 9 39q8 13 22 13q11 0 18 -9q5 -4 13 -20
q10 -20 18 -27q12 -14 34 -14q24 0 40 16q15 16 15 40q0 29 -29 44q-28 15 -82 15q-48 0 -71 -29q-15 -20 -29 -70q-15 -49 -28 -71q-21 -38 -58 -55h-66v121q0 41 25 56q23 14 86 14v25h-273v-25q52 0 74 -14q26 -15 26 -56v-277q0 -33 -26 -51q-25 -18 -74 -18z" />
    <glyph glyph-name="uni043B" unicode="&#x43b;" 
d="M412 394v-227q0 -67 -33 -107q-27 -36 -64 -36q-11 0 -22 12q-6 6 -19 25q-16 23 -24 32q-17 15 -34 15q-24 0 -39 -16q-14 -14 -14 -40q0 -34 23 -51q25 -19 86 -19q74 0 117 46q48 52 48 152v260h188v-348q0 -33 -23 -50q-23 -18 -77 -18v-25h262v25q-59 0 -82 20
q-18 16 -18 49v287q0 36 18 47q20 13 82 13v25h-474v-25q56 0 77 -10q22 -10 22 -36z" />
    <glyph glyph-name="uni043C" unicode="&#x43c;" 
d="M154 -1h219v25q-55 0 -77 17q-19 15 -19 52v324h13l184 -425h17l186 439h11v-338q0 -35 -21 -51q-21 -18 -74 -18v-25h252v25q-53 0 -76 18q-19 16 -19 51v292q0 31 17 42q21 13 78 13v25h-185l-162 -374l-164 374h-180v-25q54 0 74 -12q22 -11 22 -43v-292
q0 -38 -21 -52q-21 -17 -75 -17v-25z" />
    <glyph glyph-name="uni043D" unicode="&#x43d;" 
d="M216 -1h254v25q-54 0 -76 16q-19 14 -19 49v140h250v-140q0 -35 -23 -49q-21 -16 -73 -16v-25h254v25q-54 0 -75 16q-21 14 -21 49v294q0 31 21 43q22 14 75 14v25h-254v-25q51 0 73 -14q23 -12 23 -43v-130h-250v130q0 31 20 43q22 14 75 14v25h-254v-25q56 0 77 -14
q19 -11 19 -43v-294q0 -35 -20 -49q-21 -16 -76 -16v-25z" />
    <glyph glyph-name="uni043E" unicode="&#x43e;" 
d="M499 484q-100 0 -160 -77q-52 -71 -52 -175q0 -103 52 -173q60 -77 160 -77q98 0 158 77q53 70 53 173q0 104 -53 175q-60 77 -158 77zM499 459q67 0 107 -69q38 -63 38 -157q0 -93 -38 -156q-40 -71 -107 -71q-69 0 -110 71q-36 63 -36 156q0 94 36 157q41 69 110 69z
" />
    <glyph glyph-name="uni043F" unicode="&#x43f;" 
d="M208 24v-25h263v25q-48 0 -72 16q-24 14 -24 43v357h250v-357q0 -29 -28 -43q-27 -16 -83 -16v-25h278v25q-54 0 -81 16q-24 14 -24 43v312q0 25 24 36q25 9 81 9v25h-584v-25q52 0 77 -9q27 -11 27 -36v-312q0 -29 -27 -43q-28 -16 -77 -16z" />
    <glyph glyph-name="uni0440" unicode="&#x440;" 
d="M393 91v302q21 29 48 44q26 13 58 13q70 0 111 -65q36 -57 36 -144t-36 -144q-40 -64 -111 -64q-40 0 -68 19q-18 13 -38 39zM266 -142h193v25q-33 0 -49 13q-17 14 -17 44v111q23 -23 51 -36q34 -16 75 -16q93 0 146 75q47 67 47 167q0 101 -47 169q-54 74 -146 74
q-41 0 -74 -15q-28 -13 -52 -39v54l-127 -42l4 -15q35 0 49 -10q14 -9 14 -34v-443q0 -31 -15 -44t-52 -13v-25z" />
    <glyph glyph-name="uni0441" unicode="&#x441;" 
d="M663 109l-15 8q-43 -52 -82 -75q-33 -19 -68 -19q-72 0 -115 60q-41 59 -41 155q0 99 43 163q39 57 91 57q29 0 50 -16q16 -13 32 -44l7 -16q8 -19 15 -26q10 -13 30 -13q24 0 34 22q10 20 -4 48q-14 27 -55 48q-42 23 -83 23q-87 0 -155 -72q-72 -79 -72 -194
q0 -95 62 -166q62 -70 143 -70q57 0 105 39q39 30 78 88z" />
    <glyph glyph-name="uni0442" unicode="&#x442;" 
d="M355 -2h288v24q-61 0 -84 10q-28 11 -28 46v305q0 31 21 44t63 13q63 0 97 -46q25 -32 41 -102l17 1l-10 172h-510l-17 -165l17 -4q14 65 42 98q38 46 107 46q36 0 53 -13q16 -12 16 -44v-305q0 -34 -33 -46q-24 -10 -80 -10v-24z" />
    <glyph glyph-name="uni0443" unicode="&#x443;" 
d="M250 465v-25q36 0 51 -8q11 -5 21 -22l164 -379l-19 -45q-16 -40 -30 -61q-16 -23 -29 -23q-15 0 -24 9q-5 5 -11 18q-8 15 -14 21q-11 8 -26 8q-23 0 -37 -14q-11 -14 -11 -35t15 -34q19 -17 55 -17q48 0 75 23q35 31 70 119l150 370q19 45 40 58q18 12 59 12v25h-170
v-25q39 0 51 -11q11 -11 2 -35l-115 -284l-128 294q-10 21 0 28q11 8 50 8v25h-189z" />
    <glyph glyph-name="uni0444" unicode="&#x444;" 
d="M375 -118v-24h242v24q-42 0 -63 12q-24 13 -24 41v100q21 -19 44 -29q31 -14 65 -14q63 0 111 72q51 75 51 184q0 117 -54 184q-48 60 -117 60q-30 0 -57 -16q-24 -15 -43 -40v288l-151 -39v-17q41 1 63 -8q25 -11 25 -36v-188q-13 30 -46 44q-26 12 -61 12
q-71 0 -119 -67q-48 -68 -48 -177q0 -110 40 -181q44 -75 119 -75q34 0 62 10q26 10 53 33v-100q0 -29 -22 -41q-21 -12 -70 -12zM467 389v-314q-21 -29 -45 -43q-23 -16 -50 -16q-55 0 -85 62q-31 60 -31 166q0 96 26 153q31 70 98 70q34 0 52 -16q20 -17 35 -62zM530 75
v314q17 39 43 60q21 18 44 18q64 0 95 -64q27 -56 27 -156q0 -106 -29 -165q-30 -66 -88 -66q-33 0 -57 18q-23 15 -35 41z" />
    <glyph glyph-name="uni0445" unicode="&#x445;" 
d="M458 477h-202v-25q30 0 50 -10q19 -10 37 -32l128 -174l-112 -151q-33 -39 -60 -50q-21 -11 -59 -11v-25h188v25q-47 0 -55 11q-10 10 10 40l105 140l112 -159q12 -18 5 -24q-9 -8 -55 -8v-25h209v25q-32 0 -51 8q-19 7 -35 25l-149 203l111 152q16 21 40 30q26 10 67 10
v25h-183v-25q41 0 51 -8t-4 -27l-98 -136l-97 137q-17 20 -6 27q10 7 53 7v25z" />
    <glyph glyph-name="uni0446" unicode="&#x446;" 
d="M208 440q51 0 77 -11q27 -12 27 -41v-319q0 -24 -27 -34q-26 -11 -77 -11v-25h444q61 0 98 -44q26 -31 47 -97h25l-30 166q-56 0 -81 11q-24 9 -24 34v319q0 29 24 41q25 11 81 11v25h-278v-25q57 0 83 -11q28 -12 28 -41v-319q0 -24 -25 -34q-21 -11 -62 -11h-76
q-44 0 -64 11q-23 10 -23 34v319q0 29 24 41q22 11 72 11v25h-263v-25z" />
    <glyph glyph-name="uni0447" unicode="&#x447;" 
d="M745 465h-241v-25q50 0 69 -11q19 -12 19 -41v-151q-10 -31 -42 -53q-37 -26 -88 -26q-49 0 -70 20q-19 19 -19 64v146q0 29 15 40q19 12 70 12v25h-227v-25q44 0 62 -12q20 -11 20 -40v-164q0 -56 34 -86q32 -28 88 -28q58 0 105 34q38 27 52 59v-133q0 -28 -16 -36
q-17 -10 -72 -10v-25h241v25q-57 0 -76 10q-17 8 -17 36v318q0 29 18 41q20 11 75 11v25z" />
    <glyph glyph-name="uni0448" unicode="&#x448;" 
d="M100 24v-25h802v25q-47 0 -68 11q-22 10 -22 36v292q0 37 22 57q24 20 68 20v25h-240v-25q42 0 65 -20t23 -57v-339h-219v339q0 37 23 57q24 20 69 20v25h-243v-25q42 0 65 -20t23 -57v-339h-218v339q0 36 26 57q25 20 69 20v25h-245v-25q38 0 63 -20q24 -21 24 -57v-273
q0 -34 -24 -50q-23 -16 -63 -16z" />
    <glyph glyph-name="uni0449" unicode="&#x449;" 
d="M101 24v-25h671q50 0 80 -38q27 -34 41 -103h24l-5 166q-54 0 -77 11q-23 9 -23 36v292q0 37 24 57q25 20 73 20v25h-247v-25q42 0 65 -20t23 -57v-339h-219v339q0 37 23 57q24 20 69 20v25h-243v-25q42 0 65 -20t23 -57v-339h-218v339q0 36 26 57q25 20 69 20v25h-246
v-25q42 0 65 -20t23 -57v-273q0 -33 -26 -50q-23 -16 -60 -16z" />
    <glyph glyph-name="uni044A" unicode="&#x44a;" 
d="M313 24v-25h250q106 0 173 38q75 42 75 119q0 84 -76 121q-62 29 -173 29h-88v76q0 35 28 47q27 11 97 11v25h-381l-16 -127h26q12 58 35 79q26 23 81 23h68v-342q0 -38 -21 -56q-22 -18 -78 -18zM474 281h88q83 0 136 -37q51 -36 51 -88q0 -56 -51 -93q-52 -39 -135 -39
h-89v257z" />
    <glyph glyph-name="uni044B" unicode="&#x44b;" 
d="M87 24v-25h251q107 0 173 38q76 42 76 119q0 84 -76 121q-61 29 -174 29h-87v76q0 35 28 47q26 11 97 11v25h-288v-25q59 0 80 -12q20 -12 20 -48v-282q0 -39 -20 -56q-23 -18 -80 -18zM250 281h87q83 0 136 -37q52 -36 52 -88q0 -56 -51 -93q-53 -39 -136 -39h-88v257z
M678 465v-25q34 0 52 -14q20 -15 20 -51v-292q0 -29 -19 -44t-53 -15v-25h205v25q-35 0 -53 15t-18 44v292q0 36 21 51q17 14 50 14v25h-205z" />
    <glyph glyph-name="uni044C" unicode="&#x44c;" 
d="M413 281h88q83 0 136 -37q51 -36 51 -88q0 -56 -51 -93q-53 -39 -135 -39h-89v257zM251 24v-25h251q107 0 173 38q75 42 75 119q0 84 -76 121q-61 29 -173 29h-88v76q0 35 28 47q26 11 97 11v25h-287v-25q59 0 80 -12q19 -12 19 -48v-282q0 -39 -19 -56q-23 -18 -80 -18z
" />
    <glyph glyph-name="uni044D" unicode="&#x44d;" 
d="M314 321h23q16 60 50 96q44 46 113 46q81 0 125 -61q42 -57 42 -146h-219v-25h219q0 -105 -42 -155q-42 -52 -131 -52q-63 1 -108 29q-31 20 -54 53q-11 17 -24 11t-3 -22q33 -54 67 -76q46 -29 135 -29q106 0 163 64q59 65 59 186q0 112 -57 181q-57 70 -149 70
q-37 0 -65 -7q-17 -4 -41 -15q-12 -6 -19 -8q-10 -3 -18 -3q-17 0 -21 7q-3 5 -1 20l2 8h-33z" />
    <glyph glyph-name="uni044E" unicode="&#x44e;" 
d="M140 25v-26h212v23q-29 0 -49 17q-21 17 -21 47v135h110q0 -89 64 -157q68 -72 170 -72q101 0 164 61q68 66 68 181q0 99 -68 167q-68 67 -167 67q-102 0 -167 -66q-62 -64 -64 -155h-110v131q0 30 19 46q21 16 58 16v25h-217v-25q33 0 55 -16t22 -46v-292
q-1 -31 -21 -46t-58 -15zM624 445q87 0 133 -67q40 -56 40 -145q0 -88 -40 -145q-46 -65 -133 -65q-86 0 -131 65q-38 57 -38 145q0 89 38 145q45 67 131 67z" />
    <glyph glyph-name="uni044F" unicode="&#x44f;" 
d="M264 22v-23h108l159 209h54v-137q0 -25 -19 -38q-20 -14 -52 -14v-20h205v20q-29 0 -49 15q-22 16 -22 43v301q0 33 20 49q22 18 62 15v23h-253q-68 0 -112 -37q-42 -36 -42 -89q0 -54 45 -90q44 -37 106 -37l-126 -148q-15 -19 -35 -29q-23 -13 -49 -13zM585 442v-211
h-96q-35 0 -67 25q-37 31 -37 76q0 59 49 85q46 25 151 25z" />
    <glyph glyph-name="uni0451" unicode="&#x451;" 
d="M691 114q-37 -47 -82 -72q-43 -24 -90 -24q-69 0 -113 53q-53 63 -53 189h346q0 103 -57 164q-55 60 -142 60q-91 0 -152 -72q-59 -72 -59 -177q0 -112 62 -184q61 -69 154 -69q68 0 120 35q42 28 81 84zM633 289h-280q4 69 50 121q44 49 97 49q56 0 91 -42
q37 -44 42 -128zM379 670q-23 0 -37 -13q-11 -14 -11 -32q0 -19 11 -33q14 -14 37 -14t37 14q12 14 12 33q0 18 -12 32q-14 13 -37 13zM625 670q-24 0 -38 -13q-12 -14 -12 -32q0 -19 12 -33q14 -14 38 -14q22 0 36 14q12 14 12 33q0 18 -12 32q-14 13 -36 13z" />
    <glyph glyph-name="uni2015" unicode="&#x2015;" 
d="M951 163v43l-23 12l6 115v411l-15 18l19 42h-167l-17 -9l-64 9h-373l-106 10l-6 -19l-191 7l11 -285l-20 -15l9 -90l4 -199l19 -34l-19 -54l-2 -196h271l55 23l39 -7v-16h553v163zM919 513h-49l-71 -8l-84 8l-115 -5l-109 6l-182 -12l-79 11l-133 -8l-59 8v73l111 3
l194 -3l91 3l100 -3l93 -10l80 10l120 3l92 -3v-73z" />
    <glyph glyph-name="quoteleft" unicode="&#x2018;" 
d="M739 163v43l-22 12l6 115v411l-15 18l18 42h-167l-17 -9l-64 9h-28l-106 10l-7 -19l-84 7l10 -285l-19 -15l9 -90l3 -199l19 -34l-19 -54l-2 -196h166l54 23l40 -7v-16h209v163zM622 574q0 -5 -3 -11q-1 -3 -5 -10q-3 -5 -4 -8q-1 -4 -1 -9q-12 -28 -46 -33
q-33 -3 -57 18q-2 2 -4 6q-1 3 -2 8q-1 9 -3 12q-4 5 -11 1q-2 3 -3 7q0 2 -1 7q0 5 -1 7q-1 4 -3 6l-2 7q-1 5 -2 9v14q6 9 7 16q0 4 -2 14l-1 14v9q0 5 1 8q2 4 6 11q0 4 2 7l3 6q4 6 6 10q4 8 6 18q2 12 8 19q4 4 11 10q4 3 6 4q3 3 5 6q8 8 16 14q10 6 21 10q4 0 11 1
q3 1 9 2q11 2 15 2q8 0 11 -5q5 -8 3 -16t-10 -13q-5 -7 -11 -10q-4 -2 -11 -4q-4 -1 -7 -2q-4 -2 -7 -8q-2 -4 -6 -9q-1 -3 -6 -8t-7 -8q-3 -6 -4 -12q-7 -12 -9 -23q-1 -6 0 -16l1 -7q12 3 25 1q12 -2 21 -7q2 -3 5 -4q1 -1 5 -2q6 -1 9 -4q6 -5 10 -22q1 -3 1 -7v-7
q0 -7 1 -10q1 -5 4 -9z" />
    <glyph glyph-name="quoteright" unicode="&#x2019;" 
d="M752 163v43l-20 12l5 115v411l-15 18l19 42h-167l-17 -9l-65 9h-28l-105 10l-7 -19l-84 7l9 -285l-19 -15l10 -90l2 -199l19 -34l-19 -54l-1 -196h165l56 23l39 -7v-16h208v163zM518 669q-7 -7 -8 -14q-1 -5 1 -15l3 -15l-1 -7q0 -5 -1 -8q-2 -5 -5 -13l-6 -12
q-3 -5 -5 -10q-4 -8 -6 -20q-3 -10 -9 -16q-4 -4 -12 -10q-4 -4 -6 -5q-3 -3 -4 -7q-8 -7 -17 -13l-20 -10q-5 1 -11 0q-3 -1 -10 -2q-11 -2 -15 -2q-7 0 -9 4q-5 8 -3 16q1 8 9 11q4 9 10 13q4 2 11 3l9 3q4 2 7 6q1 5 5 10q1 2 6 7q5 6 7 10q3 5 4 10q8 12 10 24q1 7 0 17
v4q-15 -1 -27 0q-12 2 -20 6q-3 4 -6 6q-2 1 -5 2q-7 1 -10 5q-5 6 -8 20q-1 4 -2 9v8v9q-1 6 -3 9q0 5 1 9q2 3 4 9q3 6 4 9q3 6 3 11q5 16 21 24q14 6 36 6q13 0 24 -4q12 -5 21 -14q1 -1 3 -4q1 -2 2 -7q3 -10 5 -13q4 -5 10 -1q1 -2 2 -6q0 -2 1 -7q1 -6 2 -7q1 -4 4 -7
z" />
    <glyph glyph-name="quotedblleft" unicode="&#x201c;" 
d="M733 163v43l-22 12l6 115v411l-15 18l18 42h-167l-16 -9l-65 9h-27l-107 10l-6 -19l-84 7l9 -285l-19 -15l10 -90l2 -199l19 -34l-19 -54l-1 -196h166l53 23l40 -7v-16h209v163zM644 567q0 -5 -3 -11q-1 -3 -4 -10q-3 -4 -4 -7q-1 -5 -1 -10q-7 -17 -22 -25
q-15 -6 -35 -6q-14 0 -25 4t-20 12q-2 2 -4 6q-1 3 -2 8q-3 10 -5 13q-4 4 -10 0q-2 2 -3 6q0 2 -1 7q-1 6 -2 8q-1 4 -3 6l-3 30q6 9 6 17q1 5 -1 14l-2 13v9q0 5 1 8q2 5 6 11l5 13q4 6 6 11q4 8 7 18q2 11 8 18q4 4 11 10q4 4 6 5l5 5q8 8 17 14q10 6 20 10q4 0 11 1
q3 1 10 2q11 2 14 2q8 0 11 -5q4 -8 2 -16t-9 -11q-5 -8 -10 -12q-4 -2 -11 -3l-9 -3q-4 -2 -7 -8q-2 -4 -5 -9l-6 -6q-4 -6 -6 -10q-3 -5 -4 -11q-9 -12 -11 -23q-1 -7 0 -17l1 -6q14 2 26 0q12 -1 21 -6q2 -3 5 -5q2 -1 6 -2q5 -1 8 -4q6 -6 10 -22q1 -3 1 -7v-9
q0 -5 1 -8q0 -5 3 -9zM457 567q0 -5 -3 -11q-1 -3 -4 -10q-3 -4 -4 -7q-1 -5 -1 -10q-8 -17 -24 -25q-13 -6 -34 -6q-13 0 -25 4q-11 4 -20 12q-3 2 -5 7q0 2 -2 8q-2 10 -4 12q-4 4 -10 0l-3 12q-1 6 -1 9q-2 4 -4 6l-4 30q6 9 7 16q1 5 -1 14l-2 14v9q0 5 1 8q2 5 6 11
l5 13q4 6 6 11q3 8 6 18q2 11 8 18q4 4 12 10q4 4 6 5l5 5q7 8 16 14t20 10q4 0 11 1q2 1 9 2q11 2 15 2q8 0 11 -5q5 -8 3 -16t-10 -11q-5 -8 -11 -12q-4 -2 -11 -3q-4 -2 -7 -3q-4 -2 -7 -8q-2 -4 -6 -9q-2 -3 -6 -7q-5 -6 -7 -9q-3 -5 -4 -11q-8 -12 -9 -23q-1 -6 0 -16
v-7q14 2 26 0q13 -1 21 -6q2 -3 5 -5q2 -1 5 -2q7 -1 10 -4q5 -6 10 -22l1 -14q-1 -5 0 -9q1 -6 4 -10z" />
    <glyph glyph-name="quotedblright" unicode="&#x201d;" 
d="M730 163v43l-22 12l6 115v411l-15 18l18 42h-167l-15 -9l-67 9h-27l-105 10l-6 -19l-85 7l9 -285l-19 -15l10 -90l3 -199l18 -34l-18 -54l-1 -196h165l54 23l39 -7v-16h209v163zM654 669q-7 -6 -8 -14q0 -4 2 -13l2 -17l-1 -5v-9q-2 -6 -5 -14l-6 -11q-4 -5 -6 -10
q-4 -8 -7 -21q-2 -10 -8 -16q-4 -4 -12 -10q-4 -4 -6 -5q-3 -3 -4 -7q-8 -7 -16 -13l-20 -10q-5 1 -12 0q-3 -1 -10 -2q-11 -2 -15 -2q-7 0 -9 4q-6 8 -4 16t10 11q4 9 10 13q4 2 11 3q5 2 8 3q4 2 8 6q1 5 5 10q2 2 6 7q5 6 7 10q3 5 5 10q6 12 8 24q1 6 0 16v5
q-14 -1 -26 0q-12 2 -19 6q-3 4 -6 6q-2 1 -6 2q-6 1 -10 5q-5 6 -8 20q-2 4 -2 7v8q0 7 -1 10q-1 6 -3 10q0 5 1 9q2 3 5 9t4 9q3 6 3 11q6 16 22 24q13 6 36 6q11 0 23 -4q12 -5 22 -14q2 -1 3 -4q0 -2 1 -8q2 -9 4 -12q4 -5 11 -1q1 -2 2 -6q1 -2 1 -7q1 -6 2 -7
q1 -4 4 -7zM466 669q-7 -7 -8 -14q0 -5 1 -15l3 -15l-1 -7q0 -5 -1 -8q-2 -5 -4 -13l-6 -11q-4 -6 -6 -10q-3 -9 -6 -21q-4 -10 -10 -16q-3 -4 -11 -10q-3 -4 -5 -5q-3 -3 -4 -7q-8 -7 -18 -13l-18 -10q-6 1 -12 0q-4 -1 -11 -2q-11 -2 -15 -2q-6 0 -8 4q-6 8 -4 16
q1 8 10 11q3 9 9 13q4 2 11 3l9 3q4 2 8 6q1 5 5 10q1 2 5 7q5 6 7 10q3 5 4 10q8 12 10 24q1 7 0 17v4q-15 -1 -26 0q-13 2 -21 6q-3 4 -6 6q-2 1 -5 2q-7 1 -9 5q-5 6 -8 20q-2 4 -2 7v8q0 7 -1 10q-1 6 -3 10q0 5 1 9q2 3 5 9t4 9q3 6 3 11q4 16 21 24q14 6 36 6
q12 0 24 -4q11 -5 21 -14q1 -1 2 -4q1 -2 3 -7q2 -10 4 -13q4 -5 11 -1q1 -2 2 -6q0 -2 1 -7q1 -6 1 -7q1 -4 4 -7z" />
    <glyph glyph-name="dagger" unicode="&#x2020;" 
d="M691 588q0 34 -35 47q-33 13 -69 0l-32 -8q-19 -5 -27 -7q-15 -4 -23 -4q0 11 4 30q3 11 10 37l6 20q11 41 -1 77q-13 39 -45 39q-33 0 -47 -39q-13 -36 -2 -77l6 -20q8 -25 11 -37q5 -20 5 -31q-12 0 -30 5q-10 3 -34 9l-17 5q-38 12 -71 -1q-35 -12 -35 -46t35 -46
q33 -12 71 -2l17 6l33 11q18 4 29 4q0 -20 -9 -43q-9 -19 -21 -37l-14 -17l-7 -7q-2 -3 -2 -5q0 -3 2 -7q2 -2 7 -10l14 -22q22 -37 31 -162q5 -71 6 -209l1 -87q3 -48 20 -48q18 0 21 48l1 87q0 138 5 209q8 125 32 162l13 21q5 8 7 11q3 4 3 7q0 2 -3 6q-2 1 -7 7l-13 16
q-14 18 -22 37q-9 24 -9 44q9 0 26 -4q10 -3 32 -10l23 -7q37 -11 69 1q35 13 35 47z" />
    <glyph glyph-name="daggerdbl" unicode="&#x2021;" 
d="M689 452q0 33 -35 47q-33 12 -68 0l-36 -9q-17 -5 -24 -7q-13 -3 -21 -3v85q10 0 27 -4q10 -3 33 -10l20 -7q37 -9 68 2q35 13 35 45q0 33 -35 47q-33 13 -68 1l-37 -10q-16 -4 -23 -5q-13 -4 -21 -4q0 12 5 34q4 13 13 42l3 9q10 41 -1 76q-13 38 -45 38t-46 -38
q-13 -36 -1 -76l6 -23q7 -23 10 -34q4 -19 4 -29q-9 0 -21 4q-8 1 -24 5l-35 10q-37 12 -69 -1q-34 -14 -34 -47q0 -32 34 -45q31 -11 69 -2l29 10q19 6 27 9q15 3 24 3v-86q-8 0 -20 3q-7 2 -22 6l-38 10q-37 12 -69 0q-34 -14 -34 -47t34 -46q31 -12 69 -1l33 10
q17 5 25 7q13 3 22 3q0 -18 -9 -41q-9 -20 -21 -37l-13 -15q-6 -6 -7 -8q-3 -3 -3 -6t3 -7q1 -2 7 -10l13 -20q23 -37 31 -118q5 -47 5 -140l1 -67q3 -48 20 -48q18 0 21 48v67q0 93 4 140q8 81 33 118l12 19q6 8 8 11q2 4 2 7t-2 6q-2 2 -7 8l-13 15q-14 18 -22 37
q-9 23 -9 42q10 0 27 -4q9 -3 33 -9l20 -7q37 -10 68 2q35 12 35 45z" />
    <glyph glyph-name="twodotenleader" unicode="&#x2025;" 
d="M951 163v43l-23 12l6 115v411l-15 18l19 42h-167l-17 -9l-64 9h-373l-106 10l-6 -19l-191 7l11 -285l-20 -15l9 -90l4 -199l19 -34l-19 -54l-2 -196h271l55 23l39 -7v-16h553v163zM794 549v-7q1 -12 -1 -18q-1 -9 -8 -14l-11 -10l-8 -8q-4 -4 -8 -7q-8 -1 -12 -4
q-3 -2 -6 -6q-2 -4 -4 -5q-3 -2 -8 -2q-12 0 -25 4q-15 3 -25 7q-4 2 -5 5q-1 2 -3 5q-2 7 -4 11q-5 7 -16 16q-5 8 -7 17q-2 8 -2 16q0 4 1 8q0 2 2 6q3 5 4 9q2 6 2 12q1 4 4 6q2 2 5 4q5 4 8 7q3 4 5 10q4 4 9 7q4 2 10 4q13 4 30 3q30 -2 16 -2l21 -6l21 -12l2 -12
q13 -10 16 -18q2 -5 -1 -14zM314 549v-7q1 -12 -1 -18q-2 -9 -10 -14l-8 -7q-5 -6 -8 -9q-5 -5 -10 -9q-8 -1 -13 -4q-3 -2 -6 -6q-2 -4 -4 -5q-3 -2 -7 -2q-11 0 -26 4q-13 3 -23 7q-4 2 -6 5l-3 6q-2 6 -5 10q-6 8 -17 16q-3 9 -4 17q-2 9 -2 16q0 4 1 8q0 2 2 6q3 5 3 9
q2 6 2 12q1 4 3 6t6 5q5 3 7 6q4 4 6 10q10 9 21 13q10 2 25 2l19 -3l21 -6l20 -12l3 -12q14 -10 17 -18q2 -5 -1 -14z" />
    <glyph glyph-name="ellipsis" unicode="&#x2026;" 
d="M951 163v43l-23 12l6 115v411l-15 18l19 42h-167l-17 -9l-64 9h-373l-106 10l-6 -19l-191 7l11 -285l-20 -15l9 -90l4 -199l19 -34l-19 -54l-2 -196h271l55 23l39 -7v-16h553v163zM875 549v-7q1 -12 0 -18q-2 -9 -10 -14l-8 -7l-9 -9q-5 -5 -10 -9q-7 -1 -12 -4
q-3 -2 -5 -6q-3 -4 -4 -5q-3 -2 -8 -2q-12 0 -26 4q-14 3 -24 7q-4 2 -6 5q-1 2 -2 6q-2 6 -5 10q-5 8 -16 16q-4 8 -6 17t-2 16q0 4 1 8q0 2 2 6q3 5 4 9q1 6 1 12q1 4 4 6q2 2 5 4q5 4 8 7q3 4 5 10q10 9 22 13q10 2 24 2l20 -3l20 -6l22 -12l2 -12q13 -10 16 -18
q1 -5 -1 -14zM556 549v-7q1 -12 -1 -18q-2 -9 -10 -14l-7 -7q-6 -6 -8 -9q-6 -5 -11 -9q-8 -1 -13 -4q-3 -2 -5 -6t-3 -5q-3 -2 -8 -2q-12 0 -27 4q-13 3 -23 7q-4 2 -5 5q-1 1 -3 5q-2 7 -5 11q-6 7 -16 16q-4 8 -6 17t-2 16q0 4 1 8q0 2 2 6q3 5 4 9q2 6 2 12q1 4 4 6
q1 2 4 4q5 4 7 7q4 4 7 10q9 9 21 13q10 2 25 2l19 -3l20 -6l22 -12l1 -12q14 -10 17 -18q2 -5 -1 -14zM236 549v-7q1 -12 -1 -18q-2 -9 -10 -14l-6 -6l-9 -9q-5 -6 -10 -10q-8 -1 -13 -4q-3 -2 -6 -6t-4 -5q-3 -2 -8 -2q-11 0 -25 4q-15 3 -23 7q-4 2 -6 5l-3 6q-2 6 -5 10
q-6 8 -17 16q-4 8 -6 17q-1 9 -1 16v8l3 6q3 5 4 9q1 6 1 12q1 4 4 6q2 2 5 4q5 4 8 7q4 4 6 10q10 9 21 13q10 2 25 2l18 -3l22 -6l19 -12l4 -12q14 -10 16 -18q2 -5 -1 -14z" />
    <glyph glyph-name="perthousand" unicode="&#x2030;" 
d="M836 292q-41 29 -98 7q-58 -21 -99 -81q-42 -58 -43 -119q0 -61 41 -91q39 -27 97 -6q58 23 100 81q41 59 41 121q0 61 -39 88zM342 708q-42 28 -99 6q-58 -21 -99 -81q-42 -58 -42 -119q-1 -61 40 -91q40 -27 98 -6q58 22 99 81q40 59 41 121q1 61 -38 89zM698 728h-76
l-551 -740h76zM554 293q-41 30 -98 7q-58 -21 -99 -81q-42 -58 -42 -119q-1 -61 40 -91q40 -26 98 -5q57 22 100 79q40 60 40 122q1 61 -39 88zM803 246q22 -16 18 -54q-5 -38 -31 -77q-29 -40 -63 -57q-35 -17 -57 -2q-23 16 -19 54q5 38 33 77q27 41 62 58t57 1zM308 661
q23 -16 18 -54q-4 -38 -32 -77q-28 -40 -62 -57t-56 -2q-23 16 -19 54q5 38 33 77q27 40 61 58q35 17 57 1zM521 247q21 -16 18 -54q-4 -37 -32 -77q-28 -39 -62 -57q-34 -17 -56 -2q-23 16 -19 54t32 77q28 41 62 58t57 1z" />
    <glyph glyph-name="minute" unicode="&#x2032;" 
d="M718 163v43l-21 12l6 115v411l-15 18l19 42h-168l-16 -9l-65 9h-29l-104 10l-7 -19l-84 7l9 -285l-19 -15l10 -90l2 -199l18 -34l-18 -54l-1 -196h165l55 23l39 -7v-16h209v163zM474 770l-27 -36l-19 -45l-43 -48l-3 -19l-17 -29l-25 -55l-13 -12h-48l10 28l3 37l21 23
l20 43l4 23l38 90l23 3l54 -3h22z" />
    <glyph glyph-name="second" unicode="&#x2033;" 
d="M730 163v43l-22 12l6 115v411l-15 18l18 42h-167l-15 -9l-67 9h-27l-105 10l-6 -19l-85 7l9 -285l-19 -15l10 -90l3 -199l18 -34l-18 -54l-1 -196h165l54 23l39 -7v-16h209v163zM643 760l-27 -36l-18 -45l-18 -17l-26 -30l-4 -20l-16 -29l-25 -54l-13 -12h-49l11 27l3 39
l20 21l21 43l3 24l21 47l16 42l25 3l31 -3h23h22zM497 760l-27 -36l-18 -45l-18 -17l-25 -30l-4 -20l-17 -29l-24 -54l-15 -12h-48l11 27l3 39l21 21l21 43l3 24l37 89l24 3l31 -3h22h23z" />
    <glyph glyph-name="uni203B" unicode="&#x203b;" 
d="M951 163v43l-23 12l6 115v411l-15 18l19 42h-167l-17 -9l-64 9h-373l-106 10l-6 -19l-191 7l11 -285l-20 -15l9 -90l4 -199l19 -34l-19 -54l-2 -196h271l55 23l39 -7v-16h553v163zM813 417v-8q0 -11 -1 -16q-2 -9 -9 -13l-5 -5q-5 -5 -7 -8q-5 -5 -10 -9q-8 0 -12 -3
q-3 -2 -6 -6q-2 -3 -4 -4q-3 -1 -7 -1q-10 0 -22 3q-14 2 -22 6q-2 2 -4 5q-1 1 -2 5q-2 6 -5 9q-5 6 -14 13q-4 9 -6 16q-1 8 -1 16q0 3 1 6q0 2 2 6t3 8q2 5 2 11q1 3 3 6q2 1 4 3q5 3 7 5q3 4 5 9q7 7 18 11q11 3 24 3l16 -4l37 -15l2 -11q13 -9 16 -17q1 -4 -1 -12z
M545 680v-8q0 -10 -1 -15q-2 -8 -7 -12l-8 -8q-5 -6 -8 -8q-4 -4 -8 -6q-8 0 -12 -3q-2 -2 -5 -6q-2 -3 -4 -4q-3 -1 -7 -1q-10 0 -23 3q-13 2 -21 5l-5 5l-2 4q-2 7 -5 11q-5 7 -13 14q-4 8 -6 15q-1 7 -1 14q0 4 1 7q0 2 2 6q2 5 3 8q2 6 2 11q0 3 2 6q2 1 5 3l6 6
q3 4 5 9q8 7 19 10t23 3l17 -2l19 -5l18 -12l3 -12q11 -9 14 -15q1 -4 -1 -11zM786 690l-34 -46l-36 -35l-50 -60l-75 -75l-80 -60l62 -47l46 -60l59 -45l29 -43l41 -30l37 -48l-35 -30l-28 27l-56 30l-28 55l-96 93l-64 57l-56 -46l-28 -44l-58 -41l-18 -33l-53 -38
l-11 -33l-48 -27l-34 30l49 49l82 99l58 44l42 40l42 41l-45 39l-63 60l-34 42l-49 28l-81 107l35 30l35 -24l11 -35l41 -28l63 -47l64 -65l56 -75l115 109l50 70l60 55l49 40zM547 155v-6q0 -12 -1 -17q-2 -8 -8 -13l-5 -5q-5 -6 -8 -9q-5 -5 -10 -9q-8 0 -12 -3
q-3 -2 -4 -6l-4 -4h-8q-11 0 -23 2q-13 2 -21 6q-3 2 -5 5q-1 1 -2 5q-2 5 -5 9q-5 7 -14 14q-3 8 -5 15q-1 8 -1 16q0 4 1 7q0 1 2 5t3 7q1 6 1 12q4 10 12 17q5 4 20 13l5 2q4 4 23 3q35 -2 19 -2l18 -5l19 -9l2 -12q12 -9 14 -17q1 -4 -1 -11zM281 417v-9q1 -11 0 -16
q-2 -8 -9 -12l-7 -5q-5 -6 -8 -9l-8 -8q-8 0 -12 -3q-3 -2 -5 -6l-4 -4q-3 -1 -7 -1q-11 0 -22 3q-14 2 -22 6q-3 2 -5 5q-1 1 -2 5q-2 5 -4 9q-5 6 -15 13q-4 9 -6 16q-1 8 -1 16q0 3 1 6q0 1 2 5q2 5 3 8q2 6 2 12q1 3 3 6q2 1 5 3q5 3 6 5q3 4 5 9q7 7 18 11q11 3 23 3
l18 -4l19 -5l18 -10l2 -11q13 -9 15 -17q1 -4 -1 -12z" />
    <glyph glyph-name="uni2074" unicode="&#x2074;" 
d="M92 507h166v-48q0 -18 -16 -25q-10 -4 -35 -5v-21h150v22q-24 0 -32 3q-15 6 -15 25v49h68v24h-68v283h-29l-189 -284v-23zM258 531h-131l131 193v-193z" />
    <glyph glyph-name="uni207F" unicode="&#x207f;" 
d="M64 408h130v19q-19 1 -28 5q-12 7 -11 23v186q20 32 50 49q28 16 55 17q27 2 46 -12q20 -15 24 -41v-200q0 -15 -13 -21q-10 -5 -33 -5v-20h141l-1 18q-22 2 -32 8q-11 7 -11 20v209q-6 39 -34 60q-25 21 -62 22q-38 0 -72 -19q-37 -20 -58 -57v70l-97 -35l3 -12
q16 0 29 -4q14 -5 15 -12v-222q0 -15 -9 -21t-32 -6v-19z" />
    <glyph glyph-name="uni2081" unicode="&#x2081;" 
d="M157 -89h173v21q-29 0 -43 7q-16 8 -16 29v358h-41q0 -19 -23 -36q-22 -17 -54 -17v-22h65v-280q0 -20 -19 -30q-14 -7 -42 -7v-23z" />
    <glyph glyph-name="uni2082" unicode="&#x2082;" 
d="M119 -91h245l29 107l-16 6q-14 -37 -29 -52q-15 -16 -39 -16h-152q17 30 50 61q20 18 63 50q55 42 75 65q34 37 34 77q0 51 -40 80q-38 29 -97 29q-52 0 -91 -32q-37 -32 -34 -71q1 -19 14 -29q11 -9 25 -8q15 1 26 11q10 11 10 25q0 8 -1 14q-2 4 -6 10t-5 10q-1 6 4 15
q8 19 30 27q21 9 44 5q25 -5 40 -23q18 -22 18 -57q0 -42 -27 -78q-15 -21 -60 -62q-39 -36 -58 -58q-33 -36 -52 -77v-29z" />
    <glyph glyph-name="uni2083" unicode="&#x2083;" 
d="M189 136v-28q67 2 96 -12q42 -19 42 -72q0 -54 -28 -79q-23 -21 -65 -21q-32 0 -42 22q-5 12 -5 34l1 3q0 21 -12 31q-10 10 -24 10q-15 -1 -26 -12q-10 -10 -10 -30q0 -39 38 -60q33 -19 82 -19q66 0 107 27q45 29 45 84q0 45 -34 77q-29 29 -70 32q38 5 63 28
q30 26 30 71t-38 73q-33 26 -76 26q-50 0 -84 -15q-37 -17 -48 -50q-11 -27 2 -42q10 -14 25 -13q27 5 35 19q3 9 1 29v12q0 20 18 29q16 9 46 10q25 0 43 -20t18 -55q0 -47 -25 -69q-21 -20 -67 -20h-38z" />
    <glyph glyph-name="uni2084" unicode="&#x2084;" 
d="M103 8h166v-58q0 -10 -15 -15q-12 -4 -36 -5v-20h150v22q-24 0 -32 2q-15 4 -15 15v59h69v24h-69v283h-29l-189 -284v-23zM269 32h-131l131 193v-193z" />
    <glyph glyph-name="Euro" unicode="&#x20ac;" 
d="M0 0z" />
    <glyph glyph-name="uni2103" unicode="&#x2103;" 
d="M951 163v43l-23 12l6 115v411l-15 18l19 42h-167l-17 -9l-64 9h-373l-106 10l-6 -19l-191 7l11 -285l-20 -15l9 -90l4 -199l19 -34l-19 -54l-2 -196h271l55 23l39 -7v-16h553v163zM815 294q-4 -38 -14 -69q-10 -32 -28 -58q-16 -21 -33 -37q-19 -16 -41 -28
q-47 -25 -116 -31q-66 -5 -120 12q-23 8 -42 20q-11 8 -39 29l-14 11q-26 24 -43 58q-18 30 -29 68q-16 21 -20 45q-2 16 1 47l3 34q0 40 6 76q6 38 18 70q11 29 27 53q15 27 35 45q9 11 24 20q8 5 27 14l22 11q12 7 23 14q39 13 91 14q49 1 94 -10q12 -9 26 -17
q10 -4 29 -12q17 -6 26 -11q14 -7 23 -17q27 -25 41 -60q15 -34 18 -77h-74q-5 36 -19 63q-14 26 -38 44q-45 34 -114 35q-70 1 -119 -34q-23 -15 -39 -35q-18 -22 -29 -49q-25 -32 -25 -116q-1 -81 19 -141q3 -30 23 -57q13 -17 39 -39q42 -35 108 -42q65 -7 112 16
q24 4 39 18q9 9 19 33l8 13q8 16 14 35q5 20 7 42h74zM305 671q-4 -6 -7 -13q-4 -7 -8 -13q-12 -5 -19 -10t-13 -12q-16 -6 -35 -7q-20 -1 -36 4q-10 3 -18 7q-7 4 -14 11q-3 6 -8 13q-3 4 -10 12l-3 4q-9 18 -7 38q1 19 14 37q7 2 11 6q2 2 6 7l8 9q18 13 41 16q24 4 44 -4
q3 0 5 -2q2 -1 3 -5q2 -5 5 -6q4 -3 15 -2q5 -4 10 -10q3 -3 8 -10q12 -17 13 -36q1 -17 -5 -34zM262 676q5 12 6 26q0 16 -9 22q-4 5 -8 9q-3 4 -7 5q-11 6 -24 5q-13 0 -23 -6l-7 -2q-9 -2 -11 -4q-5 -3 1 -7q-4 -6 -6 -11q-2 -7 -2 -14t1 -14q2 -7 5 -12q5 -10 16 -16
t23 -6h7q7 -2 10 -1q5 2 9 8q7 5 10 8q5 4 9 10z" />
    <glyph glyph-name="uni2109" unicode="&#x2109;" 
d="M951 163v43l-23 12l6 115v411l-15 18l19 42h-167l-17 -9l-64 9h-373l-106 10l-6 -19l-191 7l11 -285l-20 -15l9 -90l4 -199l19 -34l-19 -54l-2 -196h271l55 23l39 -7v-16h553v163zM794 619l-64 -11l-100 11l-57 -14l-48 14h-62l10 -32l-10 -31l13 -36l-13 -24v-49l46 4
l42 -4l64 10l73 -4l74 -6v-80h-26l-48 -7l-55 7h-94l-30 -4l-46 4l13 -28l-9 -74v-66l-4 -75h-81l-18 20l18 64l-9 34l9 79l-9 59l9 71l-16 42l16 78l-9 63l9 66l46 8l48 -8l100 5l82 -5l50 5l44 -5h42v-81zM334 698l-2 -16l-1 -11q-3 -5 -8 -13q-3 -6 -8 -13
q-12 -4 -19 -10q-5 -4 -13 -12q-6 -2 -12 -3q-4 -1 -11 -2l-18 -3q-8 0 -16 2q-7 1 -14 3q-9 3 -18 7q-8 4 -15 11q-4 7 -9 15q-3 5 -10 14q-4 8 -6 15q-1 8 -1 16q0 11 3 22q3 12 11 22q5 2 9 5q2 3 6 7l8 10l13 6q5 2 7 3q5 1 8 3q8 3 14 4q8 1 16 1q6 0 14 -1q7 -1 14 -4
q3 0 6 -2q1 -1 2 -5q3 -5 5 -6q4 -3 14 -2q5 -4 11 -10q4 -4 9 -10q8 -9 10 -22q2 -11 1 -21zM292 699q0 13 -7 24q-6 10 -16 15q-11 6 -24 5q-14 0 -23 -6l-7 -2q-8 -2 -10 -4q-5 -3 1 -7q-8 -10 -8 -25q-1 -15 6 -26q5 -9 15 -15q10 -7 23 -7h7q6 -2 9 -1q6 2 10 8
q10 8 16 17q8 12 8 24z" />
    <glyph glyph-name="uni2113" unicode="&#x2113;" 
d="M416 188l-87 -69q-23 -18 -18 -25q4 -6 23 5q25 18 48 35q18 16 40 33q19 -96 58 -141q35 -39 77 -33q39 5 72 45q32 40 43 94q4 30 -5 29t-16 -31q-25 -76 -58 -102q-30 -24 -60 -4q-28 18 -49 67q-19 48 -22 107q85 86 130 170q54 99 54 201q0 97 -31 134
q-24 31 -62 16q-35 -11 -67 -59q-30 -48 -50 -121q-21 -76 -27 -164q-6 -93 7 -187zM457 222l-1 3q-9 166 17 309q29 168 91 174q25 1 34 -34q8 -25 8 -85q0 -101 -50 -212q-42 -94 -99 -155z" />
    <glyph glyph-name="uni2116" unicode="&#x2116;" 
d="M951 163v43l-23 12l6 115v411l-15 18l19 42h-167l-17 -9l-64 9h-373l-106 10l-6 -19l-191 7l11 -285l-20 -15l9 -90l4 -199l19 -34l-19 -54l-2 -196h271l55 23l39 -7v-16h553v163zM906 123q0 -22 -13 -37q-14 -16 -29 -9l-17 4q-14 2 -19 5q-9 6 -9 19q0 11 3 26
q5 18 10 23q3 8 12 12q8 2 20 2q5 -10 9 -11q2 0 4 5q2 3 3 3q1 2 3 1q10 -7 16 -17q7 -12 7 -26zM837 298q0 -33 -4 -62q-6 -31 -16 -57q-21 -47 -56 -72q-39 -29 -96 -29q-17 0 -34 5q-10 4 -28 13q-14 6 -20 9q-10 4 -19 5q-18 15 -30 30q-14 19 -23 39q-2 10 -4 23
q-2 6 -6 22q-5 24 -7 36q-3 22 -3 38q0 66 18 115q22 53 64 80q8 0 18 4q6 3 20 8q16 7 26 10q15 5 30 5q51 0 89 -25q35 -23 55 -64q7 -14 11 -34q3 -12 6 -39q2 -19 4 -28q1 -17 5 -32zM474 593l-14 -41v-74l8 -124l-11 -118l3 -152h-75l-29 69l-33 57l-36 100l-37 44
l-19 80l-75 168l8 -142l3 -100l-11 -40l8 -104l-5 -49l-3 -83h-73l-2 69l2 63l-6 48l6 90l-8 132l8 155v120l41 7l35 -7l39 -104l50 -75l28 -74l29 -77l51 -103l33 -84l2 107l-11 64l4 94l-4 98l9 55v99l33 5l38 -5v-74zM769 298q6 37 -4 71q-9 28 -28 49q-5 19 -28 26
q-14 5 -43 5q-30 7 -45 0q-10 -5 -22 -22l-6 -9q-22 -19 -28 -51q-4 -20 -4 -69q-14 -37 -1 -69q8 -19 31 -48l1 -1q10 -13 32 -22q21 -10 41 -10q32 0 52 12q23 12 32 37q5 12 9 32q2 11 6 36z" />
    <glyph glyph-name="uni2121" unicode="&#x2121;" 
d="M951 163v43l-23 12l6 115v411l-15 18l19 42h-167l-17 -9l-64 9h-373l-106 10l-6 -19l-191 7l11 -285l-20 -15l9 -90l4 -199l19 -34l-19 -54l-2 -196h271l55 23l39 -7v-16h553v163zM845 352l-7 -98l5 -66l-5 -119h-73l-12 50l12 139v140l-7 250l7 97h73l7 -94l-7 -182z
M703 258l-32 -1l-75 -8l-47 26l-42 -17h-71q1 -23 7 -45t15 -40q10 -26 31 -35q14 -7 49 -7h7q27 0 37 3q17 4 23 20q9 9 17 23q6 15 11 32h69q-5 -28 -18 -54q-13 -27 -31 -47q-17 -25 -48 -36q-25 -10 -67 -10q-95 0 -137 69q-33 54 -33 147q5 16 7 35q2 11 4 31
q3 21 4 31q3 15 9 26q11 24 26 43q16 18 37 30q7 0 18 4q6 2 19 7q14 6 22 8q12 3 24 3q47 0 83 -21q31 -18 51 -55q18 -32 26 -79q5 -37 5 -83zM468 667h-63l-54 -13l-47 13v-62l10 -84l-10 -120l7 -85l-7 -87l5 -87l-5 -73h-75l-11 82l11 49v106l-5 78l5 79l16 53l-21 37
l5 114h-59l-54 -10l-54 10v78h63l54 -20l38 24l79 -4l104 4l68 -4v-78zM630 316q-4 31 -11 54q-8 22 -21 36q-14 11 -27 17q-15 5 -33 5q-8 0 -15 -4q-4 -2 -11 -8q-9 -8 -13 -10q-9 -4 -19 0q-17 -14 -26 -40q-8 -19 -14 -50h85l48 13z" />
    <glyph glyph-name="trademark" unicode="&#x2122;" 
d="M951 163v43l-23 12l6 115v411l-15 18l19 42h-167l-17 -9l-64 9h-373l-106 10l-6 -19l-191 7l11 -285l-20 -15l9 -90l4 -199l19 -34l-19 -54l-2 -196h271l55 23l39 -7v-16h553v163zM854 685l-17 -102l15 -69l-15 -79l5 -121l2 -81l-7 -89v-65h-67l-12 20l12 86l-12 45
l6 102l6 141l-33 -152l-23 -91v-57l-33 -94h-62l-20 88l-32 82l-9 96l-24 103l3 -155l-7 -48l4 -55l-4 -111h-68l-14 86l5 96l9 184l-9 109l9 62v89v50l31 4l41 -4l24 -79l11 -85l42 -166l15 -87l24 -105l24 143l28 116l24 83l21 130l19 50h71zM430 691l-53 -15l-56 17
l-35 -2l3 -84l6 -333l-9 -195h-74l7 20l-19 106l11 116l-14 102l10 164l5 95h-50l-45 9l-49 -12v76l29 -19l20 23l114 -4l119 10l80 -10v-64z" />
    <glyph glyph-name="Omega" unicode="&#x2126;" 
d="M176 196v-160q0 -19 9 -29q8 -8 22 -8h215q16 0 27 9q12 10 12 28v150q0 9 -13 18q-7 5 -30 15q-67 32 -98 67q-53 61 -53 166q0 118 71 185q63 59 157 59q93 0 156 -62q72 -69 72 -194q0 -102 -53 -160q-30 -32 -94 -61q-24 -10 -32 -15q-11 -8 -11 -19v-146
q0 -19 12 -30q12 -10 30 -10h204q21 0 30 12q9 11 9 38v147h-25v-125q0 -13 -5 -17q-4 -2 -17 -2h-195q-10 0 -14 2q-2 3 -2 10v118q0 4 8 9q5 3 24 10q78 30 118 67q73 66 73 172q0 132 -92 210q-83 69 -199 69t-197 -66q-89 -75 -89 -206q0 -114 74 -181q41 -37 121 -66
q17 -6 23 -9q9 -4 9 -8v-119q0 -8 -5 -11q-4 -1 -13 -1h-198q-11 -1 -13 0q-3 3 -3 13v131h-25z" />
    <glyph glyph-name="uni212B" unicode="&#x212b;" 
d="M588 708q0 46 -33 79q-32 32 -76 32q-46 0 -78 -32q-32 -33 -32 -79q0 -44 32 -77t78 -33q44 0 76 33q33 33 33 77zM786 -14l-257 591h-101l-256 -591h100l70 157h274l69 -157h101zM530 708q0 -21 -16 -36q-14 -14 -35 -14q-22 0 -37 14q-14 15 -14 36q0 22 14 37
q15 14 37 14q21 0 35 -14q16 -15 16 -37zM581 224h-205l103 230z" />
    <glyph glyph-name="onethird" unicode="&#x2153;" 
d="M134 352h211v21q-28 0 -45 4q-31 9 -31 32v364l-20 8q-22 -15 -57 -29q-27 -10 -53 -17l9 -18q33 7 51 7q19 0 19 -8v-304q0 -23 -26 -32q-18 -6 -58 -6v-22zM112 -58l22 -19l709 828l-23 21zM662 148l1 -21q67 0 99 -17q46 -24 46 -87q0 -71 -65 -95q-59 -21 -117 10
q-29 17 -32 32q-2 9 7 27q4 5 6 9q2 6 3 10q2 20 -10 30q-10 10 -26 9q-16 0 -27 -11q-13 -11 -12 -32q2 -49 59 -82q49 -28 105 -28q69 0 115 33q49 35 49 92q0 48 -34 78q-31 29 -78 33q42 6 69 39q25 30 25 67q0 57 -48 86q-39 24 -94 24q-70 0 -112 -29q-39 -29 -39 -73
q0 -23 11 -36q9 -10 23 -11q13 -1 23 6q12 8 17 19q4 13 1 21q-1 5 -9 13q-6 7 -8 11q-3 7 -3 15q-1 19 26 32q26 13 63 13q50 0 75 -30q22 -23 22 -62q0 -54 -39 -77q-30 -18 -92 -18z" />
    <glyph glyph-name="twothirds" unicode="&#x2154;" 
d="M119 357h284l26 113l-16 6q-14 -46 -30 -64q-15 -16 -38 -16h-193q25 50 73 89q28 24 87 58q56 32 76 51q34 32 34 73q0 57 -48 92q-42 32 -104 32q-70 0 -112 -36q-37 -31 -41 -80q0 -20 10 -32q9 -11 24 -13q12 -2 23 5q12 7 14 19q1 11 -2 18q-2 4 -8 10t-9 11
q-4 9 -2 22q1 24 33 42q30 15 61 15q52 0 80 -33q25 -26 25 -65q0 -37 -31 -70q-17 -21 -69 -57q-57 -40 -83 -66q-44 -45 -64 -98v-26zM662 145l1 -21q66 0 99 -16q46 -23 46 -80q0 -77 -65 -102q-58 -23 -117 9q-29 17 -32 32q-2 9 7 27q4 5 6 9q2 6 3 10q2 19 -10 29
q-10 10 -26 10q-16 -1 -27 -12q-13 -11 -12 -32q2 -49 59 -81q49 -28 105 -28q68 0 114 33q50 35 50 92q0 47 -34 78q-30 29 -77 33q43 6 68 35q26 30 25 71q0 56 -50 85q-40 24 -92 24q-69 0 -109 -28q-39 -28 -43 -74q0 -22 11 -35q8 -10 23 -12q12 0 24 6q12 8 17 19
q4 13 0 21q-1 5 -9 14q-7 6 -9 11q-5 6 -5 14q4 15 32 30q31 15 65 15q47 0 72 -33q21 -26 21 -62q0 -54 -39 -75q-28 -16 -92 -16zM118 -71l24 -17l707 825l-24 20z" />
    <glyph glyph-name="oneeighth" unicode="&#x215b;" 
d="M113 -62l24 -18l706 827l-23 19zM134 354h211v21q-28 0 -45 4q-31 9 -31 32v364l-20 7q-22 -15 -57 -29q-27 -10 -53 -17l9 -18q32 8 51 8t19 -8v-304q0 -24 -26 -32q-18 -6 -58 -6v-22zM651 133l-4 -2q-48 -19 -74 -45q-28 -30 -28 -66q0 -48 44 -82q48 -36 122 -36
q79 0 123 28q50 31 50 95q0 44 -34 75q-30 29 -78 40q38 9 62 29q34 28 34 73q0 42 -40 72q-42 34 -110 34q-64 0 -107 -27q-46 -29 -46 -83q0 -41 30 -72q25 -26 56 -33zM672 123h7l8 -1q65 -14 93 -30q52 -26 52 -73q0 -48 -35 -74q-31 -25 -84 -25q-49 0 -80 22
q-35 25 -35 72q0 45 19 73q18 23 55 36zM746 152h-10q-54 10 -82 23q-46 26 -46 73q0 37 34 61q33 23 76 23q55 0 81 -27q23 -23 23 -62q0 -43 -24 -66q-18 -16 -52 -25z" />
    <glyph glyph-name="threeeighths" unicode="&#x215c;" 
d="M234 576l1 -21q66 0 98 -16q46 -22 46 -80q0 -77 -65 -103q-58 -22 -117 10q-29 17 -32 32q-1 9 7 27q4 5 6 9q2 6 3 10q3 20 -9 30q-9 10 -26 9q-17 0 -28 -11q-13 -12 -12 -33q0 -49 57 -81q49 -28 107 -28q69 0 115 33q49 35 49 92q0 47 -34 78q-30 29 -77 33
q32 2 61 33q33 32 33 73q0 56 -52 85q-40 24 -95 24q-68 0 -109 -29q-39 -29 -39 -73q0 -23 10 -36q9 -10 23 -11q12 -1 25 6q12 8 17 19q3 13 1 21q-1 5 -8 13q-6 7 -8 11q-4 7 -4 16q0 14 24 29q26 15 55 15q54 0 83 -32q25 -24 25 -57q0 -56 -39 -79q-30 -18 -92 -18z
M145 -57l24 -18l707 826l-24 20zM767 154h-9q-55 10 -82 23q-46 25 -46 72q0 38 34 62q32 23 75 23q55 0 81 -27q24 -23 24 -62q0 -43 -24 -66q-19 -17 -53 -25zM692 125l9 -1l5 -1q64 -13 94 -28q54 -26 54 -75q-1 -47 -35 -73q-32 -25 -86 -25q-49 0 -80 22q-35 25 -35 71
t19 73q18 24 55 37zM672 135l-4 -2q-48 -19 -74 -46q-29 -29 -29 -66q0 -48 46 -82q48 -35 120 -35q80 0 125 27q50 31 50 95q0 45 -34 76q-30 29 -79 40q39 9 62 29q35 27 35 72q0 42 -40 73q-42 34 -110 34q-65 0 -107 -27q-46 -29 -46 -83q0 -41 30 -72q25 -26 55 -33z
" />
    <glyph glyph-name="fiveeighths" unicode="&#x215d;" 
d="M129 774v-220l15 -11q22 24 58 41q38 17 73 17q38 0 70 -34q33 -35 33 -81q0 -62 -39 -96q-32 -29 -74 -29q-31 0 -49 7q-25 7 -38 25q-9 12 -9 21q0 5 5 13q3 7 4 11q3 6 3 13q0 18 -13 29q-11 8 -26 7q-16 0 -27 -10q-11 -13 -11 -33q0 -43 51 -75q47 -28 104 -28
q65 0 117 36q59 41 59 108q0 60 -46 98q-45 39 -114 39q-38 0 -71 -14q-23 -11 -50 -32v154h216q17 0 32 8q11 7 18 19q6 10 6 17q-1 8 -7 6q-15 -3 -32 -5q-17 -1 -36 -1h-222zM138 -60l24 -17l707 826l-25 20zM752 154h-10q-51 10 -82 25q-46 26 -46 70q0 38 34 62
q33 23 76 23q55 0 81 -27q23 -23 23 -62q0 -43 -24 -66q-18 -17 -52 -25zM678 125l7 -1h4q66 -13 95 -29q54 -26 54 -75q0 -47 -35 -73q-31 -25 -84 -25q-49 0 -80 22q-35 25 -35 71t19 73q18 24 55 37zM657 135l-4 -2q-48 -19 -74 -46q-28 -29 -28 -66q0 -48 44 -82
q48 -35 122 -35q79 0 123 27q50 31 50 95q0 45 -34 76q-29 29 -78 40q38 9 62 29q34 27 34 72q0 42 -40 73q-42 34 -110 34q-64 0 -107 -27q-46 -29 -46 -83q0 -40 31 -72q26 -27 55 -33z" />
    <glyph glyph-name="seveneighths" unicode="&#x215e;" 
d="M120 -58l24 -18l706 826l-23 20zM463 773h-291l-34 -123l12 -5l51 87h229l-54 -80q-55 -81 -76 -123q-34 -70 -40 -144q-1 -20 10 -31q9 -11 23 -11t24 9q12 10 12 27q-7 85 25 170q19 49 65 127q24 38 32 55q12 25 12 42zM755 152h-9q-54 10 -82 23q-46 24 -46 67
q0 41 33 67q31 23 71 23q58 0 86 -27q24 -23 24 -62q0 -43 -24 -66q-19 -16 -53 -25zM681 123h8l18 -4q60 -15 88 -30q47 -25 47 -70q-1 -48 -35 -74q-32 -25 -85 -25q-49 0 -80 22q-35 25 -35 72q0 45 19 73q18 23 55 36zM660 133l-5 -2q-47 -19 -72 -45q-29 -30 -29 -66
q0 -48 45 -82q48 -36 121 -36q80 0 124 28q50 31 50 95q0 44 -34 75q-30 29 -79 40q39 9 62 29q35 28 35 73q0 46 -40 75q-41 31 -110 31q-65 0 -107 -27q-46 -29 -46 -83q0 -40 32 -71q23 -23 53 -34z" />
    <glyph glyph-name="uni2160" unicode="&#x2160;" 
d="M361 718v-24q59 0 81 -14q23 -13 23 -53v-544q0 -31 -23 -44q-24 -15 -81 -15v-25h271v25q-58 0 -82 15q-22 13 -22 44v544q0 40 22 53q22 14 82 14v24h-271z" />
    <glyph glyph-name="uni2161" unicode="&#x2161;" 
d="M375 627q0 40 22 53q21 14 82 14h41q60 0 81 -14q24 -13 24 -53v-544q0 -31 -24 -44q-23 -15 -81 -15h-41q-59 0 -82 15q-22 13 -22 44v544zM208 718v-24q59 0 81 -14q23 -13 23 -53v-544q0 -31 -23 -44q-24 -15 -81 -15v-25h584v25q-59 0 -83 15q-22 13 -22 44v544
q0 40 22 53q22 14 83 14v24h-584z" />
    <glyph glyph-name="uni2162" unicode="&#x2162;" 
d="M531 627q0 40 22 53q23 14 86 14q64 0 87 -14q24 -13 24 -53v-544q0 -31 -24 -44q-25 -15 -87 -15q-61 0 -86 15q-22 13 -22 44v544zM83 718v-24q59 0 81 -14q23 -13 23 -53v-544q0 -31 -23 -44q-24 -15 -81 -15v-25h834v25q-59 0 -83 15q-22 13 -22 44v544q0 40 22 53
q22 14 83 14v24h-834zM250 627q0 40 22 53q23 14 88 14q62 0 85 -14q23 -13 23 -53v-544q0 -31 -23 -44q-25 -15 -85 -15q-63 0 -88 15q-22 13 -22 44v544z" />
    <glyph glyph-name="uni2163" unicode="&#x2163;" 
d="M83 718v-24q59 0 81 -14q23 -13 23 -53v-544q0 -31 -23 -44q-24 -15 -81 -15v-25h271v25q-59 0 -82 15q-22 13 -22 44v544q0 39 22 53q21 14 69 14q37 0 59 -16q19 -13 26 -39l199 -657h17l196 641q12 45 31 58q17 13 68 13v24h-219v-24q69 0 87 -15q16 -13 6 -54
l-158 -530l-164 551q-9 30 11 40q18 8 83 8v24h-500z" />
    <glyph glyph-name="uni2164" unicode="&#x2164;" 
d="M604 718v-24q69 0 87 -15q16 -13 2 -54l-175 -530l-181 551q-11 30 7 40q18 8 84 8v24h-255v-24q50 0 74 -16q17 -11 28 -39l216 -657h16l213 641q15 45 33 58q19 13 70 13v24h-219z" />
    <glyph glyph-name="uni2165" unicode="&#x2165;" 
d="M51 718v-24q45 0 70 -16q20 -12 27 -39l199 -657h17l196 641q12 44 31 58q18 13 61 13q53 0 74 -14q24 -14 24 -53v-544q0 -31 -24 -44q-23 -15 -81 -15v-25h272v25q-59 0 -83 15q-22 13 -22 44v544q0 39 24 53t81 14v24h-477v-24q68 0 87 -15q15 -13 6 -54l-158 -530
l-165 551q-8 30 11 40q19 8 84 8v24h-254z" />
    <glyph glyph-name="uni2166" unicode="&#x2166;" 
d="M34 718v-24q33 0 54 -16q19 -13 26 -39l182 -657h17l180 641q11 43 27 58q14 13 37 13q26 0 40 -14q19 -16 19 -53v-544q0 -30 -21 -44q-21 -15 -66 -15v-25h446v25q-46 0 -67 15q-20 14 -20 44v544q0 39 23 53q19 14 64 14v24h-603v-24q69 0 87 -15q16 -13 6 -54
l-141 -523l-148 544q-9 30 11 40q19 8 84 8v24h-237zM750 694q38 0 55 -14q21 -15 21 -53v-544q0 -29 -23 -44q-19 -15 -53 -15q-32 0 -51 15q-21 16 -21 44v544q0 38 21 53q17 14 51 14z" />
    <glyph glyph-name="uni2167" unicode="&#x2167;" 
d="M0 718v-24q33 0 50 -16q15 -12 21 -39l158 -657h17l154 641q13 44 23 58q11 13 34 13q19 0 33 -14q17 -16 17 -53v-544q0 -29 -19 -44q-18 -15 -52 -15v-25h546v25q-35 0 -53 15q-17 15 -17 44v544q0 38 20 53q17 14 50 14v24h-673v-24q51 0 65 -15q13 -13 3 -54
l-123 -521l-125 542q-7 30 8 40q15 8 63 8v24h-200zM570 627q0 36 17 53q15 14 37 14t37 -14q17 -16 17 -53v-544q0 -28 -17 -44q-15 -15 -37 -15q-24 0 -39 15q-15 16 -15 44v544zM741 627q0 36 17 53q15 14 36 14q23 0 38 -14q17 -16 17 -53v-544q0 -28 -17 -44
q-15 -15 -38 -15t-38 15q-15 16 -15 44v544z" />
    <glyph glyph-name="uni2168" unicode="&#x2168;" 
d="M83 718v-24q59 0 81 -14q23 -13 23 -53v-544q0 -31 -23 -44q-24 -15 -81 -15v-25h467v25q-67 0 -86 15q-19 13 1 48l151 251l154 -264q18 -31 -6 -41q-18 -9 -81 -9v-25h254v25q-38 0 -57 10q-20 10 -41 44l-184 317l142 228q26 39 49 54q27 17 64 17v24h-220v-24
q70 0 88 -14q17 -13 -6 -49l-133 -213l-139 236q-15 21 11 31q24 9 79 9v24h-507zM338 694q42 0 65 -13q14 -9 27 -30l172 -288l-164 -271q-25 -38 -41 -50q-22 -18 -59 -18q-47 0 -68 15q-20 14 -20 44v544q0 39 22 53q20 14 66 14z" />
    <glyph glyph-name="uni2169" unicode="&#x2169;" 
d="M196 -1h219v25q-68 0 -86 15q-20 13 1 48l150 251l154 -264q18 -31 -6 -41q-18 -9 -81 -9v-25h254v25q-38 0 -56 10q-21 10 -41 44l-185 317l143 228q25 39 48 54q27 17 64 17v24h-220v-24q71 0 88 -14q18 -13 -6 -49l-133 -213l-139 236q-15 21 11 31q24 9 80 9v24h-254
v-24q43 0 65 -13q16 -9 28 -30l172 -288l-164 -271q-25 -38 -42 -50q-23 -18 -64 -18v-25z" />
    <glyph glyph-name="uni2170" unicode="&#x2170;" 
d="M500 736q-27 0 -41 -16q-12 -13 -12 -35q0 -19 12 -33q14 -17 41 -17q24 0 39 17q13 14 13 33q0 22 -13 35q-15 16 -39 16zM402 -1h193v25q-40 0 -53 10q-13 9 -13 39v411l-131 -46l3 -15q38 0 54 -11q13 -11 13 -34v-305q0 -30 -15 -39q-15 -10 -51 -10v-25z" />
    <glyph glyph-name="uni2171" unicode="&#x2171;" 
d="M702 736q-27 0 -40 -16q-13 -13 -13 -35q0 -19 13 -33q13 -17 40 -17q23 0 38 17q13 14 13 33q0 22 -13 35q-15 16 -38 16zM604 -1h193v25q-40 0 -53 10q-14 9 -14 39v411l-131 -46l4 -15q38 0 54 -11q13 -11 13 -34v-305q0 -30 -16 -39q-14 -10 -50 -10v-25zM327 736
q-27 0 -40 -16q-13 -13 -13 -35q0 -19 13 -33q13 -17 40 -17q23 0 38 17q13 14 13 33q0 22 -13 35q-15 16 -38 16zM229 -1h193v25q-40 0 -53 10q-14 9 -14 39v411l-131 -46l4 -15q38 0 54 -11q13 -11 13 -34v-305q0 -30 -16 -39q-14 -10 -50 -10v-25z" />
    <glyph glyph-name="uni2172" unicode="&#x2172;" 
d="M783 736q-27 0 -40 -16q-13 -13 -13 -35q0 -19 13 -33q13 -17 40 -17q24 0 39 17q13 14 13 33q0 22 -13 35q-15 16 -39 16zM685 -1h193v25q-40 0 -52 10q-14 9 -14 39v411l-131 -46l3 -15q39 0 55 -11q13 -11 13 -34v-305q0 -30 -16 -39q-14 -10 -51 -10v-25zM220 736
q-26 0 -40 -16q-13 -13 -13 -35q0 -19 13 -33q14 -17 40 -17q25 0 39 17q14 14 14 33q0 22 -14 35q-14 16 -39 16zM123 -1h193v25q-40 0 -53 10q-13 9 -13 39v411l-131 -46l3 -15q39 0 54 -11q14 -11 14 -34v-305q0 -30 -17 -39q-13 -10 -50 -10v-25zM500 736q-27 0 -41 -16
q-12 -13 -12 -35q0 -19 12 -33q14 -17 41 -17q24 0 39 17q13 14 13 33q0 22 -13 35q-15 16 -39 16zM402 -1h193v25q-40 0 -53 10q-13 9 -13 39v411l-131 -46l3 -15q38 0 54 -11q13 -11 13 -34v-305q0 -30 -15 -39q-15 -10 -51 -10v-25z" />
    <glyph glyph-name="uni2173" unicode="&#x2173;" 
d="M393 477v-25q32 0 47 -7t27 -30l156 -433h16l153 424q11 26 30 36q18 10 53 10v25h-178v-25q40 0 56 -14q15 -13 8 -37l-114 -321l-116 337q-8 21 10 29q14 6 53 6v25h-201zM156 -1h193v25q-40 0 -53 10q-13 9 -13 39v411l-131 -46l4 -15q38 0 53 -11q14 -11 14 -34v-305
q0 -30 -16 -39q-14 -10 -51 -10v-25zM253 736q-25 0 -39 -16q-12 -13 -12 -35q0 -19 12 -33q14 -17 39 -17t39 17q14 14 14 33q0 22 -14 35q-14 16 -39 16z" />
    <glyph glyph-name="uni2174" unicode="&#x2174;" 
d="M259 477v-25q33 0 47 -7q15 -7 27 -30l157 -433h16l153 424q10 26 29 36t53 10v25h-177v-25q41 0 57 -14q14 -13 6 -37l-113 -321l-117 337q-8 21 11 29q14 6 53 6v25h-202z" />
    <glyph glyph-name="uni2175" unicode="&#x2175;" 
d="M125 477v-25q32 0 46 -7q15 -7 28 -30l156 -433h17l152 424q11 26 29 36q19 10 53 10v25h-178v-25q40 0 57 -14q15 -13 8 -37l-115 -321l-116 337q-8 21 11 29q15 6 54 6v25h-202zM653 -1h193v25q-40 0 -53 10q-13 9 -13 39v411l-131 -46l3 -15q38 0 54 -11
q13 -11 13 -34v-305q0 -30 -15 -39q-15 -10 -51 -10v-25zM750 736q-26 0 -40 -16q-12 -13 -12 -35q0 -19 12 -33q14 -17 40 -17q25 0 40 17q13 14 13 33q0 22 -13 35q-15 16 -40 16z" />
    <glyph glyph-name="uni2176" unicode="&#x2176;" 
d="M62 477v-25q30 0 43 -7q14 -7 22 -30l144 -433h17l140 424q11 27 26 36q14 10 48 10v25h-161v-25q40 0 53 -14q11 -12 3 -37l-102 -321l-104 337q-8 21 7 29q11 6 49 6v25h-185zM531 -1h193v25q-40 0 -54 10q-13 9 -13 39v411l-131 -46l4 -15q38 0 53 -11q14 -11 14 -34
v-305q0 -30 -16 -39q-14 -10 -50 -10v-25zM627 736q-25 0 -39 -16q-12 -13 -12 -35q0 -19 12 -33q14 -17 39 -17t40 17q13 14 13 33q0 22 -13 35q-15 16 -40 16zM845 736q-26 0 -40 -16q-13 -13 -13 -35q0 -19 13 -33q14 -17 40 -17q25 0 39 17q14 14 14 33q0 22 -14 35
q-14 16 -39 16zM748 -1h193v25q-40 0 -53 10q-13 9 -13 39v411l-131 -46l3 -15q39 0 54 -11q14 -11 14 -34v-305q0 -30 -17 -39q-13 -10 -50 -10v-25z" />
    <glyph glyph-name="uni2177" unicode="&#x2177;" 
d="M9 477v-25q31 0 43 -7q13 -7 19 -30l127 -433h16l128 424q8 26 22 36t48 10v25h-158v-25q39 0 54 -14q11 -12 7 -37l-93 -321l-92 337q-5 21 10 29q13 6 50 6v25h-181zM408 -1h176v25q-34 0 -45 10q-13 9 -13 39v411l-122 -46l3 -15q33 0 47 -11q12 -11 12 -34v-305
q0 -29 -15 -39q-13 -10 -43 -10v-25zM497 736q-26 0 -39 -16q-13 -13 -13 -35q0 -19 13 -33q13 -17 39 -17q24 0 39 17q13 14 13 33q0 22 -13 35q-15 16 -39 16zM885 736q-26 0 -40 -16q-12 -13 -12 -35q0 -19 12 -33q14 -17 40 -17q25 0 39 17q14 14 14 33q0 22 -14 35
q-14 16 -39 16zM796 -1h177v25q-34 0 -46 10q-12 9 -12 39v411l-123 -46l3 -15q34 0 47 -11t13 -34v-305q0 -29 -16 -39q-12 -10 -43 -10v-25zM602 -1h177v25q-34 0 -46 10q-13 9 -13 39v411l-122 -46l3 -15q33 0 47 -11q13 -11 13 -34v-305q0 -29 -16 -39q-13 -10 -43 -10
v-25zM691 736q-25 0 -39 -16q-13 -13 -13 -35q0 -19 13 -33q14 -17 39 -17q24 0 39 17q14 14 14 33q0 22 -14 35q-15 16 -39 16z" />
    <glyph glyph-name="uni2178" unicode="&#x2178;" 
d="M591 477h-202v-25q29 0 49 -10q19 -10 37 -32l129 -174l-113 -151q-33 -39 -60 -50q-21 -11 -59 -11v-25h189v25q-47 0 -56 11q-9 10 10 40l106 140l112 -159q12 -18 4 -24q-9 -8 -54 -8v-25h209v25q-33 0 -52 8q-19 7 -34 25l-150 203l112 152q16 21 40 30q25 10 67 10
v25h-184v-25q41 0 52 -8q9 -8 -4 -27l-98 -136l-99 137q-15 20 -4 27q9 7 53 7v25zM111 -1h193v25q-40 0 -53 10q-13 9 -13 39v411l-131 -46l3 -15q39 0 55 -11q13 -11 13 -34v-305q0 -30 -16 -39q-14 -10 -51 -10v-25zM208 736q-26 0 -40 -16q-12 -13 -12 -35q0 -19 12 -33
q14 -17 40 -17q25 0 40 17q13 14 13 33q0 22 -13 35q-15 16 -40 16z" />
    <glyph glyph-name="uni2179" unicode="&#x2179;" 
d="M458 477h-202v-25q30 0 50 -10q19 -10 37 -32l128 -174l-112 -151q-33 -39 -60 -50q-21 -11 -59 -11v-25h188v25q-47 0 -55 11q-10 10 10 40l105 140l112 -159q12 -18 5 -24q-9 -8 -55 -8v-25h209v25q-32 0 -51 8q-19 7 -35 25l-149 203l111 152q16 21 40 30q26 10 67 10
v25h-183v-25q41 0 51 -8t-4 -27l-98 -136l-97 137q-17 20 -6 27q10 7 53 7v25z" />
    <glyph glyph-name="arrowleft" unicode="&#x2190;" 
d="M951 163v43l-23 12l6 115v411l-15 18l19 42h-167l-17 -9l-64 9h-373l-106 10l-6 -19l-191 7l11 -285l-20 -15l9 -90l4 -199l19 -34l-19 -54l-2 -196h271l55 23l39 -7v-16h553v163zM906 390h-79l-61 -10l-55 10l-93 -10l-87 10h-58l-57 -7l-77 7h-32l14 -27l-14 -49
l-45 19l2 30l-36 -16l-52 10l-34 36l-101 32l60 26l21 29l108 28l77 28l8 -32l-8 -46h38l37 10l58 -10h214l54 7l61 -7l86 10l51 -10v-68z" />
    <glyph glyph-name="arrowup" unicode="&#x2191;" 
d="M951 163v43l-23 12l6 115v411l-15 18l19 42h-167l-17 -9l-64 9h-373l-106 10l-6 -19l-191 7l11 -285l-20 -15l9 -90l4 -199l19 -34l-19 -54l-2 -196h271l55 23l39 -7v-16h553v163zM587 514l-30 -8l-46 8v-38l11 -36l-11 -57v-176l7 -55l-7 -61l11 -85l-11 -50h-68v78
l-9 60l9 55l-9 94l9 49v57l-7 57l7 76v32l-27 -14l-50 14l19 46l31 -2l-16 36l10 52l36 33l33 102l24 -60l31 -19l27 -111z" />
    <glyph glyph-name="arrowright" unicode="&#x2192;" 
d="M951 163v43l-23 12l6 115v411l-15 18l19 42h-167l-17 -9l-64 9h-373l-106 10l-6 -19l-191 7l11 -285l-20 -15l9 -90l4 -199l19 -34l-19 -54l-2 -196h271l55 23l39 -7v-16h553v163zM912 423l-103 -33l-34 -36l-51 -10l-36 16l2 -30l-46 -20l-14 50l14 27h-32l-75 -7l-58 7
h-58l-88 -10l-92 10l-56 -10l-60 10h-79v69l51 10l86 -10l60 6l54 -6h215l58 10l36 -10h38l-8 45l8 31l77 -27l110 -27l19 -30z" />
    <glyph glyph-name="arrowdown" unicode="&#x2193;" 
d="M951 163v43l-23 12l6 115v411l-15 18l19 42h-167l-17 -9l-64 9h-373l-106 10l-6 -19l-191 7l11 -285l-20 -15l9 -90l4 -199l19 -34l-19 -54l-2 -196h271l55 23l39 -7v-16h553v163zM587 212l-26 -77l-27 -109l-31 -20l-24 -60l-33 101l-36 34l-10 52l16 35l-31 -1l-19 45
l50 14l27 -14v33l-7 76l7 56v58l-9 59l9 94l-9 54l9 61v78h68l11 -51l-11 -85l7 -61l-7 -53v-187l11 -57l-11 -37v-38l46 8z" />
    <glyph glyph-name="arrowboth" unicode="&#x2194;" 
d="M951 163v43l-23 12l6 115v411l-15 18l19 42h-167l-17 -9l-64 9h-373l-106 10l-6 -19l-191 7l11 -285l-20 -15l9 -90l4 -199l19 -34l-19 -54l-2 -196h271l55 23l39 -7v-16h553v163zM912 393l-103 -32l-34 -36l-51 -10l-36 15l2 -30l-46 -19l-14 49l14 28h-11l-4 -10
l-84 10h-57l-58 -7l-75 7h-32l14 -28l-14 -49l-46 19l3 30l-37 -15l-52 10l-33 36l-102 32l60 24l20 31l111 27l76 27l9 -30l-9 -47h38l36 11l58 -11h189l-8 47l8 30l77 -27l110 -27l19 -31z" />
    <glyph glyph-name="arrowupdn" unicode="&#x2195;" 
d="M951 163v43l-23 12l6 115v411l-15 18l19 42h-167l-17 -9l-64 9h-373l-106 10l-6 -19l-191 7l11 -285l-20 -15l9 -90l4 -199l19 -34l-19 -54l-2 -196h271l55 23l39 -7v-16h553v163zM587 213l-26 -77l-27 -109l-31 -20l-24 -60l-33 101l-36 35l-10 50l16 36l-31 -2l-19 46
l50 14l27 -14v6l-9 5l9 86v57l-7 57l7 76v33l-27 -14l-50 14l19 45l31 -1l-16 36l10 52l36 33l33 95l24 -53l31 -22l27 -108l26 -77l-30 -8l-46 8v-38l11 -37l-11 -57v-188l46 9z" />
    <glyph glyph-name="uni2196" unicode="&#x2196;" 
d="M951 163v43l-23 12l6 115v411l-15 18l19 42h-167l-17 -9l-64 9h-373l-106 10l-6 -19l-191 7l11 -285l-20 -15l9 -90l4 -199l19 -34l-19 -54l-2 -196h271l55 23l39 -7v-16h553v163zM875 7l-58 -49l-77 77l-90 88l-67 44l-36 58l-79 79l-90 73l-74 90l-32 33l-37 37
l-23 -46l-38 -16l-29 75l-26 26l-19 52l-6 50l-18 33l-29 65l92 -38l64 -13l72 -32l11 -42l65 -4l-15 -39l-44 -20l59 -51l52 -59l131 -111l91 -112l42 -42l50 -50l70 -45l-6 -23l63 -31z" />
    <glyph glyph-name="uni2197" unicode="&#x2197;" 
d="M951 163v43l-23 12l6 115v411l-3 10l7 50h-167l-17 -9l-64 9h-373l-106 10l-6 -19l-191 7l11 -285l-20 -15l9 -90l4 -199l19 -34l-19 -54l-2 -196h271l55 23l39 -7v-16h553v163zM910 776l-28 -65l-19 -33l-6 -50l-19 -52l-26 -26l-29 -75l-37 16l-24 46l-37 -37l-32 -33
l-74 -90l-89 -73l-79 -79l-72 -92l-65 -44l-90 -88l-62 -47l-58 48l15 29l64 31l-7 22l71 45l49 50l76 76l91 112l131 111l49 59l63 51l-44 20l-16 39l66 4l10 42l72 32l64 13z" />
    <glyph glyph-name="uni2198" unicode="&#x2198;" 
d="M951 163v43l-23 12l6 115v411l-15 18l19 42h-167l-17 -9l-64 9h-373l-106 10l-6 -19l-191 7l11 -285l-20 -15l9 -90l4 -199l19 -34l-19 -54l-2 -196h271l55 23l39 -7v-16h553v163zM895 -44l-82 13l-63 13l-73 32l-10 44l-66 2l16 39l44 20l-62 53l-50 58l-126 103
l-91 110l-76 76l-49 50l-71 45l7 22l-64 31l-30 57l58 50l77 -77l90 -88l65 -44l72 -92l79 -78l84 -65l75 -88l32 -34l36 -36l24 46l37 14l29 -75l27 -24l18 -54l6 -48l19 -34z" />
    <glyph glyph-name="uni2199" unicode="&#x2199;" 
d="M951 163v43l-23 12l6 115v411l-15 18l19 42h-167l-17 -9l-64 9h-373l-106 10l-6 -19l-191 7l11 -285l-20 -15l9 -90l4 -199l19 -34l-19 -54l-2 -196h271l55 23l39 -7v-16h553v163zM908 724l-30 -57l-64 -31l7 -22l-70 -45l-49 -50l-77 -76l-91 -110l-131 -113l-49 -58
l-62 -52l44 -20l15 -39l-65 -3l-11 -43l-72 -32l-64 -13l-89 -18l26 45l18 33l6 50l19 53l26 25l29 75l38 -15l23 -46l37 37l32 32l74 90l90 74l79 78l71 92l66 44l89 88l77 77z" />
    <glyph glyph-name="arrowdblright" unicode="&#x21d2;" 
d="M958 358l-333 229l-36 -45l130 -87h-719v-49h790l71 -48l-69 -48h-792v-47h722l-133 -90l36 -45z" />
    <glyph glyph-name="arrowdblboth" unicode="&#x21d4;" 
d="M958 358l-333 229l-36 -45l123 -83h-465l122 83l-36 45l-333 -229l333 -230l36 45l-126 85h472l-126 -85l36 -45zM861 358l-73 -50h-618l-73 50l75 52h614z" />
    <glyph glyph-name="universal" unicode="&#x2200;" 
d="M857 732h-101l-78 -191h-361l-78 191h-100l301 -746h116zM644 455l-146 -358l-146 358h292z" />
    <glyph glyph-name="partialdiff" unicode="&#x2202;" 
d="M742 358q0 123 -75 207q-76 86 -189 86q-103 0 -169 -53q-52 -42 -73 -111h108q11 33 40 55q37 27 96 27q62 0 109 -53q47 -54 50 -127h-422q-4 -155 75 -243q74 -81 188 -81q116 0 190 87q72 83 72 206zM637 312q-8 -74 -50 -119q-43 -46 -107 -46q-69 0 -113 50
q-41 46 -44 115h314z" />
    <glyph glyph-name="existential" unicode="&#x2203;" 
d="M737 -14v746h-518v-86h422v-229h-402v-87h402v-259h-431v-85h527z" />
    <glyph glyph-name="gradient" unicode="&#x2207;" 
d="M841 646h-726l364 -618zM703 569l-224 -384l-227 384h451z" />
    <glyph glyph-name="element" unicode="&#x2208;" 
d="M814 90v38h-409q-113 0 -178 71q-56 58 -60 140h646v38h-646q4 83 60 142q65 69 178 69h409v39h-398q-133 0 -214 -77q-78 -75 -78 -191q0 -115 78 -191q81 -78 214 -78h398z" />
    <glyph glyph-name="suchthat" unicode="&#x220b;" 
d="M833 359q0 116 -79 191q-81 77 -212 77h-399v-39h410q111 0 177 -69q56 -59 62 -142h-648v-38h648q-6 -82 -62 -140q-66 -71 -177 -71h-410v-38h399q132 0 212 78q79 75 79 191z" />
    <glyph glyph-name="product" unicode="&#x220f;" 
d="M804 608v77h-651v-77h153v-575h77v575h192v-575h76v575h153z" />
    <glyph glyph-name="summation" unicode="&#x2211;" 
d="M761 33v218h-71v-141h-365l242 250l-265 248h380v-141h71v218h-549v-84l259 -242l-254 -264q-14 -12 -21 -20q-11 -14 -7 -24q4 -9 11 -14q6 -4 16 -4h553z" />
    <glyph glyph-name="radical" unicode="&#x221a;" 
d="M852 597v39h-498l-92 -520l-90 167l-83 -60l20 -33l50 36l108 -206q3 -4 9 -4q5 1 6 6l105 575h465z" />
    <glyph glyph-name="proportional" unicode="&#x221d;" 
d="M843 191l-22 32q-19 -12 -38 -18q-23 -7 -51 -7q-49 0 -88 25q-32 21 -57 56q-17 25 -30 55q-11 25 -9 25q-2 0 9 25q13 31 30 56q25 35 57 56q39 24 88 24q29 0 51 -5q20 -6 39 -20l21 31q-22 17 -50 26q-27 8 -61 8q-50 0 -94 -23q-35 -20 -63 -54q-22 -24 -37 -53
q-14 -24 -12 -24q1 0 -13 24q-15 29 -36 53q-29 34 -64 54q-43 23 -92 23q-83 0 -142 -59q-58 -59 -58 -142t58 -143q59 -59 142 -59q49 0 93 24q34 20 63 53q21 24 37 53q13 23 12 23q-2 0 11 -23q15 -29 36 -53q28 -33 63 -53q44 -24 96 -24q34 0 60 9q25 7 51 25z
M504 359q1 0 -10 -25q-14 -30 -33 -55q-26 -35 -57 -56q-38 -25 -83 -25q-68 0 -114 47q-47 47 -47 114t47 114q46 47 114 47q45 0 83 -24q31 -21 57 -56q19 -25 33 -56q11 -25 10 -25z" />
    <glyph glyph-name="infinity" unicode="&#x221e;" 
d="M831 359q0 72 -52 123q-51 50 -123 50q-42 0 -80 -20q-30 -16 -55 -46q-18 -19 -32 -45q-12 -20 -10 -20q1 0 -11 20q-13 26 -32 45q-25 30 -55 46q-38 20 -80 20q-72 0 -123 -50q-51 -51 -51 -123q0 -71 51 -122q51 -52 123 -52q42 0 80 21q30 16 55 44q19 21 32 46
q12 20 11 20q-2 0 10 -20q14 -25 33 -46q25 -28 55 -44q37 -21 79 -21q72 0 123 52q52 51 52 122zM787 359q0 -54 -39 -93t-92 -39q-36 0 -67 22q-25 15 -46 44q-14 21 -26 45q-10 21 -8 21q-2 0 8 21q12 25 26 45q21 30 46 45q31 21 67 21q53 0 92 -38q39 -39 39 -94z
M448 359q1 0 -9 -21q-12 -24 -26 -45q-21 -29 -46 -44q-31 -22 -66 -22q-53 0 -92 39q-38 39 -38 93q0 55 38 94q39 38 92 38q35 0 66 -21q25 -15 46 -45q14 -20 26 -45q10 -21 9 -21z" />
    <glyph glyph-name="angle" unicode="&#x2220;" 
d="M824 52v38h-603l546 549l-32 30l-573 -579l-5 -4q-7 -7 -10 -11q-6 -7 -4 -12q1 -5 7 -8q5 -3 12 -3h662z" />
    <glyph glyph-name="uni2225" unicode="&#x2225;" 
d="M627 -101v920h-86v-920h86zM417 -101v920h-89v-920h89z" />
    <glyph glyph-name="logicaland" unicode="&#x2227;" 
d="M798 52l-300 615q-5 9 -9 14q-6 5 -10 5q-5 0 -12 -6q-5 -6 -8 -13l-300 -615l33 -18l287 587l286 -587z" />
    <glyph glyph-name="logicalor" unicode="&#x2228;" 
d="M798 667l-33 18l-286 -586l-287 586l-33 -18l300 -615q3 -7 8 -12q7 -7 12 -7q4 0 10 7q4 4 9 12z" />
    <glyph glyph-name="intersection" unicode="&#x2229;" 
d="M747 24v398q0 133 -79 213q-74 78 -189 78q-117 0 -191 -78q-78 -80 -78 -213v-398h39v409q0 117 76 184q63 55 149 55h10q84 0 148 -55q76 -68 76 -184v-409h39z" />
    <glyph glyph-name="union" unicode="&#x222a;" 
d="M734 295v399h-38v-409q0 -116 -77 -183q-65 -57 -149 -57h-10q-85 0 -149 57q-76 66 -76 183v409h-38v-399q0 -131 77 -212q75 -79 191 -79t191 79q78 81 78 212z" />
    <glyph glyph-name="integral" unicode="&#x222b;" 
d="M640 702q12 18 -4 38q-16 21 -45 14q-53 -9 -88 -84q-33 -71 -45 -190l-2 -26q-6 -52 -8 -79q-2 -36 -6 -125l-2 -48q-1 -78 -8 -113q-12 -53 -43 -67q-4 -1 -9 1q-4 1 -11 5q-16 7 -26 8q-15 0 -26 -18q-14 -19 3 -39q16 -21 46 -16q52 11 87 86q31 70 46 190q4 42 6 68
q1 19 4 62l6 99l1 49q1 79 9 112q11 55 44 67q4 2 11 1q3 -1 11 -5q17 -7 25 -6q14 0 24 16z" />
    <glyph glyph-name="uni222C" unicode="&#x222c;" 
d="M769 702q12 18 -5 38q-16 21 -45 14q-52 -9 -88 -84q-32 -71 -44 -190l-4 -41q-5 -44 -6 -70q-3 -38 -6 -119l-2 -48q-2 -80 -9 -113q-11 -53 -43 -67q-4 -1 -9 1q-4 1 -11 5q-16 7 -25 8q-15 0 -26 -18q-15 -19 2 -39q16 -21 48 -16q51 11 86 86q31 71 45 190q4 37 6 63
q2 17 4 53l7 113l1 49q2 81 9 112q11 55 43 67q4 2 11 1q3 -1 11 -5q18 -7 26 -6q14 0 24 16zM509 702q12 18 -5 38q-16 21 -45 14q-52 -9 -86 -84q-34 -71 -46 -190l-4 -33q-4 -48 -6 -75q-2 -37 -6 -122l-2 -48q-2 -79 -9 -113q-11 -53 -43 -67q-4 -1 -8 1q-4 1 -12 5
q-16 7 -26 8q-15 0 -26 -18q-13 -19 3 -39q17 -21 47 -16q52 11 87 86q31 71 46 190q5 46 7 73q0 20 3 69l5 87l2 59q2 75 9 106q12 51 44 63q4 2 10 1q4 -1 11 -5q17 -7 26 -6q14 0 24 16z" />
    <glyph glyph-name="uni222E" unicode="&#x222e;" 
d="M697 577q14 7 20 23q6 15 1 30q-6 17 -22 29q-18 12 -44 14q-32 5 -59 -7q-30 -16 -50 -53q-13 -24 -26 -58q-13 -33 -27 -82h-11q-56 0 -96 -39q-39 -40 -39 -96q0 -36 19 -67q18 -30 51 -48l-19 -57l-18 -57q-7 -26 -19 -46q-16 -23 -28 -20q-4 2 -6 7q-1 2 -3 10
q-1 8 -2 12q-2 6 -5 11q-11 14 -25 18q-16 4 -30 -4q-15 -7 -21 -22q-5 -15 0 -31q6 -16 21 -28q19 -13 45 -16q32 -2 58 10q30 15 51 52q11 23 26 61q13 35 29 83h11q54 0 94 39q40 40 40 93q0 37 -21 70q-18 31 -49 48l1 5l35 104q7 28 19 47q15 24 29 19q3 -1 5 -6
q1 -2 3 -9q1 -8 2 -12q2 -6 6 -11q9 -13 24 -18q15 -4 30 2zM557 338q0 -31 -23 -54t-55 -23q-33 0 -57 23q-22 23 -22 54q0 34 25 57q25 22 58 22q31 0 53 -22q21 -23 21 -57z" />
    <glyph glyph-name="therefore" unicode="&#x2234;" 
d="M542 583q0 27 -18 45q-19 18 -45 18q-28 0 -47 -18q-17 -18 -17 -45q0 -28 17 -46q19 -19 47 -19q26 0 45 19q18 18 18 46zM786 124q0 28 -19 46q-18 18 -46 18t-47 -18q-17 -18 -17 -46q0 -27 17 -45q19 -19 47 -19t46 19q19 18 19 45zM300 124q0 28 -18 46
q-19 18 -46 18q-28 0 -46 -18t-18 -46q0 -27 18 -45q18 -19 46 -19q27 0 46 19q18 18 18 45z" />
    <glyph glyph-name="uni2235" unicode="&#x2235;" 
d="M772 590q0 23 -16 37q-14 15 -36 15t-37 -15q-14 -14 -14 -37q0 -21 14 -36q15 -15 37 -15t36 15q16 16 16 36zM288 590q0 23 -15 37q-15 15 -36 15q-23 0 -37 -15q-15 -14 -15 -37q0 -20 15 -36q14 -15 37 -15q21 0 36 15t15 36zM531 138q0 23 -16 37q-15 14 -36 14
q-22 0 -37 -14t-15 -37q0 -21 15 -36q15 -16 37 -16q21 0 36 16q16 15 16 36z" />
    <glyph glyph-name="similar" unicode="&#x223c;" 
d="M951 163v43l-23 12l6 115v411l-15 18l19 42h-167l-17 -9l-64 9h-373l-106 10l-6 -19l-191 7l11 -285l-20 -15l9 -90l4 -199l19 -34l-19 -54l-2 -196h271l55 23l39 -7v-16h553v163zM809 453q-4 -6 -12 -13q-5 -5 -17 -15q-12 -8 -19 -14q-11 -10 -21 -21q-14 -2 -29 -9
l-24 -12t-21 -12q-12 -5 -21 -6q-24 -7 -38 -3q-9 2 -21 12q-4 4 -7 6q-5 3 -9 4l-23 6q-19 5 -28 8q-16 5 -26 9l-23 10l-14 7q-47 20 -73 29q-45 17 -64 14q-26 -2 -39 -10q-10 -5 -24 -19q-9 -10 -17 -16q-12 -10 -27 -19q-17 -14 -29 -14q-7 1 -18 12q-5 4 -8 7
q-4 3 -8 4q-6 10 -7 19q0 10 6 19l3 4q22 23 36 36q22 20 48 33q7 19 29 25q13 4 37 4h11q21 3 45 -2q18 -3 45 -13q12 -13 27 -21q10 -3 29 -7q10 -2 15 -4q8 -2 14 -5l72 -31q12 -16 36 -20q14 -2 39 1h5q8 8 21 16q8 5 25 12q22 10 31 16q18 10 29 20q5 6 14 6q5 0 15 -3
q9 -2 13 -2q6 -1 12 -1q14 -6 17 -19q2 -12 -7 -28z" />
    <glyph glyph-name="uni223D" unicode="&#x223d;" 
d="M885 371q2 93 -57 150q-54 51 -131 53q-84 2 -145 -55q-34 -32 -76 -106l-13 -24l-5 -10q-34 -62 -65 -96q-58 -63 -126 -59q-71 4 -112 51t-39 120q0 61 44 102q43 40 103 40q20 0 40 -4q17 -3 32 -10q12 -4 22 -9l8 -5l18 33l-8 6q-10 6 -23 11q-18 8 -37 12
q-23 5 -48 5q-83 0 -139 -58q-51 -54 -51 -128q-3 -90 56 -146q54 -52 131 -57q90 -5 159 67q39 40 74 111l1 4q35 72 66 107q57 62 132 58q68 -2 108 -51q39 -47 39 -119q0 -55 -42 -96q-43 -43 -102 -43q-35 0 -72 16q-37 14 -29 14l-19 -37q-1 0 7 -5q10 -5 23 -11
q17 -7 36 -11q24 -6 50 -6q83 0 137 56q50 51 53 130z" />
    <glyph glyph-name="uni2252" unicode="&#x2252;" 
d="M824 417v45h-691v-45h691zM334 615q0 21 -14 36q-16 15 -35 15q-22 0 -36 -15q-15 -15 -15 -36t15 -35q14 -16 36 -16q19 0 35 16q14 14 14 35zM725 104q0 21 -16 36q-15 15 -35 15t-36 -15q-14 -15 -14 -36t14 -35q16 -16 36 -16q21 0 35 16q16 15 16 35zM824 255v44
h-691v-44h691z" />
    <glyph glyph-name="notequal" unicode="&#x2260;" 
d="M771 213v79h-271l31 114h240v79h-220q1 0 26 92l25 90l-83 23l-55 -205h-278v-79h257l-30 -114h-227v-79h205l-47 -171l83 -18l52 189h292z" />
    <glyph glyph-name="equivalence" unicode="&#x2261;" 
d="M824 493v38h-691v-38h691zM824 339v38h-691v-38h691zM824 186v38h-691v-38h691z" />
    <glyph glyph-name="lessequal" unicode="&#x2264;" 
d="M714 216l-409 179l408 182q21 9 28 26q6 15 0 30t-20 22q-15 7 -31 -1l-476 -220q-29 -14 -28 -38q0 -24 28 -38l477 -222q16 -7 30 1q14 7 20 22q7 16 1 31q-7 18 -28 26zM771 4v79h-585v-79h585z" />
    <glyph glyph-name="greaterequal" unicode="&#x2265;" 
d="M745 358q27 14 27 38t-27 38l-477 220q-17 8 -32 1q-14 -7 -20 -22t0 -30q7 -17 29 -26l408 -182l-409 -179q-22 -8 -29 -26q-6 -15 1 -31q6 -15 20 -22q14 -8 31 -1zM772 4v79h-585v-79h585z" />
    <glyph glyph-name="uni226A" unicode="&#x226a;" 
d="M855 42l-457 317l456 314l-22 32l-468 -328h-2q-8 -5 -12 -8q-6 -5 -6 -10q0 -4 5 -9q3 -3 12 -9l3 -2l468 -326zM625 42l-458 317l457 314l-23 32l-468 -328l-4 -2q-6 -4 -9 -7q-5 -5 -5 -9t4 -9q3 -2 10 -8l4 -3l468 -326z" />
    <glyph glyph-name="uni226B" unicode="&#x226b;" 
d="M843 359q0 5 -7 10q-3 3 -11 8h-1l-468 328l-23 -32l457 -314l-458 -317l24 -29l468 326l5 4q6 5 9 8q5 4 5 8zM613 359q0 5 -7 10q-4 3 -12 8h-1l-467 328l-22 -32l455 -314l-457 -317l24 -29l467 326l2 2q9 6 12 9q6 5 6 9z" />
    <glyph glyph-name="propersubset" unicode="&#x2282;" 
d="M814 90v38h-409q-117 0 -184 77q-55 64 -55 149v10q0 85 55 149q67 75 184 75h409v39h-398q-133 0 -214 -77q-78 -75 -78 -191q0 -115 78 -191q81 -78 214 -78h398z" />
    <glyph glyph-name="propersuperset" unicode="&#x2283;" 
d="M833 359q0 116 -79 191q-81 77 -212 77h-399v-39h410q115 0 183 -75q56 -64 56 -149v-10q0 -85 -56 -149q-67 -77 -183 -77h-410v-38h399q132 0 212 78q79 75 79 191z" />
    <glyph glyph-name="reflexsubset" unicode="&#x2286;" 
d="M814 206v38h-410q-120 0 -184 59q-55 52 -55 132t54 133q65 59 185 59h410v39h-398q-144 0 -221 -68q-71 -62 -71 -163q0 -100 70 -161q77 -68 222 -68h398zM833 52v38h-709v-38h709z" />
    <glyph glyph-name="reflexsuperset" unicode="&#x2287;" 
d="M833 435q0 101 -72 163q-77 68 -219 68h-399v-39h410q119 0 184 -59q55 -53 55 -133t-55 -132q-65 -59 -184 -59h-410v-38h399q143 0 220 68q71 61 71 161zM833 52v38h-709v-38h709z" />
    <glyph glyph-name="uni2299" unicode="&#x2299;" 
d="M821 359q0 141 -101 240q-99 100 -240 100q-143 0 -243 -99q-101 -100 -101 -241q0 -142 101 -241q100 -100 243 -100q141 0 240 101q101 100 101 240zM769 359q0 -119 -85 -204t-204 -85q-121 0 -206 85q-85 84 -85 204q0 121 85 205q85 83 206 83q119 0 204 -84
t85 -204zM610 358q0 55 -39 93q-38 38 -91 38q-56 0 -94 -38q-37 -38 -37 -93q0 -54 37 -92q39 -39 94 -39q53 0 91 39q39 39 39 92z" />
    <glyph glyph-name="perpendicular" unicode="&#x22a5;" 
d="M804 52v38h-304v556h-43v-556h-304v-38h651z" />
    <glyph glyph-name="uni2312" unicode="&#x2312;" 
d="M824 377q-21 127 -117 211q-99 85 -228 85q-131 0 -229 -85q-96 -84 -116 -211h45q21 113 105 184t195 71q110 0 195 -71q85 -72 105 -184h45z" />
    <glyph glyph-name="uni2460" unicode="&#x2460;" 
d="M351 29h314v29q-66 0 -90 4q-37 8 -37 32v592l-23 8q-43 -24 -103 -45q-54 -17 -81 -19l6 -21l55 6q54 6 68 6q20 0 20 -11v-513q0 -25 -32 -32q-24 -6 -97 -6v-30zM502 806q-110 0 -199 -39q-82 -35 -141 -101q-56 -62 -85 -144q-28 -78 -28 -164q0 -182 113 -308
q126 -140 340 -140t339 137q115 125 115 311q0 182 -115 308q-126 140 -339 140zM503 781q201 0 320 -132q108 -120 108 -292q0 -171 -108 -291q-119 -132 -320 -132q-203 0 -322 132q-106 120 -106 291q0 172 106 292q119 132 322 132z" />
    <glyph glyph-name="uni2461" unicode="&#x2461;" 
d="M717 205l-16 6q-25 -73 -53 -103q-23 -24 -53 -24h-234q19 57 75 115q32 35 109 99q82 67 113 103q50 60 50 116q0 78 -46 122q-50 47 -144 47q-99 0 -155 -51q-48 -42 -53 -104q-3 -41 30 -58q33 -16 54 16q10 21 8 36q-2 9 -12 23q-7 10 -10 16q-4 11 -3 22q0 35 37 56
q36 20 92 20q54 0 89 -31q30 -26 42 -71q11 -41 3 -83t-30 -65q-19 -20 -45 -47q-16 -16 -50 -49q-95 -91 -133 -139q-64 -80 -73 -145h368zM502 806q-110 0 -199 -39q-82 -35 -141 -101q-56 -62 -85 -144q-28 -78 -28 -164q0 -182 113 -308q126 -140 340 -140t339 137
q115 125 115 311q0 182 -115 308q-126 140 -339 140zM503 781q201 0 320 -132q108 -120 108 -292q0 -171 -108 -291q-119 -132 -320 -132q-203 0 -322 132q-106 120 -106 291q0 172 106 292q119 132 322 132z" />
    <glyph glyph-name="uni2462" unicode="&#x2462;" 
d="M445 372l10 1q84 0 132 -49q45 -43 45 -110q0 -89 -45 -126q-39 -34 -125 -34q-65 0 -83 37q-11 20 -6 60l1 9q0 23 -14 36q-12 12 -28 12q-18 0 -30 -11q-12 -12 -12 -31q0 -62 48 -98q46 -36 124 -36q113 0 173 48q62 49 62 141q0 61 -41 102q-48 50 -147 62
q81 18 121 51q46 38 46 101q0 64 -42 108q-48 51 -132 51q-80 0 -133 -37q-45 -32 -54 -78q-3 -21 9 -33q11 -11 28 -12q16 -1 28 10q14 10 14 30l-1 10q-3 35 8 53q22 35 92 35q64 0 93 -44q24 -34 24 -87q0 -77 -42 -112q-39 -33 -125 -33q-22 5 -31 3q-11 -2 -11 -16
q0 -12 13 -16q13 -3 31 3zM502 806q-110 0 -199 -39q-82 -35 -141 -101q-56 -62 -85 -144q-28 -78 -28 -164q0 -182 113 -308q126 -140 340 -140t339 137q115 125 115 311q0 182 -115 308q-126 140 -339 140zM503 781q201 0 320 -132q108 -120 108 -292q0 -171 -108 -291
q-119 -132 -320 -132q-203 0 -322 132q-106 120 -106 291q0 172 106 292q119 132 322 132z" />
    <glyph glyph-name="uni2463" unicode="&#x2463;" 
d="M504 598v-364h-243zM419 37h220v23q-34 0 -52 7q-20 10 -20 30v106h118v31h-118v467h-31l-311 -470v-28h279v-104q0 -22 -20 -32q-20 -8 -65 -8v-22zM502 806q-110 0 -199 -39q-82 -35 -141 -101q-56 -62 -85 -144q-28 -78 -28 -164q0 -182 113 -308q126 -140 340 -140
t339 137q115 125 115 311q0 182 -115 308q-126 140 -339 140zM503 781q201 0 320 -132q108 -120 108 -292q0 -171 -108 -291q-119 -132 -320 -132q-203 0 -322 132q-106 120 -106 291q0 172 106 292q119 132 322 132z" />
    <glyph glyph-name="uni2464" unicode="&#x2464;" 
d="M353 679v-345l15 -7q40 49 91 69q49 20 93 7q47 -13 73 -58q31 -49 31 -127q0 -82 -33 -133q-26 -43 -72 -58q-41 -14 -83 -3q-39 10 -59 35q-15 14 -15 27q-1 9 5 25q5 11 6 16q2 10 1 18q0 16 -12 24q-10 8 -26 8q-15 0 -26 -10q-13 -9 -14 -29q0 -68 63 -108
q49 -31 114 -32q79 0 140 56q72 64 72 170q0 98 -63 157q-52 50 -112 51q-50 3 -94 -16q-33 -15 -65 -43v253h235q15 0 31 9q14 9 25 23q8 13 10 23q2 11 -5 13q-11 -8 -29 -12q-11 -2 -41 -3h-14h-242zM502 806q-110 0 -199 -39q-82 -35 -141 -101q-56 -62 -85 -144
q-28 -78 -28 -164q0 -182 113 -308q126 -140 341 -140q214 0 338 137q115 125 115 311q0 182 -115 308q-126 140 -339 140zM503 781q201 0 320 -132q108 -120 108 -292q0 -171 -108 -291q-119 -132 -320 -132q-203 0 -322 132q-106 120 -106 291q0 172 106 292
q119 132 322 132z" />
    <glyph glyph-name="uni2465" unicode="&#x2465;" 
d="M358 358v6q0 119 49 209q54 95 136 95q33 0 46 -14q7 -9 10 -33q1 -9 2 -14q1 -7 4 -14q10 -25 41 -22q32 4 33 36q0 34 -22 58q-25 28 -72 28q-135 0 -216 -109q-74 -100 -74 -248q0 -170 67 -253q56 -68 147 -68q73 0 129 53q67 63 67 169q0 90 -38 139q-46 61 -148 61
q-48 0 -92 -24q-34 -18 -69 -55zM357 286v9q0 40 54 74q52 34 109 34q61 0 94 -57q28 -48 28 -116q0 -83 -35 -135q-36 -55 -97 -55q-71 0 -105 41q-48 57 -48 205zM502 806q-110 0 -199 -39q-82 -35 -141 -101q-56 -62 -85 -144q-28 -78 -28 -164q0 -182 113 -308
q126 -140 340 -140t339 137q115 125 115 311q0 182 -115 308q-126 140 -339 140zM503 781q202 0 320 -132q108 -120 108 -292q0 -171 -108 -291q-118 -132 -320 -132q-203 0 -322 132q-106 120 -106 291q0 172 106 292q119 132 322 132z" />
    <glyph glyph-name="uni2466" unicode="&#x2466;" 
d="M703 649h-360l-36 -181l20 -5q13 52 37 88q27 42 57 42h241l-38 -57q-104 -155 -141 -229q-60 -118 -61 -209q-1 -37 14 -58q13 -20 31 -20q19 0 30 20q11 22 7 58q-11 104 39 229q31 75 116 220l44 75v27zM502 806q-110 0 -199 -39q-82 -35 -141 -101q-56 -62 -85 -144
q-28 -78 -28 -164q0 -182 113 -308q126 -140 340 -140t339 137q115 125 115 311q0 182 -115 308q-126 140 -339 140zM503 781q201 0 320 -132q108 -120 108 -292q0 -171 -108 -291q-119 -132 -320 -132q-203 0 -322 132q-106 120 -106 291q0 172 106 292q119 132 322 132z
" />
    <glyph glyph-name="uni2467" unicode="&#x2467;" 
d="M506 684h-10q-93 0 -141 -53q-39 -44 -39 -107q0 -50 40 -90q31 -31 88 -56q-71 -32 -109 -76q-40 -46 -40 -100q0 -83 61 -124q53 -36 141 -36q87 0 146 42q65 45 65 120q0 62 -39 108q-38 46 -115 77q55 22 87 58q39 42 39 96q0 65 -54 104q-50 37 -120 37zM358 199
q0 49 29 94q31 48 84 72q80 -28 127 -65q58 -45 58 -99q0 -58 -47 -98q-46 -39 -112 -39q-60 0 -97 30q-42 36 -42 105zM488 663l7 1q57 0 95 -40q36 -35 36 -81q0 -42 -37 -82q-30 -33 -75 -56q-70 28 -102 51q-48 39 -48 92q0 55 35 85q34 30 89 30zM502 806
q-110 0 -199 -39q-82 -35 -141 -101q-56 -62 -85 -144q-28 -78 -28 -164q0 -182 113 -308q126 -140 340 -140t339 137q115 125 115 311q0 182 -115 308q-126 140 -339 140zM503 781q201 0 320 -132q108 -120 108 -292q0 -171 -108 -291q-119 -132 -320 -132q-203 0 -322 132
q-106 120 -106 291q0 172 106 292q119 132 322 132z" />
    <glyph glyph-name="uni2468" unicode="&#x2468;" 
d="M489 653h8q81 -1 112 -84q20 -52 21 -143q-16 -48 -57 -77q-36 -26 -73 -26q-67 0 -99 44q-28 38 -28 101q0 87 31 137q31 48 85 48zM631 374l1 -6q0 -133 -42 -215q-42 -81 -111 -81q-42 0 -55 16q-8 10 -7 32v12q0 20 -12 30q-12 9 -28 9t-26 -10q-13 -9 -11 -28
q2 -40 36 -61q31 -21 81 -21q100 0 166 81q69 86 69 230q0 162 -51 239q-48 73 -139 73q-90 0 -141 -57q-47 -56 -47 -149q0 -79 46 -129q44 -47 111 -47q45 0 86 18q50 23 74 64zM502 806q-110 0 -199 -39q-82 -35 -141 -101q-56 -62 -85 -144q-28 -78 -28 -164
q0 -182 113 -308q126 -140 340 -140t339 137q115 125 115 311q0 182 -115 308q-126 140 -339 140zM503 781q201 0 320 -132q108 -120 108 -292q0 -171 -108 -291q-119 -132 -320 -132q-203 0 -322 132q-106 120 -106 291q0 172 106 292q119 132 322 132z" />
    <glyph glyph-name="uni2469" unicode="&#x2469;" 
d="M219 49h199v26q-38 0 -52 5q-20 7 -20 31v564h-19q-35 -24 -62 -36q-23 -10 -61 -20l4 -19l2 1q53 2 66 1q19 -1 19 -9v-479q0 -24 -22 -31q-16 -6 -54 -6v-28zM643 661q57 0 86 -87q26 -77 26 -214q0 -135 -26 -212q-29 -87 -86 -87q-60 0 -92 87q-28 79 -28 212
q0 134 28 214q32 87 92 87zM640 41q83 0 131 94q45 87 45 224q0 139 -45 227q-48 95 -131 95q-85 0 -131 -95q-44 -88 -44 -227q0 -137 43 -224q47 -94 132 -94zM503 781q201 0 320 -132q108 -120 108 -292q0 -171 -108 -291q-119 -132 -320 -132q-203 0 -322 132
q-106 120 -106 291q0 172 106 292q119 132 322 132zM502 806q-110 0 -199 -39q-82 -35 -141 -101q-56 -62 -85 -144q-28 -78 -28 -164q0 -182 113 -308q126 -140 340 -140t339 137q115 125 115 311q0 182 -115 308q-126 140 -339 140z" />
    <glyph glyph-name="uni246A" unicode="&#x246a;" 
d="M239 50h198v25q-38 0 -51 4q-20 8 -20 32v564h-20q-35 -24 -62 -36q-22 -10 -60 -21l4 -18v1q54 2 68 1q19 -1 19 -9v-479q0 -24 -22 -32q-17 -6 -54 -6v-26zM539 50h205v25q-37 0 -51 5q-20 8 -20 31v564h-20q-35 -23 -63 -36q-22 -10 -60 -21l4 -18v1q54 2 68 1
q19 -1 19 -9v-479q0 -23 -25 -32q-19 -6 -57 -6v-26zM503 781q201 0 320 -132q108 -120 108 -292q0 -171 -108 -291q-119 -132 -320 -132q-203 0 -322 132q-106 120 -106 291q0 172 106 292q119 132 322 132zM502 806q-110 0 -199 -39q-82 -35 -141 -101q-56 -62 -85 -144
q-28 -78 -28 -165q0 -181 113 -307q126 -140 340 -140t339 137q115 125 115 311q0 182 -115 308q-126 140 -339 140z" />
    <glyph glyph-name="uni246B" unicode="&#x246b;" 
d="M219 50h199v25q-38 0 -52 5q-20 8 -20 31v565h-19q-35 -24 -62 -36q-23 -10 -61 -21l4 -18l2 1q53 2 66 1q19 -1 19 -9v-480q0 -23 -22 -31q-16 -6 -54 -6v-27zM821 224l-17 6q-24 -73 -53 -103q-21 -24 -51 -24h-192q15 61 65 122q30 35 100 98q69 61 94 94
q42 53 42 104q0 72 -46 113q-48 42 -134 42q-79 0 -124 -43q-40 -39 -40 -99q0 -40 25 -53q23 -14 43 11q11 19 9 33q-2 8 -13 22q-7 9 -10 14q-5 7 -5 16q-5 39 30 59q30 16 81 16q46 0 79 -27q28 -24 38 -64q9 -38 -1 -79q-12 -42 -40 -70l-34 -37q-93 -103 -129 -155
q-62 -89 -70 -169h313zM503 781q201 0 320 -132q108 -120 108 -292q0 -171 -108 -291q-119 -132 -320 -132q-203 0 -322 132q-106 120 -106 291q0 172 106 292q119 132 322 132zM502 806q-110 0 -199 -39q-82 -35 -141 -101q-56 -62 -85 -144q-28 -78 -28 -164
q0 -182 113 -308q126 -140 340 -140t339 137q115 125 115 311q0 182 -115 308q-126 140 -339 140z" />
    <glyph glyph-name="uni246C" unicode="&#x246c;" 
d="M219 49h199v26q-38 0 -52 5q-20 7 -20 31v564h-19q-35 -24 -62 -36q-23 -10 -61 -20l4 -19l2 1q53 2 66 1q19 -1 19 -9v-479q0 -24 -22 -31q-16 -6 -54 -6v-28zM622 355l9 1q50 -1 83 -39q37 -42 37 -111q0 -77 -42 -114q-35 -32 -97 -32q-64 0 -83 38q-11 20 -7 60l1 8
q0 23 -13 36q-10 12 -26 12t-26 -11q-12 -12 -12 -31q0 -62 45 -98q44 -36 121 -36q91 0 142 46q55 48 55 132q0 65 -42 106q-39 38 -108 48q57 17 91 51q40 40 40 95q0 71 -41 113q-43 45 -126 45q-70 0 -112 -34q-38 -32 -42 -80q-3 -21 9 -34q8 -10 24 -11t26 8
q13 12 13 32l-1 13q-3 36 6 54q16 29 69 29q64 0 92 -40q23 -31 23 -91q0 -70 -34 -105q-28 -29 -78 -32q-20 5 -30 3q-11 -2 -11 -16q0 -13 14 -17q12 -2 31 2zM503 781q202 0 320 -132q108 -120 108 -292q0 -171 -108 -291q-118 -132 -320 -132q-203 0 -322 132
q-106 120 -106 291q0 172 106 292q119 132 322 132zM502 806q-110 0 -199 -39q-82 -35 -141 -101q-56 -62 -85 -144q-28 -78 -28 -164q0 -182 113 -308q126 -140 340 -140t339 137q115 125 115 311q0 182 -115 308q-126 140 -339 140z" />
    <glyph glyph-name="uni246D" unicode="&#x246d;" 
d="M219 50h199v25q-38 0 -52 5q-20 8 -20 31v564h-19q-35 -24 -62 -36q-23 -9 -61 -20l4 -19l2 1q53 2 66 1q19 -1 19 -9v-479q0 -23 -22 -31q-16 -6 -54 -6v-27zM674 560v-326h-202zM599 50h197v23q-36 0 -50 8q-13 8 -13 30v92h93v31h-93v439h-26l-270 -442v-28h237v-90
q0 -22 -19 -31q-18 -10 -56 -10v-22zM503 781q201 0 320 -132q108 -120 108 -292q0 -171 -108 -291q-119 -132 -320 -132q-203 0 -322 132q-106 120 -106 291q0 172 106 292q119 132 322 132zM502 806q-110 0 -199 -39q-82 -35 -141 -101q-56 -62 -85 -144q-28 -78 -28 -165
q0 -181 113 -307q126 -140 340 -140t339 137q115 125 115 311q0 182 -115 308q-126 140 -339 140z" />
    <glyph glyph-name="uni246E" unicode="&#x246e;" 
d="M219 47h199v25q-38 0 -52 5q-20 7 -20 31v565h-19q-36 -24 -62 -36q-24 -11 -61 -20l4 -19l6 1q51 1 63 0q18 -1 18 -9v-479q0 -24 -22 -31q-17 -6 -54 -6v-27zM486 659v-310l23 -10q22 44 49 62q28 19 77 19q60 0 90 -48q30 -44 30 -124q0 -90 -47 -140
q-52 -55 -144 -36q-29 12 -34 26q-4 10 3 33q4 14 5 22q3 14 2 26q0 17 -12 27q-10 8 -25 8q-16 0 -27 -7q-13 -10 -13 -27q-8 -64 44 -104q46 -35 113 -35q81 0 135 53q61 59 61 159q0 92 -53 146q-48 48 -115 48q-58 0 -91 -18q-20 -11 -41 -36v-2v215h187q16 0 31 9
q14 9 25 23q8 13 10 23q2 11 -4 13q-12 -8 -29 -11q-11 -2 -38 -3l-17 -1h-195zM503 781q201 0 320 -132q108 -120 108 -292q0 -171 -108 -291q-119 -132 -320 -132q-203 0 -322 132q-106 120 -106 291q0 172 106 292q119 132 322 132zM502 806q-110 0 -199 -39
q-82 -35 -141 -101q-56 -62 -85 -144q-28 -78 -28 -164q0 -182 113 -308q126 -140 340 -140t339 137q115 125 115 311q0 182 -115 308q-126 140 -339 140z" />
    <glyph glyph-name="uni2474" unicode="&#x2474;" 
d="M351 29h314v29q-66 0 -90 4q-37 8 -37 32v592l-23 8q-43 -24 -103 -45q-54 -17 -81 -19l6 -21l55 6q54 6 68 6q20 0 20 -11v-513q0 -25 -32 -32q-24 -6 -97 -6v-30zM186 742l4 7q7 11 1 14t-14 -8q-62 -98 -86 -163q-40 -104 -40 -233q0 -126 37 -235q30 -90 90 -179
q9 -12 15 -8q5 4 -3 18l-10 23q-39 93 -57 156q-31 115 -30 226q0 117 30 223q17 60 54 141zM803 746l5 -7l6 -12q38 -80 56 -141q35 -109 35 -225q0 -122 -35 -242q-19 -66 -55 -149l-2 -5q-9 -14 -3 -17q7 -4 14 8q59 83 87 169q34 101 35 234q0 128 -41 231
q-25 66 -84 159q-13 12 -20 11q-6 -2 2 -14z" />
    <glyph glyph-name="uni2475" unicode="&#x2475;" 
d="M717 205l-16 6q-25 -73 -53 -103q-23 -24 -53 -24h-234q19 57 75 115q32 35 109 99q82 67 113 103q50 60 50 116q0 78 -46 122q-50 47 -144 47q-99 0 -155 -51q-48 -42 -53 -104q-3 -41 30 -58q33 -16 54 16q10 21 8 36q-2 9 -12 23q-7 10 -10 16q-4 11 -3 22q0 35 37 56
q36 20 92 20q54 0 89 -31q30 -26 42 -71q11 -41 3 -83t-30 -65q-19 -20 -45 -47q-16 -16 -50 -49q-95 -91 -133 -139q-64 -80 -73 -145h368zM186 742l4 7q7 11 1 14t-14 -8q-62 -98 -86 -163q-40 -104 -40 -233q0 -126 37 -235q30 -90 90 -179q9 -12 15 -8q5 4 -3 18l-10 23
q-39 93 -57 156q-31 115 -30 226q0 117 30 223q17 60 54 141zM803 746l5 -7l6 -12q38 -80 56 -141q35 -109 35 -225q0 -122 -35 -242q-19 -66 -55 -149l-2 -5q-9 -14 -3 -17q7 -4 14 8q59 83 87 169q34 101 35 234q0 128 -41 231q-25 66 -84 159q-13 12 -20 11q-6 -2 2 -14z
" />
    <glyph glyph-name="uni2476" unicode="&#x2476;" 
d="M445 372l10 1q84 0 132 -49q45 -43 45 -111q0 -88 -45 -125q-40 -34 -126 -34q-64 0 -83 37q-10 20 -5 60l1 9q0 23 -14 36q-12 12 -28 12q-18 0 -30 -11q-12 -12 -12 -31q0 -62 47 -98t124 -36q114 0 174 48q62 49 62 141q0 61 -41 102q-48 50 -147 62q81 18 121 51
q46 38 46 100q0 65 -42 109q-48 51 -132 51q-80 0 -133 -37q-45 -32 -54 -78q-3 -21 9 -33q11 -11 28 -12q16 -1 28 10q14 10 14 30l-1 10q-3 35 8 53q22 35 92 35q64 0 93 -45q24 -33 24 -87q0 -77 -42 -111q-39 -33 -125 -33q-22 4 -31 2q-11 -2 -11 -15q0 -12 13 -16
q13 -3 31 3zM186 742l4 7q7 11 1 14t-14 -8q-62 -98 -86 -163q-40 -104 -40 -233q0 -126 37 -235q30 -90 90 -179q9 -12 15 -8q5 4 -3 18l-10 23q-39 93 -57 156q-31 115 -30 226q0 117 30 223q17 60 54 141zM803 746l5 -7l6 -12q38 -80 56 -140q35 -110 35 -226
q0 -122 -35 -242q-19 -65 -55 -149l-2 -4q-9 -15 -3 -18q7 -4 14 8q59 83 87 170q34 100 35 233q0 128 -41 232q-25 65 -84 158q-13 13 -20 12q-6 -2 2 -15z" />
    <glyph glyph-name="uni2477" unicode="&#x2477;" 
d="M419 37h220v23q-34 0 -52 7q-20 10 -20 30v106h118v31h-118v467h-31l-311 -470v-28h279v-103q0 -23 -20 -32t-65 -9v-22zM504 598v-364h-243zM186 742l4 7q7 11 1 14t-14 -8q-62 -98 -86 -163q-40 -104 -40 -233q0 -126 37 -235q30 -90 90 -179q9 -12 15 -8q5 4 -3 18
l-10 23q-39 93 -57 156q-31 115 -30 226q0 117 30 223q17 60 54 141zM803 746l5 -7l6 -12q38 -80 56 -141q35 -109 35 -225q0 -122 -35 -242q-19 -66 -55 -149l-2 -5q-9 -14 -3 -17q7 -4 14 8q59 83 87 169q34 101 35 234q0 128 -41 231q-25 66 -84 159q-13 12 -20 11
q-6 -2 2 -14z" />
    <glyph glyph-name="uni2478" unicode="&#x2478;" 
d="M353 679v-345l15 -7q40 49 91 69q49 20 93 7q47 -13 73 -58q31 -49 31 -127q0 -82 -33 -133q-26 -43 -72 -58q-41 -14 -83 -3q-39 10 -59 35q-15 14 -15 27q-1 9 5 25q5 11 6 16q2 10 1 18q0 16 -12 24q-10 8 -26 8q-15 0 -26 -10q-13 -9 -14 -29q0 -68 63 -108
q49 -31 114 -32q79 0 140 56q72 64 72 170q0 98 -63 157q-52 50 -112 51q-50 3 -94 -16q-33 -15 -65 -43v253h235q15 0 31 9q14 9 25 23q8 13 10 23q2 11 -5 13q-11 -8 -29 -12q-11 -2 -41 -3h-14h-242zM186 742l4 7q7 11 1 14t-14 -8q-62 -98 -86 -163q-40 -104 -40 -233
q0 -126 37 -235q30 -90 90 -179q9 -12 15 -8q5 4 -3 18l-10 23q-39 93 -57 156q-31 115 -30 226q0 117 30 223q17 60 54 141zM803 746l5 -7l6 -12q38 -80 56 -141q35 -109 35 -225q0 -122 -35 -242q-19 -66 -55 -149l-2 -5q-9 -14 -3 -17q7 -4 14 8q59 83 87 169
q34 101 35 234q0 128 -41 231q-25 66 -84 159q-13 12 -20 11q-6 -2 2 -14z" />
    <glyph glyph-name="uni2479" unicode="&#x2479;" 
d="M357 286v9q0 40 54 74q52 34 109 34q61 0 94 -57q28 -48 28 -116q0 -83 -35 -135q-36 -55 -97 -55q-71 0 -105 41q-48 57 -48 205zM359 358l-1 6q0 119 50 209q54 95 136 95q33 0 46 -14q7 -9 10 -33q1 -9 2 -14q1 -7 4 -14q10 -25 41 -22q32 4 33 36q0 34 -21 58
q-26 28 -73 28q-135 0 -216 -109q-75 -100 -75 -248q0 -170 67 -253q56 -68 147 -68q73 0 129 53q67 63 67 169q0 90 -38 139q-46 61 -147 61q-48 0 -92 -24q-35 -18 -69 -55zM186 742l4 7q7 11 1 14t-14 -8q-62 -98 -86 -163q-40 -104 -40 -233q0 -126 37 -235
q30 -90 90 -179q9 -12 15 -8q5 4 -3 18l-10 23q-39 93 -57 156q-31 115 -30 226q0 117 30 223q17 60 54 141zM803 746l5 -7l6 -12q38 -80 56 -141q35 -109 35 -225q0 -122 -35 -242q-19 -66 -55 -149l-2 -5q-9 -14 -3 -17q7 -4 14 8q59 83 87 169q34 101 35 234
q0 128 -41 231q-25 66 -84 159q-13 12 -20 11q-6 -2 2 -14z" />
    <glyph glyph-name="uni247A" unicode="&#x247a;" 
d="M703 649h-360l-36 -181l20 -5q13 52 37 88q27 42 57 42h241l-38 -57q-104 -155 -141 -229q-60 -118 -61 -209q-1 -37 14 -58q13 -20 31 -20q19 0 30 20q11 22 7 58q-11 104 39 229q31 75 116 220l44 75v27zM186 742l4 7q7 11 1 14t-14 -8q-62 -98 -86 -163
q-40 -104 -40 -233q0 -126 37 -235q30 -90 90 -179q9 -12 15 -8q5 4 -3 18l-10 23q-39 93 -57 156q-31 115 -30 226q0 117 30 223q17 60 54 141zM803 746l5 -7l6 -12q38 -80 56 -141q35 -109 35 -225q0 -122 -35 -242q-19 -66 -55 -149l-2 -5q-9 -14 -3 -17q7 -4 14 8
q59 83 87 169q34 101 35 234q0 128 -41 231q-25 66 -84 159q-13 12 -20 11q-6 -2 2 -14z" />
    <glyph glyph-name="uni247B" unicode="&#x247b;" 
d="M358 199q0 49 29 94q31 48 84 72q80 -28 127 -65q58 -45 58 -99q0 -58 -47 -98q-46 -39 -112 -39q-60 0 -97 30q-42 36 -42 105zM506 684h-10q-93 0 -141 -53q-39 -44 -39 -107q0 -50 40 -90q31 -31 88 -56q-71 -32 -109 -76q-40 -46 -40 -100q0 -83 61 -124
q53 -36 141 -36q87 0 146 42q65 45 65 120q0 62 -39 108q-38 46 -115 77q55 22 87 58q39 42 39 96q0 65 -54 104q-50 37 -120 37zM488 662l7 2q57 0 95 -40q36 -35 36 -81q0 -42 -37 -82q-30 -33 -75 -56q-70 28 -102 51q-48 39 -48 92q0 55 35 85q34 29 89 29zM186 742l4 7
q7 11 1 14t-14 -8q-62 -98 -86 -163q-40 -104 -40 -233q0 -126 37 -235q30 -90 90 -179q9 -12 15 -8q5 4 -3 18l-10 23q-39 93 -57 156q-31 115 -30 226q0 117 30 223q17 60 54 141zM803 746l5 -7l6 -12q38 -80 56 -141q35 -109 35 -225q0 -122 -35 -242q-19 -66 -55 -149
l-2 -5q-9 -14 -3 -17q7 -4 14 8q59 83 87 169q34 101 35 234q0 128 -41 231q-25 66 -84 159q-13 12 -20 11q-6 -2 2 -14z" />
    <glyph glyph-name="uni247C" unicode="&#x247c;" 
d="M630 374l1 -6q0 -133 -42 -215q-42 -81 -110 -81q-42 0 -55 16q-8 10 -7 32v12q0 20 -13 30q-11 9 -27 9t-26 -10q-13 -9 -11 -28q2 -40 36 -61q30 -21 81 -21q100 0 165 81q68 86 68 230q0 162 -50 239q-48 73 -139 73q-89 0 -140 -57q-47 -56 -47 -149q0 -79 45 -129
q44 -47 112 -47q45 0 86 18q49 23 73 64zM489 653h8q81 -1 112 -84q19 -52 20 -143q-15 -48 -56 -77q-36 -26 -74 -26q-66 0 -98 44q-28 38 -28 101q0 87 31 137q31 48 85 48zM186 742l4 7q7 11 1 14t-14 -8q-62 -98 -86 -163q-40 -104 -40 -233q0 -126 37 -235
q30 -90 90 -179q9 -12 15 -8q5 4 -3 18l-10 23q-39 93 -57 156q-31 115 -30 226q0 117 30 223q17 60 54 141zM803 746l5 -7l6 -12q38 -80 56 -141q35 -109 35 -225q0 -122 -35 -242q-19 -66 -55 -149l-2 -5q-9 -14 -3 -17q7 -4 14 8q59 83 87 169q34 101 35 234
q0 128 -41 231q-25 66 -84 159q-13 12 -20 11q-6 -2 2 -14z" />
    <glyph glyph-name="uni247D" unicode="&#x247d;" 
d="M186 742l4 7q7 11 1 14t-14 -8q-62 -98 -86 -163q-40 -104 -40 -233q0 -126 37 -235q30 -90 90 -179q9 -12 15 -8q5 4 -3 18l-10 23q-39 93 -57 156q-31 115 -30 226q0 117 30 223q17 60 54 141zM219 49h199v26q-38 0 -52 5q-20 7 -20 31v564h-19q-35 -24 -62 -36
q-23 -10 -61 -20l4 -19l2 1q53 2 66 1q19 -1 19 -9v-479q0 -24 -22 -31q-16 -6 -54 -6v-28zM640 41q83 0 131 94q45 87 45 224q0 139 -45 227q-48 95 -131 95q-85 0 -131 -95q-44 -88 -44 -227q0 -137 43 -224q47 -94 132 -94zM643 661q57 0 86 -87q26 -77 26 -214
q0 -135 -26 -212q-29 -87 -86 -87q-60 0 -92 87q-28 79 -28 212q0 134 28 214q32 87 92 87zM803 746l5 -7l6 -12q38 -80 56 -141q35 -109 35 -225q0 -122 -34 -242q-20 -66 -55 -149l-2 -5q-9 -14 -3 -17q6 -4 14 8q58 83 87 169q33 101 34 234q0 128 -41 231
q-25 66 -84 159q-13 12 -20 11q-6 -2 2 -14z" />
    <glyph glyph-name="uni247E" unicode="&#x247e;" 
d="M186 742l4 7q7 11 1 14t-14 -8q-62 -98 -86 -163q-40 -104 -40 -233q0 -126 37 -235q30 -90 90 -179q9 -12 15 -8q5 4 -3 18l-10 23q-39 93 -57 156q-31 115 -30 226q0 117 30 223q17 60 54 141zM239 50h198v25q-38 0 -51 4q-20 8 -20 32v564h-20q-35 -24 -62 -36
q-22 -10 -60 -21l4 -18v1q54 2 68 1q19 -1 19 -9v-479q0 -24 -22 -32q-17 -6 -54 -6v-26zM539 50h205v25q-37 0 -51 5q-20 8 -20 31v564h-20q-35 -23 -63 -36q-22 -10 -60 -21l4 -18v1q54 2 68 1q19 -1 19 -9v-479q0 -23 -25 -32q-19 -6 -57 -6v-26zM803 746l5 -7l6 -12
q38 -80 56 -141q35 -109 35 -225q0 -122 -35 -242q-19 -66 -55 -149l-2 -5q-9 -14 -3 -17q7 -4 14 8q59 83 87 169q34 101 35 234q0 128 -41 231q-25 66 -84 159q-13 12 -20 11q-6 -2 2 -14z" />
    <glyph glyph-name="uni247F" unicode="&#x247f;" 
d="M219 50h199v25q-38 0 -52 5q-20 8 -20 31v565h-19q-35 -24 -62 -36q-23 -10 -61 -21l4 -18l2 1q53 2 66 1q19 -1 19 -9v-480q0 -23 -22 -31q-16 -6 -54 -6v-27zM186 742l4 7q7 11 1 14t-14 -8q-62 -98 -86 -163q-40 -104 -40 -233q0 -126 37 -235q30 -90 90 -179
q9 -12 15 -8q5 4 -3 18l-10 23q-39 93 -57 156q-31 115 -30 226q0 117 30 223q17 60 54 141zM821 224l-17 6q-24 -73 -53 -103q-21 -24 -51 -24h-192q15 61 65 122q30 35 100 98q69 61 94 94q42 53 42 104q0 72 -46 113q-48 42 -134 42q-79 0 -124 -43q-40 -39 -40 -99
q0 -40 25 -53q23 -14 43 11q11 19 9 33q-2 8 -13 22q-7 9 -10 14q-5 7 -5 16q-5 39 30 59q30 16 81 16q46 0 79 -27q28 -24 38 -64q9 -38 -1 -79q-12 -42 -40 -70l-34 -37q-93 -103 -129 -155q-62 -89 -70 -169h313zM803 746l5 -7l6 -12q38 -80 56 -141q35 -109 35 -225
q0 -122 -35 -242q-19 -66 -55 -149l-2 -5q-9 -14 -3 -17q7 -4 14 8q59 83 87 169q34 101 35 234q0 128 -41 231q-25 66 -84 159q-13 12 -20 11q-6 -2 2 -14z" />
    <glyph glyph-name="uni2480" unicode="&#x2480;" 
d="M219 49h199v26q-38 0 -52 5q-20 7 -20 31v564h-19q-35 -24 -62 -36q-23 -10 -61 -20l4 -19l2 1q53 2 66 1q19 -1 19 -9v-479q0 -24 -22 -31q-16 -6 -54 -6v-28zM186 742l4 7q7 11 1 14t-14 -8q-62 -98 -86 -163q-40 -104 -40 -233q0 -126 37 -235q30 -90 90 -179
q9 -12 15 -8q5 4 -3 18l-10 23q-39 93 -57 156q-31 115 -30 226q0 117 30 223q17 60 54 141zM622 355l9 1q50 -1 83 -39q37 -42 37 -111q0 -77 -42 -114q-35 -32 -97 -32q-64 0 -83 38q-11 20 -7 60l1 8q0 23 -13 36q-10 12 -26 12t-26 -11q-12 -12 -12 -31q0 -62 45 -98
q44 -36 121 -36q91 0 142 46q55 48 55 132q0 65 -42 106q-39 38 -108 48q57 17 91 51q40 40 40 95q0 71 -41 113q-43 45 -126 45q-70 0 -112 -34q-38 -32 -42 -80q-3 -21 9 -34q8 -10 24 -11t26 8q13 12 13 32l-1 13q-3 36 6 54q16 29 69 29q64 0 92 -40q23 -31 23 -91
q0 -70 -34 -105q-28 -29 -78 -32q-20 5 -30 3q-11 -2 -11 -16q0 -13 14 -17q12 -2 31 2zM804 746l5 -7l5 -12q38 -80 57 -141q34 -109 34 -225q0 -122 -35 -242q-19 -66 -55 -149l-2 -5q-9 -14 -3 -17q7 -4 14 8q59 83 87 169q34 101 35 234q0 128 -40 231q-26 66 -85 159
q-12 12 -19 11q-6 -2 2 -14z" />
    <glyph glyph-name="uni2481" unicode="&#x2481;" 
d="M186 742l4 7q7 11 1 14t-14 -8q-62 -98 -86 -163q-40 -104 -40 -233q0 -126 37 -235q30 -90 90 -179q9 -12 15 -8q5 4 -3 18l-10 23q-39 93 -57 156q-31 115 -30 226q0 117 30 223q17 60 54 141zM219 50h199v25q-38 0 -52 5q-20 8 -20 31v564h-19q-35 -24 -62 -36
q-23 -9 -61 -20l4 -19l2 1q53 2 66 1q19 -1 19 -9v-479q0 -23 -22 -31q-16 -6 -54 -6v-27zM674 560v-326h-202zM599 50h197v23q-36 0 -50 8q-13 8 -13 30v92h93v31h-93v439h-26l-270 -442v-28h237v-90q0 -22 -19 -31q-18 -10 -56 -10v-22zM803 746l5 -7l6 -12
q38 -80 56 -141q35 -109 35 -225q0 -122 -35 -242q-19 -66 -55 -149l-2 -5q-9 -14 -3 -17q7 -4 14 8q59 83 87 169q34 101 35 234q0 128 -41 231q-25 66 -84 159q-13 12 -20 11q-6 -2 2 -14z" />
    <glyph glyph-name="uni2482" unicode="&#x2482;" 
d="M186 742l4 7q7 11 1 14t-14 -8q-62 -98 -86 -163q-40 -104 -40 -233q0 -126 37 -235q30 -90 90 -179q9 -12 15 -8q5 4 -3 18l-10 23q-39 93 -57 156q-31 115 -30 226q0 117 30 223q17 60 54 141zM219 47h199v25q-38 0 -52 5q-20 7 -20 31v565h-19q-36 -24 -62 -36
q-24 -11 -61 -20l4 -19l6 1q51 1 63 0q18 -1 18 -9v-479q0 -24 -22 -31q-17 -6 -54 -6v-27zM486 659v-310l23 -10q22 44 49 62q28 19 77 19q60 0 90 -48q30 -44 30 -124q0 -90 -47 -140q-52 -55 -144 -36q-29 12 -34 26q-4 10 3 33q4 14 5 22q3 14 2 26q0 17 -12 27
q-10 8 -25 8q-16 0 -27 -7q-13 -10 -13 -27q-8 -64 44 -104q46 -35 113 -35q81 0 135 53q61 59 61 159q0 92 -53 146q-48 48 -115 48q-58 0 -91 -18q-20 -11 -41 -36v-2v215h187q16 0 31 9q14 9 25 23q8 13 10 23q2 11 -4 13q-12 -8 -29 -11q-11 -2 -38 -3l-17 -1h-195z
M803 746l5 -7l6 -12q38 -80 56 -141q35 -109 35 -225q0 -122 -34 -242q-20 -66 -55 -149l-2 -5q-9 -14 -3 -17q6 -4 14 8q58 83 87 169q33 101 34 234q0 128 -41 231q-25 66 -84 159q-13 12 -20 11q-6 -2 2 -14z" />
    <glyph glyph-name="uni249C" unicode="&#x249c;" 
d="M245 742l3 4q9 9 4 13q-4 4 -17 -4q-93 -86 -137 -168q-56 -102 -57 -228q0 -123 54 -232q48 -96 137 -173q13 -9 18 -6q5 4 -5 15q-65 63 -107 154q-54 116 -53 243q0 124 53 234q42 86 107 148zM764 743l5 -4q62 -53 103 -146q48 -107 48 -232q0 -132 -53 -247
q-42 -92 -102 -149q-11 -10 -5 -14q6 -5 17 5q90 78 138 177q50 105 50 226q0 127 -52 227q-44 86 -131 163q-14 10 -21 7t3 -13zM554 472v-75q-107 -20 -165 -50q-74 -38 -74 -94q0 -45 35 -72q27 -21 62 -21q39 0 73 15q36 16 70 49q3 -25 16 -41q13 -14 31 -17
q17 -3 33 2q16 7 25 21q8 10 10 18q2 9 -7 4q-14 -14 -34 -8q-22 5 -22 32v246q0 27 -31 46q-26 17 -70 22q-43 6 -85 -4q-45 -10 -74 -36q-17 -19 -17 -37q0 -14 12 -23q10 -9 25 -8q15 0 23 10q4 4 7 10q3 4 7 14q12 25 25 36q20 18 58 18q31 0 51 -20q16 -15 16 -37z
M554 375v-127q-30 -29 -61 -44t-57 -14t-42 17q-15 15 -15 43q0 61 62 94q46 25 113 31z" />
    <glyph glyph-name="uni249D" unicode="&#x249d;" 
d="M245 742l3 4q9 9 4 13q-4 4 -17 -4q-93 -86 -137 -168q-56 -102 -57 -228q0 -123 54 -232q48 -96 137 -173q13 -9 18 -6q5 4 -5 15q-65 63 -107 154q-54 116 -53 243q0 124 53 234q42 86 107 148zM764 743l5 -4q62 -53 103 -146q48 -107 48 -232q0 -132 -53 -247
q-42 -92 -102 -149q-11 -10 -5 -14q6 -5 17 5q90 78 138 177q50 105 50 226q0 127 -52 227q-44 86 -131 163q-14 10 -21 7t3 -13zM368 573v-480h22l25 60q15 -26 48 -42q35 -18 77 -18q62 0 107 52q48 56 48 145q0 90 -48 142q-41 44 -94 44q-52 0 -86 -15q-31 -13 -46 -38
v245l-115 -36v-12q28 -7 44 -18q18 -13 18 -29zM420 171v226q26 34 63 47q36 12 69 -1q37 -14 58 -51q24 -41 24 -104q0 -61 -23 -103q-20 -39 -55 -55q-33 -14 -69 -5q-38 11 -67 46z" />
    <glyph glyph-name="uni249E" unicode="&#x249e;" 
d="M245 742l3 4q9 9 4 13q-4 4 -17 -4q-93 -86 -137 -168q-56 -102 -57 -228q0 -123 54 -232q48 -96 137 -173q13 -9 18 -6q5 4 -5 15q-65 63 -107 154q-54 116 -53 243q0 124 53 234q42 86 107 148zM764 743l5 -4q62 -53 103 -146q48 -107 48 -232q0 -132 -53 -247
q-42 -92 -102 -149q-11 -10 -5 -14q6 -5 17 5q90 78 138 177q50 105 50 226q0 127 -52 227q-44 86 -131 163q-14 10 -21 7t3 -13zM625 242l-5 -5q-23 -21 -54 -32q-27 -10 -55 -10q-50 0 -81 35q-37 42 -37 120q0 82 28 129q30 50 88 50q29 0 43 -16q8 -9 16 -32l2 -6
q4 -18 17 -28q12 -7 25 -6q14 2 23 11q8 12 8 29q-4 28 -37 48q-33 22 -76 22q-94 0 -146 -55q-53 -56 -53 -153q0 -80 56 -132q49 -47 113 -47q48 0 86 21q30 16 54 46q11 17 3 21q-7 5 -18 -10z" />
    <glyph glyph-name="uni249F" unicode="&#x249f;" 
d="M245 742l3 4q9 9 4 13q-4 4 -17 -4q-93 -86 -137 -168q-56 -102 -57 -228q0 -123 54 -231q48 -97 137 -174q13 -9 18 -6q5 4 -5 15q-65 63 -107 154q-54 116 -53 243q0 124 53 234q42 86 107 148zM764 743l5 -4q62 -53 103 -146q48 -107 48 -232q0 -132 -53 -247
q-42 -92 -102 -149q-11 -10 -5 -14q6 -5 17 5q90 78 138 177q50 105 50 226q0 127 -52 227q-44 86 -131 163q-14 10 -21 7t3 -13zM581 586v-150q-28 21 -53 31q-30 11 -63 11q-67 0 -114 -54q-47 -57 -47 -143q0 -83 38 -133q39 -51 105 -51q42 0 77 15q31 14 58 38
q0 -5 1 -13q1 -5 3 -16l3 -12h98v18q-28 -1 -40 8t-12 37v503l-122 -37v-12q27 -3 45 -12q23 -11 23 -28zM581 406v-230q-14 -22 -45 -36q-28 -12 -56 -12q-45 0 -75 27q-41 37 -41 120q0 73 28 122q32 56 88 56q28 0 55 -11q29 -13 46 -36z" />
    <glyph glyph-name="uni24A0" unicode="&#x24a0;" 
d="M245 742l3 4q9 9 4 13q-4 4 -17 -4q-93 -86 -137 -168q-56 -102 -57 -228q0 -123 54 -232q48 -96 137 -173q13 -9 18 -6q5 4 -5 15q-65 63 -107 154q-54 116 -53 243q0 124 53 234q42 86 107 148zM764 743l5 -4q62 -53 103 -146q48 -107 48 -232q0 -132 -53 -247
q-42 -92 -102 -149q-11 -10 -5 -14q6 -5 17 5q90 78 138 177q50 105 50 226q0 127 -52 227q-44 86 -131 163q-14 10 -21 7t3 -13zM656 379q0 61 -33 109q-41 62 -118 62q-81 0 -132 -65q-45 -60 -45 -143q0 -86 57 -136q50 -44 121 -44q40 0 82 21q44 22 63 53q11 15 4 20
t-21 -11q-34 -35 -76 -48q-43 -13 -80 2q-41 14 -64 57q-26 48 -26 123h268zM592 401h-201q7 61 39 96q31 32 69 32t63 -32q30 -35 30 -96z" />
    <glyph glyph-name="uni24A1" unicode="&#x24a1;" 
d="M245 742l3 4q9 9 4 13q-4 4 -17 -4q-93 -86 -137 -168q-56 -102 -57 -228q0 -123 54 -232q48 -96 137 -173q13 -9 18 -6q5 4 -5 15q-65 63 -107 154q-54 116 -53 243q0 124 53 234q42 86 107 148zM764 743l5 -4q62 -53 103 -146q48 -107 48 -232q0 -132 -53 -247
q-42 -92 -102 -149q-11 -10 -5 -14q6 -5 17 5q90 78 138 177q50 105 50 226q0 127 -52 227q-44 86 -131 163q-14 10 -21 7t3 -13zM377 93h196v18q-29 0 -52 11q-23 13 -23 27v281h95v24h-95v63q0 49 9 74q9 26 28 26q8 0 14 -4q4 -2 10 -9q5 -6 9 -8q6 -4 14 -5q18 -1 31 10
q11 10 12 23q2 15 -8 25q-13 11 -37 11q-64 0 -102 -55q-34 -49 -34 -116v-35h-78v-24h78v-284q0 -15 -18 -25q-19 -10 -49 -10v-18z" />
    <glyph glyph-name="uni24A2" unicode="&#x24a2;" 
d="M459 297q-52 5 -52 22q1 16 39 29q12 -1 20 -2q10 -1 20 -1q51 0 88 23q33 22 50 58q16 34 11 71q-4 38 -28 68q14 15 24 22q14 10 23 5q-5 -19 6 -28q11 -10 28 -9q16 2 25 13q8 10 7 23q-1 14 -10 25q-11 10 -27 11q-24 4 -50 -10q-17 -10 -42 -35q-21 17 -45 26
q-28 9 -60 9q-61 0 -100 -33q-37 -29 -45 -76q-9 -45 10 -86q21 -44 67 -64q-25 -10 -42 -21q-23 -15 -27 -28q-10 -20 26 -35q19 -8 56 -14l4 -1q-66 -23 -98 -52q-31 -28 -24 -53t50 -41q47 -17 123 -17q94 0 149 27q53 25 53 67q0 55 -61 78q-46 19 -168 29zM486 362
q-45 0 -71 38q-24 33 -24 81t24 81q26 38 71 38t71 -38q24 -33 24 -81t-24 -81q-26 -38 -71 -38zM469 255h11q77 -6 112 -18q48 -18 48 -52q0 -29 -42 -48q-38 -16 -93 -18q-54 -3 -93 8q-41 13 -41 37q0 35 32 60q25 19 66 31zM245 742l3 4q9 9 4 13q-4 4 -17 -4
q-93 -86 -137 -168q-56 -102 -57 -228q0 -123 54 -232q48 -96 137 -173q13 -9 18 -6q5 4 -5 15q-65 63 -107 154q-54 116 -53 243q0 124 53 234q42 86 107 148zM764 743l5 -4q62 -53 103 -146q48 -107 48 -232q0 -132 -53 -247q-42 -92 -102 -149q-11 -10 -5 -14q6 -5 17 5
q90 78 138 177q50 105 50 226q0 127 -52 227q-44 86 -131 163q-14 10 -21 7t3 -13z" />
    <glyph glyph-name="uni24A3" unicode="&#x24a3;" 
d="M310 105h161v18q-25 0 -40 7q-14 8 -14 25v212q13 37 44 58q28 20 60 22t53 -13q24 -16 27 -46v-243q0 -16 -14 -21q-11 -3 -36 -3v-16h156v18q-25 0 -35 4q-17 7 -17 25v243q-8 45 -38 68q-26 22 -65 22t-75 -20q-38 -20 -60 -56v276l-115 -39v-10q26 0 43 -9
q19 -8 19 -22v-453q0 -18 -18 -26q-12 -5 -36 -5v-16zM245 742l3 4q9 9 4 13q-4 4 -17 -4q-93 -86 -137 -168q-56 -102 -57 -228q0 -123 54 -232q48 -96 137 -173q13 -9 18 -6q5 4 -5 15q-65 63 -107 154q-54 116 -53 243q0 124 53 234q42 86 107 148zM764 743l5 -4
q62 -53 103 -146q48 -107 48 -232q0 -132 -53 -247q-42 -92 -102 -149q-11 -10 -5 -14q6 -5 17 5q90 78 138 177q50 105 50 226q0 127 -52 227q-44 86 -131 163q-14 10 -21 7t3 -13z" />
    <glyph glyph-name="uni24A4" unicode="&#x24a4;" 
d="M508 610q19 0 30 11q9 9 9 23t-9 23q-11 10 -30 10t-31 -10q-10 -9 -10 -23t10 -23q12 -11 31 -11zM429 103h161v16q-18 0 -36 10q-17 11 -17 25v334l-107 -36v-13q18 0 36 -9t18 -19v-256q0 -16 -16 -27q-16 -9 -39 -9v-16zM245 742l3 4q9 9 4 13q-4 4 -17 -4
q-93 -86 -137 -168q-56 -102 -57 -228q0 -123 54 -232q48 -96 137 -173q13 -9 18 -6q5 4 -5 15q-65 63 -107 154q-54 116 -53 243q0 124 53 234q42 86 107 148zM764 743l5 -4q62 -53 103 -146q48 -107 48 -232q0 -132 -53 -247q-42 -92 -102 -149q-11 -10 -5 -14q6 -5 17 5
q90 78 138 177q50 105 50 226q0 127 -52 227q-44 86 -131 163q-14 10 -21 7t3 -13z" />
    <glyph glyph-name="uni24A5" unicode="&#x24a5;" 
d="M514 651q18 0 28 11q10 9 10 23q0 15 -10 24q-10 10 -28 10t-29 -10q-10 -9 -10 -24q0 -14 10 -23q11 -11 29 -11zM497 438v-345q0 -25 -11 -38q-9 -10 -20 -9q-7 2 -11 6q-3 3 -8 9q-6 9 -12 13q-9 5 -24 5q-19 -4 -28 -16q-7 -11 -3 -23q4 -13 17 -21q15 -9 35 -9
q52 4 83 36q36 37 36 102v375l-123 -34l1 -11q34 -5 50 -13q18 -9 18 -27zM245 742l3 4q9 9 4 13q-4 4 -17 -4q-93 -86 -137 -168q-56 -102 -57 -228q0 -123 54 -232q48 -96 137 -173q13 -9 18 -6q5 4 -5 15q-65 63 -107 154q-54 116 -53 243q0 124 53 234q42 86 107 148z
M764 743l5 -4q62 -53 103 -146q48 -107 48 -232q0 -132 -53 -247q-42 -92 -102 -149q-11 -10 -5 -14q6 -5 17 5q90 78 138 177q50 105 50 226q0 127 -52 227q-44 86 -131 163q-14 10 -21 7t3 -13z" />
    <glyph glyph-name="uni24A6" unicode="&#x24a6;" 
d="M313 101h156v20q-23 -1 -37 8q-13 11 -13 29v91l66 59l103 -157q7 -12 -3 -22q-10 -9 -31 -11v-19h166v20q-23 -1 -35 3q-15 5 -28 23l-133 195l89 81q17 13 38 22q24 9 47 9v21h-167v-17q27 0 40 -15q12 -15 -3 -29l-149 -133v412l-106 -32l4 -15q22 0 35 -7
q13 -8 13 -20v-455q0 -20 -15 -32q-14 -10 -37 -11v-18zM245 742l3 4q9 9 4 13q-4 4 -17 -4q-93 -86 -137 -168q-56 -102 -57 -228q0 -123 54 -232q48 -96 137 -173q13 -9 18 -6q5 4 -5 15q-65 63 -107 154q-54 116 -53 243q0 124 53 234q42 86 107 148zM764 743l5 -4
q62 -53 103 -146q48 -107 48 -232q0 -132 -53 -247q-42 -92 -102 -149q-11 -10 -5 -14q6 -5 17 5q90 78 138 177q50 105 50 226q0 127 -52 227q-44 86 -131 163q-14 10 -21 7t3 -13z" />
    <glyph glyph-name="uni24A7" unicode="&#x24a7;" 
d="M413 69h178v20q-25 0 -42 12q-14 11 -14 26v528l-118 -32l5 -16q28 -1 44 -9q15 -7 15 -18v-450q0 -18 -17 -30q-19 -12 -51 -12v-19zM245 742l3 4q9 9 4 13q-4 4 -17 -4q-93 -86 -137 -168q-56 -102 -57 -228q0 -123 54 -232q48 -96 137 -173q13 -9 18 -6q5 4 -5 15
q-65 63 -107 154q-54 116 -53 243q0 124 53 234q42 86 107 148zM764 743l5 -4q62 -53 103 -146q48 -107 48 -232q0 -132 -53 -247q-42 -92 -102 -149q-11 -10 -5 -14q6 -5 17 5q90 78 138 177q50 105 50 226q0 127 -52 227q-44 86 -131 163q-14 10 -21 7t3 -13z" />
    <glyph glyph-name="uni24A8" unicode="&#x24a8;" 
d="M178 167h158v18q-17 0 -35 8q-18 11 -18 26v214q14 36 46 57q28 21 60 23q32 3 53 -12q24 -17 27 -49v-234q0 -16 -13 -25q-13 -8 -36 -8v-18h150v19q-24 0 -36 6q-11 7 -11 20v219q13 34 46 56q29 20 64 24q35 3 58 -10q25 -14 27 -43v-243q0 -16 -13 -24q-12 -6 -37 -6
v-18h150v18q-24 0 -37 10q-11 9 -9 25v247q-2 36 -32 57q-27 21 -69 23t-81 -16q-43 -19 -69 -56q-3 28 -29 47t-63 23q-39 3 -76 -13q-42 -17 -70 -56v70l-111 -35l2 -12q30 -2 44 -13q12 -8 12 -24v-248q0 -13 -16 -22q-14 -7 -36 -7v-18zM245 742l3 4q9 9 4 13
q-4 4 -17 -4q-93 -86 -137 -168q-56 -102 -57 -228q0 -123 54 -232q48 -96 137 -173q13 -9 18 -6q5 4 -5 15q-65 63 -107 154q-54 116 -53 243q0 124 53 234q42 86 107 148zM764 743l5 -4q62 -53 103 -146q48 -107 48 -232q0 -132 -53 -247q-42 -92 -102 -149
q-11 -10 -5 -14q6 -5 17 5q90 78 138 177q50 105 50 226q0 127 -52 227q-44 86 -131 163q-14 10 -21 7t3 -13z" />
    <glyph glyph-name="uni24A9" unicode="&#x24a9;" 
d="M298 177h150v18q-23 0 -36 9q-12 9 -12 21v223q70 63 123 69q58 6 60 -61v-235q0 -14 -12 -20t-35 -6v-18h149v18q-22 0 -34 5q-13 7 -13 20v247q0 42 -25 65q-22 22 -59 23q-37 2 -77 -17q-43 -19 -77 -56v66l-103 -26l1 -14q25 -3 37 -15q9 -9 11 -27v-240
q0 -15 -12 -23t-36 -8v-18zM245 742l3 4q9 9 4 13q-4 4 -17 -4q-93 -86 -137 -168q-56 -102 -57 -228q0 -123 54 -232q48 -96 137 -173q13 -9 18 -6q5 4 -5 15q-65 63 -107 154q-54 116 -53 243q0 124 53 234q42 86 107 148zM764 743l5 -4q62 -53 103 -146q48 -107 48 -232
q0 -132 -53 -247q-42 -92 -102 -149q-11 -10 -5 -14q6 -5 17 5q90 78 138 177q50 105 50 226q0 127 -52 227q-44 86 -131 163q-14 10 -21 7t3 -13z" />
    <glyph glyph-name="uni24AA" unicode="&#x24aa;" 
d="M497 170q-57 0 -89 57q-30 52 -30 125t30 125q32 56 89 56q55 0 88 -56q30 -52 30 -125t-30 -125q-33 -57 -88 -57zM497 155q84 0 133 62q45 55 45 135q0 81 -45 136q-49 61 -133 61t-134 -61q-44 -55 -44 -136q0 -80 44 -135q50 -62 134 -62zM245 742l3 4q9 9 4 13
q-4 4 -17 -4q-93 -86 -137 -168q-56 -102 -57 -228q0 -123 54 -232q48 -96 137 -173q13 -9 18 -6q5 4 -5 15q-65 63 -107 154q-54 116 -53 243q0 124 53 234q42 86 107 148zM764 743l5 -4q62 -53 103 -146q48 -107 48 -232q0 -132 -53 -247q-42 -92 -102 -149
q-11 -10 -5 -14q6 -5 17 5q90 78 138 177q50 105 50 226q0 127 -52 227q-44 86 -131 163q-14 10 -21 7t3 -13z" />
    <glyph glyph-name="uni24AB" unicode="&#x24ab;" 
d="M310 122h161v18q-27 0 -43 10q-14 11 -14 28v118q20 -19 44 -33q31 -15 57 -15q73 0 120 42q61 52 61 162q0 66 -29 114q-26 45 -70 63q-43 19 -92 7q-50 -11 -91 -53v57l-104 -32l4 -15q22 -4 32 -9q14 -6 14 -19v-384q0 -20 -15 -31q-13 -11 -35 -11v-17zM635 456
q0 -73 -26 -119q-22 -41 -60 -54q-35 -13 -73 1q-37 13 -62 48v228q35 34 74 48q39 13 71 2q34 -12 54 -49q22 -40 22 -105zM245 742l3 4q9 9 4 13q-4 4 -17 -4q-93 -86 -137 -168q-56 -102 -57 -228q0 -123 54 -232q48 -96 137 -173q13 -9 18 -6q5 4 -5 15q-65 63 -107 154
q-54 116 -53 243q0 124 53 234q42 86 107 148zM764 743l5 -4q62 -53 103 -146q48 -107 48 -232q0 -132 -53 -247q-42 -92 -102 -149q-11 -10 -5 -14q6 -5 17 5q90 78 138 177q50 105 50 226q0 127 -52 227q-44 86 -131 163q-14 10 -21 7t3 -13z" />
    <glyph glyph-name="uni24AC" unicode="&#x24ac;" 
d="M523 101h156v20q-23 -1 -37 9q-13 11 -13 28v458h-18l-34 -41q-21 22 -46 32q-31 13 -74 13q-80 0 -127 -63q-43 -56 -43 -139q0 -93 51 -147q45 -45 108 -45q48 0 79 14q22 10 50 35v-113q0 -20 -15 -31q-14 -11 -37 -12v-18zM470 597q31 0 60 -10q30 -12 45 -34v-244
q-22 -29 -47 -45q-27 -16 -58 -16q-54 0 -88 43q-35 46 -35 128q0 71 31 122q35 56 92 56zM245 742l3 4q9 9 4 13q-4 4 -17 -4q-93 -86 -137 -168q-56 -102 -57 -228q0 -123 54 -232q48 -96 137 -173q13 -9 18 -6q5 4 -5 15q-65 63 -107 154q-54 116 -53 243q0 124 53 234
q42 86 107 148zM764 743l5 -4q62 -53 103 -146q48 -107 48 -232q0 -132 -53 -247q-42 -92 -102 -149q-11 -10 -5 -14q6 -5 17 5q90 78 138 177q50 105 50 226q0 127 -52 227q-44 86 -131 163q-14 10 -21 7t3 -13z" />
    </font>
</defs>
</svg>
