<?xml version="1.0" encoding="UTF-8" standalone="no"?>
<!-- Created with Inkscape (http://www.inkscape.org/) -->

<svg
   version="1.1"
   id="svg1"
   width="2494.7708"
   height="1743.4478"
   viewBox="0 0 2494.7708 1743.4478"
   xmlns="http://www.w3.org/2000/svg"
   xmlns:svg="http://www.w3.org/2000/svg">
  <defs
     id="defs1" />
  <g
     id="g1"
     transform="translate(-282.57082,-3010.4247)">
    <g
       id="g2"
       transform="translate(246.42857,207.14286)">
      <path
         style="fill:#d8d5d0;fill-opacity:1"
         d="m 1722.5716,4546.7296 c -102.7195,-59.7128 -206.524,-123.5282 -326.947,-138.8461 -193.1723,-47.8713 -401.55167,-44.8667 -586.52203,33.5045 -64.929,-3.439 -118.8236,147.5139 -134.6395,28.0065 -47.7202,-82.6427 -162.82967,-90.2458 -249.48705,-92.3581 -126.31606,-1.8102 -254.89584,16.4148 -371.321217,65.8102 34.44456,-54.0312 -53.21864014,-123.985 0.23595,-197.7342 11.71815,-60.7279 75.687957,-165.0277 83.617787,-50.3546 47.16195,80.5594 147.6711,-24.8768 219.12586,-11.3383 93.34291,-14.4078 183.23628,5.9239 273.74637,26.3591 73.433,17.7403 71.1908,162.8549 159.1024,95.3482 93.88558,-16.1276 185.31356,-42.9696 280.79383,-49.2522 93.7289,-19.4011 190.5022,-7.394 284.5545,-28.8466 107.8534,8.3547 215.9452,42.4061 304.1681,106.3531 -19.9624,-67.0108 -36.3983,-168.7942 42.8363,-204.0347 51.0327,-30.6034 114.7774,-40.2817 171.9541,-20.3561 91.3747,23.6973 181.6037,68.9728 231.0797,153.4033 -5.362,-90.184 -44.3837,-181.1937 -15.6264,-271.7608 13.3431,-108.5883 36.8923,-249.2617 156.6355,-288.5665 77.5751,-27.0181 135.9469,77.7648 217.8206,81.5899 124.8593,43.4241 -92.0109,-0.7359 -107.9049,65.2335 -43.7679,86.9707 -114.2174,158.8836 -151.3239,248.7513 -20.315,81.1047 25.0287,216.2489 -18.9995,266.4633 -64.2537,-65.6557 -155.6125,-100.8038 -243.8767,-119.7317 -99.3374,-24.9532 -188.6156,62.5673 -190.1462,159.4899 -7.0936,37.9751 -7.5968,126.3358 -28.8766,142.8671 z"
         id="path1" />
      <path
         style="fill:#000000"
         d="m 719.11329,4350.1507 c -28.69403,-101.6635 -134.24549,-123.9002 -227.06895,-131.323 -122.27716,-14.6358 -243.66901,28.1486 -355.16836,68.2044 20.4364,-32.5697 69.09267,-159.167 49.02856,-141.2488 7.63692,55.4136 -35.10855,144.3439 59.13374,87.5529 136.60355,-45.2776 291.38535,-44.7651 422.83809,15.8241 43.79332,21.293 43.16147,121.7934 81.45694,44.5396 118.34066,-55.2771 254.30269,-49.522 382.12109,-61.1228 167.1255,-3.3863 348.0523,-13.6631 498.5137,69.7664 8.5855,-68.556 -18.537,-222.1199 117.7317,-201.0933 127.0747,-12.2332 249.264,46.2547 351.36,116.0831 8.4085,-143.7239 -51.8693,-300.5247 28.7292,-432.3342 79.1015,-117.0772 235.9956,-100.0151 357.4636,-129.0171 -137.1867,-78.5736 -281.4956,-190.2947 -315.0398,-353.5719 -36.0479,-65.5239 166.8357,-210.4275 110.225,-159.0958 -183.621,9.9787 -378.0557,-20.9694 -531.7377,-126.3436 -70.3356,-45.892 60.8378,-225.7903 -54.5242,-128.9079 -48.8593,30.3094 -220.2625,117.2282 -188.2182,7.0698 3.5441,102.3568 161.2041,-14.1862 211.1606,-38.2342 23.5622,-20.8123 139.015,-93.4631 65.0492,-24.6344 -70.439,82.5754 -41.3924,212.7067 76.8228,226.1189 153.1422,69.9286 328.755,82.7635 493.339,62.2432 -9.2363,22.6521 -106.4289,47.4482 -135.7699,92.3162 -77.9387,76.9108 -0.1483,190.7018 55.167,257.3567 71.5839,81.2314 161.4952,145.0063 259.1865,190.1775 -47.3008,17.2491 -146.9799,21.4426 -211.8746,34.7609 -108.9464,9.8584 -213.6357,92.7586 -216.7118,207.9562 -7.8644,111.8277 11.6999,223.5742 16.9125,335.211 21.3472,103.9385 -48.637,-62.5206 -101.3592,-54.5984 -101.7335,-55.6915 -222.9161,-93.7145 -337.3866,-55.6239 -78.1349,27.9204 15.6398,218.0345 -57.1952,200.5411 -72.1281,-75.5303 -202.1336,-74.156 -303.94,-83.2557 -179.1938,-1.313 -363.06024,-1.5614 -536.79147,46.7253 -49.41151,-7.6118 -31.26974,80.0933 -63.45324,57.9577 z"
         id="path27" />
    </g>
  </g>
</svg>
