<?xml version="1.0" encoding="UTF-8" standalone="no"?>
<!-- Created with Inkscape (http://www.inkscape.org/) -->

<svg
   version="1.1"
   id="svg1"
   width="1868.8962"
   height="1995.105"
   viewBox="0 0 1868.8962 1995.105"
   xml:space="preserve"
   xmlns="http://www.w3.org/2000/svg"
   xmlns:svg="http://www.w3.org/2000/svg"><defs
     id="defs1" /><g
     id="g1"
     transform="translate(-78.785425,-917.19842)"><g
       id="g23"
       transform="translate(50.507625,-217.18279)"><path
         style="fill:#f0ede4;fill-opacity:1"
         d="M 75.367013,2414.3357 C 18.844458,2141.462 -9.8928292,2033.885 125.87464,1592.6727 282.6809,1083.0893 982.78556,1067.5247 1400.1206,1215.9019 c 257.0468,91.3891 403.9421,408.909 462.195,675.4266 47.6155,217.8495 74.7256,292.4309 -113.007,659.3633 -125.4785,222.1723 -234.5377,434.7544 -457.4119,541.4747 -125.0595,49.0249 -261.087,39.2562 -391.09783,28.8467 -152.6012,28.4102 -751.96496,-352.0017 -825.431857,-706.6775 z m 950.966387,480.3441 c 287.5612,-11.3898 530.2249,-241.6147 600.7177,-513.6017 66.5423,-238.0052 63.3032,-506.2355 -49.6675,-729.7785 -133.2507,-272.3436 -458.2601,-397.4205 -747.61323,-358.0177 -134.67,20.1385 -277.1626,55.3274 -382.8317,145.1816 -130.2012,123.1795 -197.6205,294.2812 -244.4123,463.7905 -29.0989,144.5753 19.1159,289.0005 55.0128,427.5782 69.3718,170.8378 184.6157,325.0296 329.3542,439.1932 129.7379,86.7153 281.6595,141.5979 439.44003,125.6544 z M 504.00777,1393.5136 c 30.8594,-19.9957 -38.6852,21.1614 0,0 z"
         id="path22" /><path
         style="fill:#000000"
         d="M 943.99997,2894.5661 C 719.12475,2887.4242 513.5653,2755.5964 386.20917,2574.4216 229.34118,2363.5585 148.41115,2084.0453 219.95132,1825.5641 c 38.71428,-139.2297 85.89849,-297.4675 211.92688,-378.4616 33.27361,-27.0123 102.35737,-36.5193 102.53848,-23.1275 -112.42317,1.2874 -158.69153,70.9201 -213.52658,164.7253 -132.58786,230.826 -153.30522,535.0203 -37.87874,777.9759 102.72909,231.6877 295.81266,444.4492 552.98864,496.0779 227.6101,49.6778 482.5559,-28.2243 628.5068,-213.6868 178.087,-222.1441 219.1426,-528.954 164.8569,-802.4006 -37.5036,-205.0273 -175.4898,-388.7849 -366.484,-474.3307 -262.6988,-123.2156 -581.93402,-78.3819 -825.35343,68.9305 -42.16935,28.3803 -138.08107,123.5177 -57.85134,32.2796 146.21264,-119.0466 336.98185,-175.2226 523.31129,-185.4095 253.88168,-15.1892 520.69988,101.6506 653.58558,323.965 124.257,213.6792 137.3151,477.3318 84.7526,714.5644 -51.9868,232.5611 -208.3239,454.4504 -441.3115,531.3519 -81.7762,28.8391 -169.5393,40.3241 -256.01293,36.5482 z"
         id="path57" /></g></g></svg>
